<svg xmlns="http://www.w3.org/2000/svg" width="15.197" height="15.197" viewBox="0 0 15.197 15.197">
  <g id="_08-Birthday" data-name="08-Birthday" transform="translate(-2 -2)">
    <path id="Path_131706" data-name="Path 131706" d="M29.76,26.028a.76.76,0,0,0,.76-.76,2.969,2.969,0,0,0-.552-1.158.253.253,0,0,0-.415,0A2.969,2.969,0,0,0,29,25.268.76.76,0,0,0,29.76,26.028Zm0-1.3a1.894,1.894,0,0,1,.253.545.253.253,0,0,1-.507,0A1.925,1.925,0,0,1,29.76,24.724Z" transform="translate(-20.161 -16.43)" fill="#11004a"/>
    <path id="Path_131707" data-name="Path 131707" d="M19.76,26.028a.76.76,0,0,0,.76-.76,2.969,2.969,0,0,0-.552-1.158.253.253,0,0,0-.415,0A2.969,2.969,0,0,0,19,25.268.76.76,0,0,0,19.76,26.028Zm0-1.3a1.894,1.894,0,0,1,.253.545.253.253,0,0,1-.507,0A1.925,1.925,0,0,1,19.76,24.724Z" transform="translate(-12.694 -16.43)" fill="#11004a"/>
    <path id="Path_131708" data-name="Path 131708" d="M15.266,34.52H14.76a.76.76,0,0,0-.76.76v3.293a.253.253,0,0,0,.253.253h8.612a.253.253,0,0,0,.253-.253V35.28a.76.76,0,0,0-.76-.76h-.507V33.253A.253.253,0,0,0,21.6,33H20.585a.253.253,0,0,0-.253.253V34.52H19.319V33.253A.253.253,0,0,0,19.066,33H18.053a.253.253,0,0,0-.253.253V34.52H16.786V33.253A.253.253,0,0,0,16.533,33H15.52a.253.253,0,0,0-.253.253Zm7.345,3.8H14.507V36.546c.142,0,.2.056.327.18a.884.884,0,0,0,1.373,0c.124-.124.185-.18.327-.18s.2.056.327.18a.884.884,0,0,0,1.373,0c.124-.124.185-.18.327-.18s.2.056.327.18a.884.884,0,0,0,1.373,0c.124-.124.185-.18.327-.18s.2.056.327.18a.884.884,0,0,0,1.373,0c.124-.124.185-.18.327-.18Zm0-3.039v.76a.912.912,0,0,0-.686.327c-.124.124-.185.18-.327.18s-.2-.056-.327-.18a.884.884,0,0,0-1.373,0c-.124.124-.185.18-.327.18s-.2-.056-.327-.18a.884.884,0,0,0-1.373,0c-.124.124-.185.18-.327.18s-.2-.056-.327-.18a.884.884,0,0,0-1.373,0c-.124.124-.185.18-.327.18s-.2-.056-.327-.18a.912.912,0,0,0-.686-.327v-.76a.253.253,0,0,1,.253-.253h7.6A.253.253,0,0,1,22.612,35.28Zm-1.773-1.773h.507V34.52h-.507Zm-2.533,0h.507V34.52h-.507Zm-2.026,0V34.52h-.507V33.507Z" transform="translate(-8.961 -23.148)" fill="#11004a"/>
    <path id="Path_131709" data-name="Path 131709" d="M39.76,26.028a.76.76,0,0,0,.76-.76,2.969,2.969,0,0,0-.552-1.158.253.253,0,0,0-.415,0A2.969,2.969,0,0,0,39,25.268.76.76,0,0,0,39.76,26.028Zm0-1.3a1.894,1.894,0,0,1,.253.545.253.253,0,0,1-.507,0A1.925,1.925,0,0,1,39.76,24.724Z" transform="translate(-27.629 -16.43)" fill="#11004a"/>
    <path id="Path_131710" data-name="Path 131710" d="M16.437,3.266h-1.52V2.76a.76.76,0,1,0-1.52,0v.507h-1.52V2.76a.76.76,0,1,0-1.52,0v.507H8.839V2.76a.76.76,0,1,0-1.52,0v.507H5.8V2.76a.76.76,0,1,0-1.52,0v.507H2.76a.76.76,0,0,0-.76.76v3.8a.253.253,0,0,0,.507,0V6.559H16.69v7.852a.253.253,0,1,0,.507,0V4.026a.76.76,0,0,0-.76-.76ZM13.9,2.76a.253.253,0,1,1,.507,0V4.28a.253.253,0,1,1-.507,0Zm-3.039,0a.253.253,0,0,1,.507,0V4.28a.253.253,0,0,1-.507,0Zm-3.039,0a.253.253,0,1,1,.507,0V4.28a.253.253,0,1,1-.507,0Zm-3.039,0a.253.253,0,1,1,.507,0V4.28a.253.253,0,0,1-.507,0ZM2.507,6.053V4.026a.253.253,0,0,1,.253-.253H4.28V4.28a.76.76,0,1,0,1.52,0V3.773h1.52V4.28a.76.76,0,0,0,1.52,0V3.773h1.52V4.28a.76.76,0,1,0,1.52,0V3.773H13.4V4.28a.76.76,0,0,0,1.52,0V3.773h1.52a.253.253,0,0,1,.253.253V6.053Z" fill="#11004a"/>
    <path id="Path_131711" data-name="Path 131711" d="M16.944,34.585a.253.253,0,0,0-.253.253v1.013a.253.253,0,0,1-.253.253H2.76a.253.253,0,0,1-.253-.253v-7.6a.253.253,0,0,0-.507,0v7.6a.76.76,0,0,0,.76.76H16.437a.76.76,0,0,0,.76-.76V34.839A.253.253,0,0,0,16.944,34.585Z" transform="translate(0 -19.415)" fill="#11004a"/>
  </g>
</svg>
