<svg xmlns="http://www.w3.org/2000/svg" width="39.117" height="39.116" viewBox="0 0 39.117 39.116">
  <g id="Group_23817" data-name="Group 23817" transform="translate(-1696 -1214.122)">
    <path id="Path_130656" data-name="Path 130656" d="M38.117,19.058A19.058,19.058,0,1,1,19.058,0,19.059,19.059,0,0,1,38.117,19.058" transform="translate(1696.5 1214.622)" fill="none" stroke="#11004a" stroke-linejoin="round" stroke-width="1"/>
    <path id="Line_6" data-name="Line 6" d="M12.244,0H1.173a1.173,1.173,0,1,0,0,2.345H12.244a1.173,1.173,0,1,0,0-2.345Z" transform="translate(1709.7 1233.302)" fill="#11004a"/>
    <path id="Path_59" data-name="Path 59" d="M1.173,0A1.173,1.173,0,0,0,.343,2L4.692,6.35.343,10.7A1.173,1.173,0,1,0,2,12.357L7.177,7.182a1.173,1.173,0,0,0,.343-.829v0a1.173,1.173,0,0,0-.343-.829L2,.343A1.169,1.169,0,0,0,1.173,0Z" transform="translate(1715.597 1228.122)" fill="#11004a"/>
  </g>
</svg>
