<svg xmlns="http://www.w3.org/2000/svg" width="39.117" height="39.117" viewBox="0 0 39.117 39.117">
  <g id="Group_23816" data-name="Group 23816" transform="translate(-1645 -1214.5)">
    <path id="Path_58" data-name="Path 58" d="M38.117,19.058A19.058,19.058,0,1,0,19.058,38.117,19.059,19.059,0,0,0,38.117,19.058" transform="translate(1683.617 1253.116) rotate(180)" fill="none" stroke="#11004a" stroke-linejoin="round" stroke-width="1"/>
    <path id="Line_6" data-name="Line 6" d="M12.244,2.345H1.173A1.173,1.173,0,0,1,1.173,0H12.244a1.173,1.173,0,1,1,0,2.345Z" transform="translate(1670.417 1236.025) rotate(180)" fill="#11004a"/>
    <path id="Path_59" data-name="Path 59" d="M1.173,12.7a1.173,1.173,0,0,1-.829-2L4.692,6.35.343,2A1.173,1.173,0,0,1,2,.343L7.177,5.519a1.173,1.173,0,0,1,.343.829v0a1.173,1.173,0,0,1-.343.829L2,12.357A1.169,1.169,0,0,1,1.173,12.7Z" transform="translate(1664.521 1241.201) rotate(180)" fill="#11004a"/>
  </g>
</svg>
