<svg xmlns="http://www.w3.org/2000/svg" xmlns:xlink="http://www.w3.org/1999/xlink" width="15.298" height="15.298" viewBox="0 0 15.298 15.298">
  <defs>
    <clipPath id="clip-path">
      <path id="path237" d="M0-682.665H15.3v15.3H0Z" transform="translate(0 682.665)" fill="#11004a"/>
    </clipPath>
  </defs>
  <g id="g231" transform="translate(0 682.665)">
    <g id="g233" transform="translate(0 -682.665)">
      <g id="g235" clip-path="url(#clip-path)">
        <g id="g241" transform="translate(3.9 3.573)">
          <path id="path243" d="M-163.553-13.333A3.753,3.753,0,0,1-159.8-9.584c0,1.869-1.936,4.066-3.217,5.519l-.307.35a.3.3,0,0,1-.225.1.3.3,0,0,1-.225-.1l-.307-.35c-1.281-1.453-3.216-3.65-3.216-5.519A3.753,3.753,0,0,1-163.553-13.333Zm0,8.968.084-.1c1.221-1.386,3.067-3.48,3.067-5.124a3.155,3.155,0,0,0-3.151-3.151A3.155,3.155,0,0,0-166.7-9.584c0,1.643,1.846,3.738,3.067,5.124Z" transform="translate(167.302 13.333)" fill="#11004a"/>
        </g>
        <g id="g245" transform="translate(5.625 5.298)">
          <path id="path247" d="M-88.293-163.253a2.026,2.026,0,0,1-2.024-2.024,2.026,2.026,0,0,1,2.024-2.024,2.026,2.026,0,0,1,2.024,2.024A2.026,2.026,0,0,1-88.293-163.253Zm0-3.45a1.428,1.428,0,0,0-1.426,1.426,1.428,1.428,0,0,0,1.426,1.426,1.428,1.428,0,0,0,1.426-1.426A1.428,1.428,0,0,0-88.293-166.7Z" transform="translate(90.317 167.301)" fill="#11004a"/>
        </g>
        <g id="g249" transform="translate(9.08 2.004)">
          <path id="path251" d="M-77.473-280.008h0a.3.3,0,0,1-.225-.1l-.256-.292c-.3-.344-.647-.734-.99-1.16a.3.3,0,0,1,.045-.42.3.3,0,0,1,.42.045c.335.416.675.8.974,1.14l.033.038.033-.037c.951-1.079,2.544-2.886,2.544-4.237a2.579,2.579,0,0,0-2.576-2.576,2.565,2.565,0,0,0-2.459,1.807.3.3,0,0,1-.374.2.3.3,0,0,1-.2-.374,3.16,3.16,0,0,1,3.03-2.226,3.178,3.178,0,0,1,3.174,3.174c0,1.577-1.621,3.415-2.693,4.632l-.256.291A.3.3,0,0,1-77.473-280.008Z" transform="translate(80.517 288.207)" fill="#11004a"/>
        </g>
        <g id="g253" transform="translate(10.531 3.586)">
          <path id="path255" d="M-69.479-125.624a1.594,1.594,0,0,1-1.593-1.593,1.594,1.594,0,0,1,1.593-1.593,1.594,1.594,0,0,1,1.593,1.593A1.594,1.594,0,0,1-69.479-125.624Zm0-2.588a1,1,0,0,0-1,1,1,1,0,0,0,1,1,1,1,0,0,0,1-1A1,1,0,0,0-69.479-128.211Z" transform="translate(71.072 128.809)" fill="#11004a"/>
        </g>
        <g id="g257" transform="translate(0 2.004)">
          <path id="path259" d="M-193.768-280.008a.3.3,0,0,1-.225-.1l-.256-.291c-1.072-1.217-2.693-3.056-2.693-4.632a3.178,3.178,0,0,1,3.174-3.174,3.16,3.16,0,0,1,3.03,2.226.3.3,0,0,1-.2.374.3.3,0,0,1-.374-.2,2.565,2.565,0,0,0-2.459-1.807,2.579,2.579,0,0,0-2.576,2.576c0,1.351,1.592,3.158,2.544,4.237l.033.037.033-.038c.3-.339.638-.724.974-1.14a.3.3,0,0,1,.42-.045.3.3,0,0,1,.045.42c-.344.426-.687.816-.99,1.16l-.256.292A.3.3,0,0,1-193.768-280.008Z" transform="translate(196.942 288.207)" fill="#11004a"/>
        </g>
        <g id="g261" transform="translate(1.581 3.586)">
          <path id="path263" d="M-69.479-125.624a1.594,1.594,0,0,1-1.593-1.593,1.594,1.594,0,0,1,1.593-1.593,1.594,1.594,0,0,1,1.593,1.593A1.594,1.594,0,0,1-69.479-125.624Zm0-2.588a1,1,0,0,0-1,1,1,1,0,0,0,1,1,1,1,0,0,0,1-1A1,1,0,0,0-69.479-128.211Z" transform="translate(71.072 128.809)" fill="#11004a"/>
        </g>
      </g>
    </g>
  </g>
</svg>
