<svg xmlns="http://www.w3.org/2000/svg" width="15.235" height="15.462" viewBox="0 0 15.235 15.462">
  <g id="tour-guide" transform="translate(-3.75 0)">
    <path id="Path_130658" data-name="Path 130658" d="M15.675,13.565a.227.227,0,0,0-.32.021l-.934,1.068a.538.538,0,0,1-.785.027l-.72-.719v-.476a.226.226,0,1,0-.453,0v1.749a.226.226,0,0,0,.453,0V14.6l.4.4a.991.991,0,0,0,1.446-.049l.934-1.068a.226.226,0,0,0-.021-.32Zm-9.406-.306a.226.226,0,0,0-.226.226v1.749a.226.226,0,0,0,.453,0V13.486A.226.226,0,0,0,6.268,13.259ZM18.812,3.591,17.294,2.357a.347.347,0,0,0-.566.27V5.538h0V9.213l-2.281,2.6-.722-1.349a2.38,2.38,0,0,0-1.7-1.218l-1.242-.2a.384.384,0,0,1-.323-.38V8.4A2.831,2.831,0,0,0,10.95,8a2.8,2.8,0,0,0,.823-1.988v-.1h.087a.828.828,0,0,0,.554-1.444.731.731,0,0,0,.094-.651.719.719,0,0,0-.386-.421l-.072-.031V1.738A1.74,1.74,0,0,0,10.314,0h-2.7A1.74,1.74,0,0,0,5.874,1.738v1.63L5.8,3.4a.718.718,0,0,0-.293,1.072.828.828,0,0,0,.555,1.444h.087v.1A2.813,2.813,0,0,0,7.468,8.394V8.71a.377.377,0,0,1-.287.367L5.3,9.54a2.034,2.034,0,0,0-1.55,1.979v3.716a.226.226,0,1,0,.453,0V11.519A1.582,1.582,0,0,1,5.409,9.98l1.457-.359A2.471,2.471,0,0,0,11.1,9.555l.849.139a1.924,1.924,0,0,1,1.377.985l.731,1.365a.44.44,0,0,0,.719.082l1.551-1.769.985.986,0,0-1.263,1.445a.227.227,0,0,0,.341.3l2.082-2.381a1.165,1.165,0,0,0-.148-1.655,1.147,1.147,0,0,0-1.147-.169V5.646L18.812,4.32a.47.47,0,0,0,0-.729Zm-6.574,1.5a.38.38,0,0,1-.376.376h-.087V4.775a.721.721,0,0,0,.253-.027.379.379,0,0,1,.211.338Zm-6.086.376H6.064A.376.376,0,0,1,5.9,4.749a.725.725,0,0,0,.254.027v.687ZM6.207,4.3a.271.271,0,0,1-.348-.125.266.266,0,0,1,.126-.364,7.333,7.333,0,0,1,3.967-.564.226.226,0,1,0,.061-.449,7.786,7.786,0,0,0-3.687.388V1.738A1.286,1.286,0,0,1,7.611.453h2.7A1.286,1.286,0,0,1,11.6,1.738V3.189q-.26-.093-.525-.168a.226.226,0,0,0-.123.436,7.362,7.362,0,0,1,.989.357.267.267,0,0,1,.126.363.27.27,0,0,1-.348.126,7,7,0,0,0-5.51,0Zm.4,1.712V4.627a6.361,6.361,0,0,1,4.716,0V6.014a2.358,2.358,0,1,1-4.716,0Zm2.358,4.318A2.014,2.014,0,0,1,7.333,9.5a.848.848,0,0,0,.588-.878,2.816,2.816,0,0,0,2.083,0,.837.837,0,0,0,.613.844A2.005,2.005,0,0,1,8.963,10.332Zm9.082-.926a.7.7,0,0,1,.089,1l-.52.595-.988-.988.46-.525a.7.7,0,0,1,.958-.085Zm.482-5.437L17.18,5.062V2.849l1.346,1.093a.019.019,0,0,1,0,.026ZM10.21,5.842a.226.226,0,0,0,.226-.226v-.5a.226.226,0,1,0-.453,0v.5A.226.226,0,0,0,10.21,5.842ZM7.715,4.89a.226.226,0,0,0-.226.226v.5a.226.226,0,1,0,.453,0v-.5A.226.226,0,0,0,7.715,4.89ZM9.66,6.969a.227.227,0,0,0-.308-.09.809.809,0,0,1-.78,0,.227.227,0,1,0-.218.4,1.269,1.269,0,0,0,.595.156,1.3,1.3,0,0,0,.621-.156A.227.227,0,0,0,9.66,6.969Z" fill="#11004a"/>
  </g>
</svg>
