<svg xmlns="http://www.w3.org/2000/svg" width="21" height="21" viewBox="0 0 21 21">
  <path id="calendar-clock" d="M21,6.125V7H0V6.125A4.375,4.375,0,0,1,4.375,1.75H5.25V.875A.875.875,0,0,1,6.125,0h0A.875.875,0,0,1,7,.875V1.75h7V.875A.875.875,0,0,1,14.875,0h0a.875.875,0,0,1,.875.875V1.75h.875A4.375,4.375,0,0,1,21,6.125Zm0,8.75A6.125,6.125,0,1,1,14.875,8.75,6.132,6.132,0,0,1,21,14.875Zm-4.375.513-.875-.875V13.125a.875.875,0,0,0-.875-.875h0a.875.875,0,0,0-.875.875v1.75a.873.873,0,0,0,.256.619l1.131,1.131a.876.876,0,0,0,1.237,0h0a.876.876,0,0,0,0-1.237ZM7,14.875A7.857,7.857,0,0,1,9.93,8.75H0v7.875A4.375,4.375,0,0,0,4.375,21H9.93A7.857,7.857,0,0,1,7,14.875Z" fill="#11004a"/>
</svg>
