<svg xmlns="http://www.w3.org/2000/svg" xmlns:xlink="http://www.w3.org/1999/xlink" width="231.451" height="232.448" viewBox="0 0 231.451 232.448">
  <defs>
    <clipPath id="clip-path">
      <rect id="Rectangle_38607" data-name="Rectangle 38607" width="172.381" height="174.547" fill="#ebf4ff"/>
    </clipPath>
  </defs>
  <g id="Group_23686" data-name="Group 23686" transform="matrix(-0.899, -0.438, 0.438, -0.899, 154.935, 232.449)">
    <g id="Group_23685" data-name="Group 23685" transform="translate(0 0)" clip-path="url(#clip-path)">
      <path id="Path_130187" data-name="Path 130187" d="M81.058,33.681c-25.261,0-40.478,8.745-48.573,17.809-.974.974-1.623,1.3-2.267,1.3-2.917,0-2.917-6.478-2.917-9.394C27.3,19.757,48.351,0,87.536,0c49.872,0,84.846,33.032,84.846,88.412,0,49.867-34.33,86.14-86.789,86.14C35.4,174.552-2.17,142.489.1,92.3c.974-18.459,11.981-34.974,33.356-34.974,2.917,0,11.337.969,11.337,3.885a2.805,2.805,0,0,1-.974,1.943c-4.859,5.5-8.42,17.16-8.42,26.554,0,30.115,19.108,50.841,50.521,50.841,30.44,0,48.573-22.344,48.573-52.459,0-33.681-22.019-54.407-53.433-54.407" transform="translate(-0.001 -0.002)" fill="#ebf4ff"/>
    </g>
  </g>
</svg>
