<svg xmlns="http://www.w3.org/2000/svg" width="17.977" height="11.687" viewBox="0 0 17.977 11.687">
  <g id="buck_of_money" data-name="buck of money" transform="translate(-3.396 -13.405)">
    <path id="Path_129664" data-name="Path 129664" d="M20.948,18.234a.943.943,0,0,0,.028-1.549c-.031,0,.336.245-4.126-2.979a1.571,1.571,0,0,0-1.389-.229L4.067,17a.943.943,0,0,0-.245,1.691.943.943,0,0,0,0,1.571A.943.943,0,0,0,3.8,21.813c4.4,3.171,4.359,3.278,5.047,3.278.352,0-.387.2,11.86-3.595a.943.943,0,0,0,.245-1.691.943.943,0,0,0,0-1.571Zm-9.261.943-2.2.682a1.571,1.571,0,0,0-.786-.211c-.459,0,.047.283-1.977-1.178a.666.666,0,0,0,.053-.314L9.217,17.4ZM8.7,16.238l2.14-.663,5.006,3.617-2.065.628c-.1.057.421.371-5.081-3.592Zm4.167.025,2.42-.748a1.571,1.571,0,0,0,1.087.179l1.672,1.2a.628.628,0,0,0-.053.314l-2.659.826Zm3.922,4.214v-.914l3.457-1.068c.4.292.537.349.5.578S20.87,19.217,16.784,20.477Zm-1.138-6.4a.943.943,0,0,1,.823.141c4.434,3.2,4.3,3.01,4.252,3.287s.173.129-4.126,1.458l-.628-.459c2.775-.861,2.731-.779,2.775-1.043a.314.314,0,0,0-.129-.314.314.314,0,0,0,.22-.251c.041-.258.063-.17-2.219-1.813-.261-.189-.572.207-1.1-.182-.179-.129-.063-.113-3.29.886l-.628-.462ZM4.035,17.85c.044-.267-.041-.17,3.906-1.392l.628.462-2.338.723a.314.314,0,0,0-.088.553.314.314,0,0,0-.091.556c2.219,1.6,2.159,1.618,2.366,1.571.563-.176.782.195,1.012.195.069,0-.176.069,2.885-.88l.628.462L9.123,21.276a.943.943,0,0,1-.823-.141c-4.447-3.2-4.308-3-4.264-3.281Zm9.292,2.784v.911l-4.2,1.3a.943.943,0,0,1-.823-.141L4.164,19.733a.314.314,0,0,1,.088-.556c.242-.075-.22-.333,3.667,2.473C8.74,22.243,9.038,21.961,13.328,20.635Zm-4.2,3.771a.943.943,0,0,1-.823-.129L4.164,21.3a.314.314,0,0,1,.088-.556c.242-.075-.22-.333,3.667,2.473a1.634,1.634,0,0,0,.924.314c.314,0,.088.047,4.484-1.314v.911Zm4.855-3.972,2.178-.672v2.483l-2.2.679a15.207,15.207,0,0,1,.022-2.489Zm6.756.211c-.047.277.022.176-3.95,1.4v-.914l3.457-1.068C20.637,20.358,20.772,20.415,20.734,20.644Z" fill="#11004a"/>
  </g>
</svg>
