<svg xmlns="http://www.w3.org/2000/svg" width="12.43" height="12.429" viewBox="0 0 12.43 12.429">
  <g id="close_2_" data-name="close (2)" transform="translate(0 -0.359)">
    <path id="Path_131915" data-name="Path 131915" d="M12.111,10.419,2.37.678a1.087,1.087,0,0,0-1.538,0l-.513.513a1.087,1.087,0,0,0,0,1.538L10.06,12.47a1.087,1.087,0,0,0,1.538,0l.513-.513A1.086,1.086,0,0,0,12.111,10.419Zm0,0" fill="#fe2e2f"/>
    <path id="Path_131916" data-name="Path 131916" d="M10.06.681.319,10.422a1.087,1.087,0,0,0,0,1.538l.513.513a1.087,1.087,0,0,0,1.538,0l9.742-9.74a1.087,1.087,0,0,0,0-1.538L11.6.682A1.087,1.087,0,0,0,10.06.681Zm0,0" transform="translate(0 -0.003)" fill="#fe2e2f"/>
  </g>
</svg>
