<svg xmlns="http://www.w3.org/2000/svg" width="20.449" height="20.449" viewBox="0 0 20.449 20.449">
  <path id="delete_2_" data-name="delete (2)" d="M10.225,0A10.225,10.225,0,1,0,20.449,10.225,10.236,10.236,0,0,0,10.225,0ZM8.231,4.566a.332.332,0,0,1,.332-.332h3.323a.333.333,0,0,1,.332.333v.822H8.231ZM13.695,15.74a.509.509,0,0,1-.512.476H7.228a.514.514,0,0,1-.512-.478L6.207,8.284h8.031l-.544,7.456Zm1.324-8.131H5.431V6.836A.773.773,0,0,1,6.2,6.064h8.042a.773.773,0,0,1,.772.773v.772Zm-6.337,6.83V9.705a.337.337,0,0,1,.675,0v4.733a.338.338,0,1,1-.675,0Zm2.408,0V9.705a.338.338,0,1,1,.675,0v4.733a.338.338,0,1,1-.675,0Z" fill="#fc0005" fill-rule="evenodd"/>
</svg>
