<svg id="error_1_" data-name="error (1)" xmlns="http://www.w3.org/2000/svg" width="19" height="19" viewBox="0 0 19 19">
  <g id="Group_23813" data-name="Group 23813">
    <g id="Group_23812" data-name="Group 23812">
      <path id="Path_130656" data-name="Path 130656" d="M9.5,0A9.5,9.5,0,1,0,19,9.5,9.495,9.495,0,0,0,9.5,0Zm0,17.516A8.016,8.016,0,1,1,17.516,9.5,8.011,8.011,0,0,1,9.5,17.516Z" fill="#f87f7f"/>
    </g>
  </g>
  <g id="Group_23815" data-name="Group 23815" transform="translate(5.957 5.957)">
    <g id="Group_23814" data-name="Group 23814">
      <path id="Path_130657" data-name="Path 130657" d="M169.42,168.348l-2.249-2.249,2.249-2.249a.758.758,0,1,0-1.072-1.072l-2.249,2.249-2.249-2.249a.758.758,0,1,0-1.072,1.072l2.249,2.249-2.249,2.249a.758.758,0,1,0,1.072,1.072l2.249-2.249,2.249,2.249a.758.758,0,1,0,1.072-1.072Z" transform="translate(-162.555 -162.556)" fill="#f87f7f"/>
    </g>
  </g>
</svg>
