<svg xmlns="http://www.w3.org/2000/svg" width="30.827" height="30.827" viewBox="0 0 30.827 30.827">
  <g id="Group_24009" data-name="Group 24009" transform="translate(-1170.407 -4147.025)">
    <path id="Path_130200" data-name="Path 130200" d="M30.827,15.414A15.413,15.413,0,1,1,15.413,0,15.416,15.416,0,0,1,30.827,15.414" transform="translate(1170.407 4147.024)" fill="#fff"/>
    <path id="Path_130201" data-name="Path 130201" d="M123.709,93.128v2.851h4.284l-.708,4.393h-3.576v10.7a16.069,16.069,0,0,1-4.749-.153V100.372h-3.893V95.979h3.893V92.631c0-3.809,2.269-5.913,5.74-5.913a23.368,23.368,0,0,1,3.4.3v3.74h-1.916a2.2,2.2,0,0,0-2.477,2.373" transform="translate(1063.792 4066.675)" fill="#11004a"/>
  </g>
</svg>
