<svg xmlns="http://www.w3.org/2000/svg" width="24.32" height="21.82" viewBox="0 0 24.32 21.82">
  <path id="Path" d="M22.391,2.135A6.514,6.514,0,0,0,17.526,0,6.086,6.086,0,0,0,13.7,1.33,7.856,7.856,0,0,0,12.16,2.957,7.851,7.851,0,0,0,10.615,1.33,6.085,6.085,0,0,0,6.794,0,6.515,6.515,0,0,0,1.929,2.135,7.7,7.7,0,0,0,0,7.371a9.171,9.171,0,0,0,2.412,5.975A51.614,51.614,0,0,0,8.45,19.061c.837.719,1.785,1.534,2.77,2.4a1.419,1.419,0,0,0,1.88,0c.985-.868,1.934-1.684,2.771-2.4a51.59,51.59,0,0,0,6.038-5.715A9.17,9.17,0,0,0,24.32,7.371,7.7,7.7,0,0,0,22.391,2.135Z" fill="#fe2e2f"/>
</svg>
