<svg id="heart" xmlns="http://www.w3.org/2000/svg" width="42.85" height="42.85" viewBox="0 0 42.85 42.85">
  <circle id="Oval" cx="21.425" cy="21.425" r="21.425" fill="#fff"/>
  <path id="Path" d="M22.191,2.144A6.418,6.418,0,0,0,17.37,0a5.982,5.982,0,0,0-3.787,1.336,7.845,7.845,0,0,0-1.531,1.634A7.841,7.841,0,0,0,10.52,1.336,5.981,5.981,0,0,0,6.733,0,6.418,6.418,0,0,0,1.912,2.144,7.8,7.8,0,0,0,0,7.4a9.276,9.276,0,0,0,2.391,6,51.447,51.447,0,0,0,5.984,5.739c.829.722,1.769,1.541,2.745,2.412a1.392,1.392,0,0,0,1.863,0c.976-.872,1.916-1.691,2.746-2.413A51.423,51.423,0,0,0,21.713,13.4a9.275,9.275,0,0,0,2.39-6A7.8,7.8,0,0,0,22.191,2.144Z" transform="translate(9.373 12.051)" fill="none" stroke="#11004a" stroke-width="1"/>
</svg>
