<svg xmlns="http://www.w3.org/2000/svg" width="18" height="18.227" viewBox="0 0 18 18.227">
  <g id="Group_24008" data-name="Group 24008" transform="translate(-1022 -418)">
    <path id="Path_131903" data-name="Path 131903" d="M27.145,12.074a6.536,6.536,0,0,0-5.072,1.86c-.1.1-.17.136-.237.136-.3,0-.3-.676-.3-.981,0-2.468,2.2-4.531,6.29-4.531,5.208,0,8.86,3.449,8.86,9.232a8.609,8.609,0,0,1-9.062,8.995c-5.242,0-9.164-3.348-8.927-8.589.1-1.927,1.251-3.651,3.483-3.651.3,0,1.184.1,1.184.405a.293.293,0,0,1-.1.2,4.748,4.748,0,0,0-.879,2.773,4.961,4.961,0,0,0,5.275,5.309c3.178,0,5.072-2.333,5.072-5.478a5.3,5.3,0,0,0-5.579-5.681" transform="translate(1003.318 409.443)" fill="#252668"/>
  </g>
</svg>
