<svg xmlns="http://www.w3.org/2000/svg" width="30.827" height="30.827" viewBox="0 0 30.827 30.827">
  <g id="Group_24009" data-name="Group 24009" transform="translate(-1149 -4163.104)">
    <path id="Path_130719" data-name="Path 130719" d="M581.5,15.413A15.413,15.413,0,1,1,566.087,0,15.413,15.413,0,0,1,581.5,15.413" transform="translate(598.326 4163.104)" fill="#fff"/>
    <g id="Group_23853" data-name="Group 23853" transform="translate(-476.053 74.421)">
      <path id="Path_130550" data-name="Path 130550" d="M1362.258,135.259a.992.992,0,1,1-.992-.992.993.993,0,0,1,.992.992" transform="translate(284.032 3964.514)" fill="#11004a"/>
      <path id="Path_130551" data-name="Path 130551" d="M1258.6,152.032a4.248,4.248,0,1,0,4.248,4.248,4.253,4.253,0,0,0-4.248-4.248m0,7.011a2.763,2.763,0,1,1,2.763-2.763,2.766,2.766,0,0,1-2.763,2.763" transform="translate(382.178 3948.054)" fill="#11004a"/>
      <path id="Path_130552" data-name="Path 130552" d="M1205.54,92.077h-6.928a5.193,5.193,0,0,0-5.187,5.187v6.928a5.193,5.193,0,0,0,5.187,5.187h6.928a5.193,5.193,0,0,0,5.187-5.187V97.264a5.193,5.193,0,0,0-5.187-5.187m3.606,12.115a3.609,3.609,0,0,1-3.606,3.605h-6.928a3.609,3.609,0,0,1-3.605-3.605V97.264a3.609,3.609,0,0,1,3.605-3.605h6.928a3.609,3.609,0,0,1,3.606,3.605Z" transform="translate(438.628 4003.606)" fill="#11004a"/>
    </g>
  </g>
</svg>
