<svg xmlns="http://www.w3.org/2000/svg" width="30.827" height="30.827" viewBox="0 0 30.827 30.827">
  <g id="Group_24009" data-name="Group 24009" transform="translate(-1192.732 -4146.025)">
    <path id="Path_130197" data-name="Path 130197" d="M1682.849,15.413A15.413,15.413,0,1,1,1667.436,0a15.413,15.413,0,0,1,15.413,15.413" transform="translate(-459.291 4146.025)" fill="#fff"/>
    <path id="Path_130198" data-name="Path 130198" d="M1842.57,178.212v5.26h-2.979V178.81c0-1.113-.022-2.543-1.549-2.543-1.552,0-1.788,1.211-1.788,2.462v4.743h-2.979v-9.59h2.859v1.287a.025.025,0,0,0,.025.025.024.024,0,0,0,.021-.013,3.137,3.137,0,0,1,2.816-1.536c3.018,0,3.574,1.985,3.574,4.567" transform="translate(-627.231 3985.132)" fill="#11004a"/>
    <rect id="Rectangle_38639" data-name="Rectangle 38639" width="3.03" height="9.635" transform="translate(1201.165 4158.992)" fill="#11004a"/>
    <path id="Path_130199" data-name="Path 130199" d="M1767.143,113.437a1.751,1.751,0,1,1-1.751-1.751,1.752,1.752,0,0,1,1.751,1.751" transform="translate(-562.712 4042.541)" fill="#11004a"/>
  </g>
</svg>
