<svg xmlns="http://www.w3.org/2000/svg" width="17.901" height="21.992" viewBox="0 0 17.901 21.992">
  <g id="Icon" transform="translate(-3.25 -1.25)">
    <path id="Path_130645" data-name="Path 130645" d="M12.154,1.25a6.944,6.944,0,0,0-6.9,6.977,10.712,10.712,0,0,0,1.412,4.54,44.427,44.427,0,0,0,4.911,7.139.766.766,0,0,0,1.164,0,44.427,44.427,0,0,0,4.911-7.139,10.712,10.712,0,0,0,1.412-4.54,6.944,6.944,0,0,0-6.9-6.977Zm0,1.534a5.41,5.41,0,0,1,5.37,5.443c0,1.5-.951,3.453-2.05,5.275a44.994,44.994,0,0,1-3.32,4.7,44.994,44.994,0,0,1-3.32-4.7c-1.1-1.822-2.05-3.775-2.05-5.275a5.41,5.41,0,0,1,5.37-5.443Z" transform="translate(0.046)" fill="#11004a" fill-rule="evenodd"/>
    <path id="Path_130646" data-name="Path 130646" d="M12.063,5.25a2.813,2.813,0,1,0,2.813,2.813A2.814,2.814,0,0,0,12.063,5.25Zm0,1.534a1.279,1.279,0,1,1-1.279,1.279A1.279,1.279,0,0,1,12.063,6.784Z" transform="translate(0.137 0.092)" fill="#11004a" fill-rule="evenodd"/>
    <path id="Path_130647" data-name="Path 130647" d="M17.094,17.411a6.343,6.343,0,0,1,1.991.921c.307.233.532.461.532.74a.723.723,0,0,1-.224.46,3.206,3.206,0,0,1-.938.669A14.614,14.614,0,0,1,12.2,21.372,14.614,14.614,0,0,1,5.946,20.2a3.207,3.207,0,0,1-.938-.669.723.723,0,0,1-.224-.46c0-.278.225-.506.532-.74a6.343,6.343,0,0,1,1.991-.921.767.767,0,0,0-.442-1.47,7.034,7.034,0,0,0-2.842,1.482,2.3,2.3,0,0,0-.773,1.648A2.569,2.569,0,0,0,4.482,21.1c1.448,1.047,4.358,1.8,7.719,1.8s6.27-.757,7.719-1.8a2.569,2.569,0,0,0,1.232-2.031,2.3,2.3,0,0,0-.773-1.648,7.034,7.034,0,0,0-2.842-1.482.767.767,0,0,0-.442,1.47Z" transform="translate(0 0.335)" fill="#11004a" fill-rule="evenodd"/>
  </g>
</svg>
