<svg xmlns="http://www.w3.org/2000/svg" width="32.75" height="25.426" viewBox="0 0 32.75 25.426">
  <g id="money_2_" data-name="money (2)" transform="translate(-1.25 -8.35)">
    <g id="Group_23990" data-name="Group 23990" transform="translate(18.992 22.12)">
      <path id="Ellipse_54" data-name="Ellipse 54" d="M3.918-.75A9.357,9.357,0,0,1,7.08-.257C8.324.207,8.585.811,8.585,1.236S8.324,2.264,7.08,2.729a9.357,9.357,0,0,1-3.162.493A9.357,9.357,0,0,1,.755,2.729C-.489,2.264-.75,1.66-.75,1.236S-.489.207.755-.257A9.357,9.357,0,0,1,3.918-.75Zm0,3.2A8.577,8.577,0,0,0,6.809,2c.74-.276,1-.587,1-.768s-.263-.492-1-.768A8.577,8.577,0,0,0,3.918.024,8.577,8.577,0,0,0,1.026.467c-.74.276-1,.587-1,.768s.263.492,1,.768A8.577,8.577,0,0,0,3.918,2.448Z" transform="translate(0.75 0.75)" fill="#000a7a"/>
      <path id="Path_131917" data-name="Path 131917" d="M36.037,38.15a.387.387,0,0,1,.387.387c0,.18.262.489,1,.766a9.614,9.614,0,0,0,5.788,0c.461-.173,1-.477,1-.766a.387.387,0,1,1,.774,0v7.685c0,.6-.533,1.127-1.5,1.49a10.366,10.366,0,0,1-6.332,0c-.968-.363-1.5-.892-1.5-1.49V38.537A.387.387,0,0,1,36.037,38.15Zm4.281,2.372a9.334,9.334,0,0,1-3.166-.5,3.926,3.926,0,0,1-.728-.354v6.548c0,.18.262.489,1,.766a9.614,9.614,0,0,0,5.788,0c.461-.173,1-.477,1-.766V39.673a3.926,3.926,0,0,1-.728.354A9.334,9.334,0,0,1,40.318,40.522Z" transform="translate(-35.65 -36.551)" fill="#000a7a"/>
      <path id="Path_131918" data-name="Path 131918" d="M54.029,40.05a9.334,9.334,0,0,1,3.166.5c.968.363,1.5.892,1.5,1.49s-.533,1.127-1.5,1.49a9.334,9.334,0,0,1-3.166.5,11.337,11.337,0,0,1-1.44-.106.387.387,0,0,1-.339-.384V40.54a.387.387,0,0,1,.344-.384A13.009,13.009,0,0,1,54.029,40.05Zm0,3.2a8.554,8.554,0,0,0,2.894-.446c.461-.173,1-.477,1-.766,0-.18-.262-.489-1-.766a8.554,8.554,0,0,0-2.894-.446,9.667,9.667,0,0,0-1.006.063v2.3A9.263,9.263,0,0,0,54.029,43.248Z" transform="translate(-43.689 -37.471)" fill="#000a7a"/>
      <path id="Path_131919" data-name="Path 131919" d="M56.954,43.15a.387.387,0,0,1,.387.387v5.106c0,.6-.533,1.127-1.5,1.49a9.334,9.334,0,0,1-3.166.5,9.517,9.517,0,0,1-2.959-.432.387.387,0,0,1-.006-.732c.819-.289,1.186-.621,1.186-.821v-3.61a.387.387,0,0,1,.43-.384,12.241,12.241,0,0,0,1.35.1,8.554,8.554,0,0,0,2.894-.446c.461-.173,1-.477,1-.766A.387.387,0,0,1,56.954,43.15Zm-4.281,6.7a8.554,8.554,0,0,0,2.894-.446c.461-.173,1-.477,1-.766v-3.97a3.927,3.927,0,0,1-.728.354,9.334,9.334,0,0,1-3.166.5,10.054,10.054,0,0,1-1.006-.059v3.18a1.34,1.34,0,0,1-.7,1.07A9.887,9.887,0,0,0,52.673,49.855Z" transform="translate(-42.333 -38.972)" fill="#000a7a"/>
      <path id="Path_131920" data-name="Path 131920" d="M40.318,45.522a9.334,9.334,0,0,1-3.166-.5c-.968-.363-1.5-.892-1.5-1.49a.387.387,0,1,1,.774,0c0,.18.262.489,1,.766a9.614,9.614,0,0,0,5.788,0c.461-.173,1-.477,1-.766a.387.387,0,1,1,.774,0c0,.6-.533,1.127-1.5,1.49A9.334,9.334,0,0,1,40.318,45.522Z" transform="translate(-35.65 -38.972)" fill="#000a7a"/>
      <path id="Path_131921" data-name="Path 131921" d="M40.318,50.522a9.334,9.334,0,0,1-3.166-.5c-.968-.363-1.5-.892-1.5-1.49a.387.387,0,1,1,.774,0c0,.18.262.489,1,.766a9.614,9.614,0,0,0,5.788,0c.461-.173,1-.477,1-.766a.387.387,0,1,1,.774,0c0,.6-.533,1.127-1.5,1.49A9.334,9.334,0,0,1,40.318,50.522Z" transform="translate(-35.65 -41.394)" fill="#000a7a"/>
      <path id="Path_131922" data-name="Path 131922" d="M54.078,50.522c-.243,0-.472-.013-.693-.026s-.427-.025-.648-.025a.387.387,0,0,1,0-.774c.243,0,.472.013.693.026s.427.025.648.025a8.554,8.554,0,0,0,2.894-.446c.461-.173,1-.477,1-.766a.387.387,0,1,1,.774,0c0,.6-.533,1.127-1.5,1.49A9.334,9.334,0,0,1,54.078,50.522Z" transform="translate(-43.737 -41.394)" fill="#000a7a"/>
    </g>
    <path id="Path_131923" data-name="Path 131923" d="M40.318,35.05a9.334,9.334,0,0,1,3.166.5c.968.363,1.5.892,1.5,1.49v.652a10.055,10.055,0,0,1,1.006-.059,9.334,9.334,0,0,1,3.166.5c.968.363,1.5.892,1.5,1.49V44.72c0,.6-.533,1.127-1.5,1.49a9.334,9.334,0,0,1-3.166.5,9.663,9.663,0,0,1-2.837-.393,9.663,9.663,0,0,1-2.837.393,9.334,9.334,0,0,1-3.166-.5c-.968-.363-1.5-.892-1.5-1.49V37.036c0-.6.533-1.127,1.5-1.49A9.334,9.334,0,0,1,40.318,35.05Zm3.894,1.986c0-.18-.262-.489-1-.766a9.614,9.614,0,0,0-5.788,0c-.461.173-1,.477-1,.766V44.72c0,.18.262.489,1,.766a8.554,8.554,0,0,0,2.894.446,8.741,8.741,0,0,0,2.714-.393.387.387,0,0,1,.245,0,8.741,8.741,0,0,0,2.714.393,8.554,8.554,0,0,0,2.894-.446c.461-.173,1-.477,1-.766V39.614c0-.18-.262-.489-1-.766a8.554,8.554,0,0,0-2.894-.446,12.241,12.241,0,0,0-1.35.1.387.387,0,0,1-.43-.384v-.151a.387.387,0,0,1-.181-.6c.139-.186.18-.261.181-.334Z" transform="translate(-16.658 -12.93)" fill="#000a7a"/>
    <path id="Path_131924" data-name="Path 131924" d="M54.078,50.522c-.243,0-.472-.013-.693-.026s-.427-.025-.648-.025a.387.387,0,0,1,0-.774c.243,0,.472.013.693.026s.427.025.648.025a8.554,8.554,0,0,0,2.894-.446c.461-.173,1-.477,1-.766a.387.387,0,1,1,.774,0c0,.6-.533,1.127-1.5,1.49A9.334,9.334,0,0,1,54.078,50.522Z" transform="translate(-24.745 -19.273)" fill="#000a7a"/>
    <path id="Path_131925" data-name="Path 131925" d="M10.1,20.55a.387.387,0,0,1,.189.049l1.754.98,0,0,7.063,4.073,1.751.979a.387.387,0,0,1,.006.672L12.61,32.1l-.021.012-.206.1a.387.387,0,0,1-.249.033l-.258-.052a.387.387,0,0,1-.118-.045L1.7,26.326l-.005,0-.258-.155a.387.387,0,0,1,.005-.666L9.9,20.6A.387.387,0,0,1,10.1,20.55Zm1.563,1.7L10.1,21.382,2.4,25.839l9.687,5.613.065.013.077-.038,7.655-4.449-1.161-.649,0,0Z" transform="translate(0 -5.908)" fill="#000a7a"/>
    <path id="Path_131926" data-name="Path 131926" d="M36.058,19.284a.387.387,0,0,1-.2-.056l-1.7-1.029L27.1,14.128l-1.751-.979a.387.387,0,0,1,0-.673l2.782-1.6,3.968-2.371.025-.014.206-.1a.387.387,0,0,1,.405.037l.188.141,10,5.8.272.091a.387.387,0,0,1,.072.7l-7.014,4.074A.387.387,0,0,1,36.058,19.284Zm-9.736-6.477,1.157.647,0,0,7.066,4.074.007,0,1.506.913,6.174-3.586L32.512,9.226a.387.387,0,0,1-.038-.025l-.014-.01-3.94,2.354-.006,0Z" transform="translate(-11.574)" fill="#000a7a"/>
    <path id="Path_131927" data-name="Path 131927" d="M16.835,31.008a.387.387,0,0,1-.173-.041.706.706,0,0,0-.634,0,.387.387,0,0,1-.367-.011l-5.519-3.2a.387.387,0,0,1,.006-.673.293.293,0,0,0,0-.51.387.387,0,0,1-.005-.673l5.725-3.3a.387.387,0,0,1,.385,0l7.066,4.023a.387.387,0,0,1,0,.67L17.03,30.956A.387.387,0,0,1,16.835,31.008Zm-5.886-3.677,4.936,2.86a1.492,1.492,0,0,1,.919,0l5.548-3.229-6.289-3.581L10.95,26.331a1.086,1.086,0,0,1,0,1Z" transform="translate(-4.213 -6.876)" fill="#000a7a"/>
    <path id="Path_131928" data-name="Path 131928" d="M36,20.383a.387.387,0,0,1-.193-.052l-7.066-4.074a.387.387,0,0,1,0-.67l4.8-2.785a.387.387,0,0,1,.367-.011.706.706,0,0,0,.634,0,.387.387,0,0,1,.367.012l5.415,3.146a.387.387,0,0,1,.02.656.413.413,0,0,0-.176.359.318.318,0,0,0,.149.27.387.387,0,0,1,.008.672L36.2,20.33A.387.387,0,0,1,36,20.383Zm-6.293-4.462L36,19.549l3.521-2.069A1.14,1.14,0,0,1,39.395,17a1.2,1.2,0,0,1,.139-.611l-4.851-2.818a1.492,1.492,0,0,1-.918,0Z" transform="translate(-13.22 -2.131)" fill="#000a7a"/>
    <path id="Path_131929" data-name="Path 131929" d="M28.61,25.327a.387.387,0,0,1-.2-.053l-1.752-1.031L19.6,20.171l-1.751-.979a.387.387,0,0,1,0-.673L21.713,16.3a.387.387,0,0,1,.385,0l1.7.98,7.116,4.074.008,0,1.7,1.031a.387.387,0,0,1,0,.664L29.992,24.6l-.006,0-1.186.67A.387.387,0,0,1,28.61,25.327ZM18.822,18.85l1.157.647,0,0,7.066,4.074,0,0,1.561.918.989-.559,2.069-1.217-1.144-.693-7.113-4.072-1.51-.87Z" transform="translate(-7.942 -3.826)" fill="#000a7a"/>
    <path id="Path_131930" data-name="Path 131930" d="M38.462,19.624a2.572,2.572,0,0,1-1.21-.279,1.006,1.006,0,0,1-.007-1.862,2.349,2.349,0,0,1,1.179-.283,2.572,2.572,0,0,1,1.21.279,1.067,1.067,0,0,1,.627.884,1.127,1.127,0,0,1-.6.968l-.009.005A2.342,2.342,0,0,1,38.462,19.624Zm-.039-1.65a1.6,1.6,0,0,0-.787.177l-.014.008c-.138.075-.224.172-.224.254s.086.178.224.254a1.819,1.819,0,0,0,.84.185,1.6,1.6,0,0,0,.783-.174c.182-.117.244-.227.242-.286s-.09-.158-.224-.231A1.819,1.819,0,0,0,38.424,17.974Z" transform="translate(-17.13 -4.286)" fill="#000a7a"/>
    <path id="Path_131931" data-name="Path 131931" d="M19.862,30.824a2.572,2.572,0,0,1-1.21-.279,1.006,1.006,0,0,1-.007-1.862,2.349,2.349,0,0,1,1.179-.283,2.572,2.572,0,0,1,1.21.279,1.062,1.062,0,0,1,.608.9,1.119,1.119,0,0,1-.594.959A2.342,2.342,0,0,1,19.862,30.824Zm-.039-1.65a1.6,1.6,0,0,0-.787.177l-.014.008c-.138.075-.224.172-.224.254s.086.178.224.254a1.819,1.819,0,0,0,.84.185,1.6,1.6,0,0,0,.787-.177.38.38,0,0,0,.219-.28c0-.079-.076-.165-.2-.235A1.819,1.819,0,0,0,19.824,29.174Z" transform="translate(-8.123 -9.709)" fill="#000a7a"/>
    <path id="Path_131932" data-name="Path 131932" d="M12.158,39.437a.386.386,0,0,1-.194-.052L1.443,33.3a.387.387,0,0,1-.193-.335V30.437a.387.387,0,0,1,.774,0v2.3L12.157,38.6l5.376-3.136a.387.387,0,0,1,.39.668l-5.57,3.249A.387.387,0,0,1,12.158,39.437Z" transform="translate(0 -10.508)" fill="#000a7a"/>
    <path id="Path_131933" data-name="Path 131933" d="M47.437,27.061a.387.387,0,0,1-.194-.722l6.047-3.5v-2.3a.387.387,0,1,1,.774,0v2.527a.387.387,0,0,1-.193.335l-6.241,3.61A.385.385,0,0,1,47.437,27.061Z" transform="translate(-22.179 -5.714)" fill="#000a7a"/>
    <path id="Path_131934" data-name="Path 131934" d="M12.158,44.185a.387.387,0,0,1-.194-.052L1.443,38.047a.387.387,0,0,1-.193-.335V35.237a.387.387,0,0,1,.774,0v2.252l10.135,5.862,5.428-3.137a.387.387,0,1,1,.387.67l-5.622,3.249A.387.387,0,0,1,12.158,44.185Z" transform="translate(0 -12.833)" fill="#000a7a"/>
    <path id="Path_131935" data-name="Path 131935" d="M52.737,30.162a.387.387,0,0,1-.193-.722l3.313-1.9v-2.3a.387.387,0,0,1,.774,0v2.527a.387.387,0,0,1-.194.336l-3.507,2.011A.385.385,0,0,1,52.737,30.162Z" transform="translate(-24.745 -7.99)" fill="#000a7a"/>
    <path id="Path_131936" data-name="Path 131936" d="M12.158,48.885a.386.386,0,0,1-.194-.052L1.443,42.747a.387.387,0,0,1-.193-.335V39.937a.387.387,0,0,1,.774,0v2.252l10.135,5.863,5.48-3.139a.387.387,0,1,1,.384.671L12.35,48.834A.387.387,0,0,1,12.158,48.885Z" transform="translate(0 -15.109)" fill="#000a7a"/>
    <path id="Path_131937" data-name="Path 131937" d="M55.437,34.089a.387.387,0,0,1-.2-.721l1.923-1.126V29.937a.387.387,0,1,1,.774,0v2.527a.387.387,0,0,1-.191.334l-2.115,1.238A.385.385,0,0,1,55.437,34.089Z" transform="translate(-26.053 -10.266)" fill="#000a7a"/>
    <path id="Path_131938" data-name="Path 131938" d="M38.537,31.3a.387.387,0,0,1-.387-.387v-.258a.387.387,0,0,1,.192-.334L42.159,28.1a.387.387,0,0,1,.581.334v2.115a.387.387,0,1,1-.774,0V29.109l-3.043,1.768v.035A.387.387,0,0,1,38.537,31.3Z" transform="translate(-17.869 -9.54)" fill="#000a7a"/>
  </g>
</svg>
