<svg xmlns="http://www.w3.org/2000/svg" width="21.274" height="21.274" viewBox="0 0 21.274 21.274">
  <g id="online-marketing" transform="translate(-6 -6)">
    <path id="Path_130627" data-name="Path 130627" d="M27.84,20.963a5.3,5.3,0,0,1-3.76-1.555,5.393,5.393,0,0,1-1.039-1.465.408.408,0,1,1,.736-.352,4.507,4.507,0,0,0,7.245,1.24l4.05-4.05a4.5,4.5,0,0,0-6.366-6.366l-4.05,4.05a4.488,4.488,0,0,0-.88,1.244.408.408,0,1,1-.736-.352,5.351,5.351,0,0,1,1.039-1.469l4.05-4.05a5.317,5.317,0,1,1,7.52,7.52l-4.05,4.05A5.3,5.3,0,0,1,27.84,20.963Z" transform="translate(-10.045 -0.165)" fill="#11004a"/>
    <path id="Path_130628" data-name="Path 130628" d="M31.313,28.932A3.252,3.252,0,0,1,29,27.974a.408.408,0,0,1,.577-.577,2.45,2.45,0,0,0,3.469,0l4.05-4.05a.408.408,0,0,1,.577.577l-4.05,4.05a3.252,3.252,0,0,1-2.316.957Z" transform="translate(-13.518 -10.179)" fill="#11004a"/>
    <path id="Path_130629" data-name="Path 130629" d="M33.458,15.277a.419.419,0,0,1-.29-.119.407.407,0,0,1,0-.577l2.344-2.344a3.274,3.274,0,0,1,4.627,0,.408.408,0,0,1-.577.577,2.449,2.449,0,0,0-3.469,0l-2.344,2.344A.4.4,0,0,1,33.458,15.277Z" transform="translate(-15.982 -3.12)" fill="#11004a"/>
    <path id="Path_130630" data-name="Path 130630" d="M11.589,36.522a5.317,5.317,0,0,1-3.76-9.078l4.05-4.05a5.321,5.321,0,0,1,7.52,0,5.393,5.393,0,0,1,1.039,1.465.408.408,0,0,1-.736.352,4.507,4.507,0,0,0-7.245-1.24l-4.05,4.05a4.5,4.5,0,0,0,6.366,6.366l4.05-4.05a4.53,4.53,0,0,0,.88-1.24.408.408,0,1,1,.736.352A5.246,5.246,0,0,1,19.4,30.913l-4.05,4.05A5.28,5.28,0,0,1,11.589,36.522Z" transform="translate(-0.16 -9.358)" fill="#11004a"/>
    <path id="Path_130631" data-name="Path 130631" d="M13.728,32.543a.419.419,0,0,1-.29-.119.407.407,0,0,1,0-.577l4.05-4.05a3.279,3.279,0,0,1,4.631,0,.408.408,0,0,1-.577.577,2.45,2.45,0,0,0-3.469,0l-4.05,4.05a.4.4,0,0,1-.29.119Z" transform="translate(-4.324 -12.314)" fill="#11004a"/>
    <path id="Path_130632" data-name="Path 130632" d="M15.753,46.946a3.265,3.265,0,0,1-2.316-.957.408.408,0,1,1,.577-.577,2.449,2.449,0,0,0,3.469,0l2.344-2.344a.408.408,0,0,1,.577.577L18.06,45.988a3.265,3.265,0,0,1-2.316.957Z" transform="translate(-4.324 -21.832)" fill="#11004a"/>
    <path id="Path_130633" data-name="Path 130633" d="M13.044,13.459a.419.419,0,0,1-.29-.119L11.117,11.7a.408.408,0,0,1,.577-.577l1.636,1.636a.407.407,0,0,1,0,.577.4.4,0,0,1-.29.119Z" transform="translate(-2.953 -2.959)" fill="#11004a"/>
    <path id="Path_130634" data-name="Path 130634" d="M8.864,22.818H6.409a.409.409,0,1,1,0-.818H8.864a.409.409,0,1,1,0,.818Z" transform="translate(0 -9.454)" fill="#11004a"/>
    <path id="Path_130635" data-name="Path 130635" d="M22.409,9.273A.41.41,0,0,1,22,8.864V6.409a.409.409,0,1,1,.818,0V8.864A.41.41,0,0,1,22.409,9.273Z" transform="translate(-9.454 0)" fill="#11004a"/>
    <path id="Path_130636" data-name="Path 130636" d="M13.044,13.459a.419.419,0,0,1-.29-.119L11.117,11.7a.408.408,0,0,1,.577-.577l1.636,1.636a.407.407,0,0,1,0,.577.4.4,0,0,1-.29.119Z" transform="translate(-2.953 -2.959)" fill="#11004a"/>
    <path id="Path_130637" data-name="Path 130637" d="M8.864,22.818H6.409a.409.409,0,1,1,0-.818H8.864a.409.409,0,1,1,0,.818Z" transform="translate(0 -9.454)" fill="#11004a"/>
    <path id="Path_130638" data-name="Path 130638" d="M22.409,9.273A.41.41,0,0,1,22,8.864V6.409a.409.409,0,1,1,.818,0V8.864A.41.41,0,0,1,22.409,9.273Z" transform="translate(-9.454 0)" fill="#11004a"/>
    <path id="Path_130639" data-name="Path 130639" d="M13.044,13.459a.419.419,0,0,1-.29-.119L11.117,11.7a.408.408,0,0,1,.577-.577l1.636,1.636a.407.407,0,0,1,0,.577.4.4,0,0,1-.29.119Z" transform="translate(-2.953 -2.959)" fill="#11004a"/>
    <path id="Path_130640" data-name="Path 130640" d="M8.864,22.818H6.409a.409.409,0,1,1,0-.818H8.864a.409.409,0,1,1,0,.818Z" transform="translate(0 -9.454)" fill="#11004a"/>
    <path id="Path_130641" data-name="Path 130641" d="M22.409,9.273A.41.41,0,0,1,22,8.864V6.409a.409.409,0,1,1,.818,0V8.864A.41.41,0,0,1,22.409,9.273Z" transform="translate(-9.454 0)" fill="#11004a"/>
    <path id="Path_130642" data-name="Path 130642" d="M49.044,49.459a.419.419,0,0,1-.29-.119L47.117,47.7a.408.408,0,1,1,.577-.577l1.636,1.636a.407.407,0,0,1,0,.577.4.4,0,0,1-.29.119Z" transform="translate(-24.225 -24.231)" fill="#11004a"/>
    <path id="Path_130643" data-name="Path 130643" d="M52.864,40.818H50.409a.409.409,0,1,1,0-.818h2.455a.409.409,0,1,1,0,.818Z" transform="translate(-25.999 -20.09)" fill="#11004a"/>
    <path id="Path_130644" data-name="Path 130644" d="M40.409,53.273A.41.41,0,0,1,40,52.864V50.409a.409.409,0,1,1,.818,0v2.455A.41.41,0,0,1,40.409,53.273Z" transform="translate(-20.09 -25.999)" fill="#11004a"/>
  </g>
</svg>
