<svg xmlns="http://www.w3.org/2000/svg" width="20.865" height="20.865" viewBox="0 0 20.865 20.865">
  <path id="road" d="M17.023,0A17.013,17.013,0,0,0,0,17.023v3.842H9.213V17.023a7.819,7.819,0,0,1,7.81-7.81h3.842V0ZM12.26,6.1A12.3,12.3,0,0,0,9.785,7.638l-.772-.967a13.538,13.538,0,0,1,2.725-1.688Zm5.178-1.141a12.38,12.38,0,0,0-2.352.225L14.85,3.973a13.642,13.642,0,0,1,2.588-.247h.5V4.963ZM5.342,15.1a12.388,12.388,0,0,0-.188,2.15v.711H3.917v-.711a13.646,13.646,0,0,1,.206-2.365Zm-.288-3.284A13.537,13.537,0,0,1,6.72,9l.98.755A12.285,12.285,0,0,0,6.187,12.31Z" fill="#11004a"/>
</svg>
