<svg xmlns="http://www.w3.org/2000/svg" width="31" height="31" viewBox="0 0 31 31">
  <g id="Group_24009" data-name="Group 24009" transform="translate(-1706 -4000)">
    <circle id="Ellipse_49" data-name="Ellipse 49" cx="15.5" cy="15.5" r="15.5" transform="translate(1706 4000)" fill="#f5f5f5"/>
    <path id="arrow_1_" data-name="arrow (1)" d="M72.238,52.578a.7.7,0,0,1-.5-1.2l1.942-1.953-1.942-1.953a.7.7,0,1,1,1-.992l2.435,2.449a.7.7,0,0,1,0,.992L72.737,52.37A.7.7,0,0,1,72.238,52.578Zm1.823,2.585,5.212-5.241a.7.7,0,0,0,0-.992l-5.212-5.241a.7.7,0,1,0-1,.992l4.718,4.745-4.718,4.745a.7.7,0,1,0,1,.992Z" transform="translate(1672.52 4091.478) rotate(-90)" fill="#11004a"/>
  </g>
</svg>
