<svg id="sort_4_" data-name="sort (4)" xmlns="http://www.w3.org/2000/svg" width="19" height="14" viewBox="0 0 19 14">
  <g id="Group_23947" data-name="Group 23947" transform="translate(0 10)">
    <path id="Path_131810" data-name="Path 131810" d="M10,18H4a1,1,0,0,1,0-2h6a1,1,0,0,1,0,2Z" transform="translate(-3 -16)" fill="#11004a"/>
  </g>
  <g id="Group_23948" data-name="Group 23948" transform="translate(0 5)">
    <path id="Path_131811" data-name="Path 131811" d="M13,13H4a1,1,0,0,1,0-2h9a1,1,0,0,1,0,2Z" transform="translate(-3 -11)" fill="#11004a"/>
  </g>
  <g id="Group_23949" data-name="Group 23949" transform="translate(14 4)">
    <path id="Path_131812" data-name="Path 131812" d="M18,20a.945.945,0,0,1-1-1V11a1,1,0,0,1,2,0v8A.945.945,0,0,1,18,20Z" transform="translate(-17 -10)" fill="#11004a"/>
  </g>
  <g id="Group_23950" data-name="Group 23950" transform="translate(11 9)">
    <path id="Path_131813" data-name="Path 131813" d="M18,20a.908.908,0,0,1-.7-.3l-3-3a.99.99,0,0,1,1.4-1.4L18,17.6l2.3-2.3a.99.99,0,0,1,1.4,1.4l-3,3a.908.908,0,0,1-.7.3Z" transform="translate(-14 -15)" fill="#11004a"/>
  </g>
  <g id="Group_23951" data-name="Group 23951">
    <path id="Path_131814" data-name="Path 131814" d="M16,8H4A.945.945,0,0,1,3,7,.945.945,0,0,1,4,6H16a.945.945,0,0,1,1,1A.945.945,0,0,1,16,8Z" transform="translate(-3 -6)" fill="#11004a"/>
  </g>
</svg>
