<svg xmlns="http://www.w3.org/2000/svg" width="75.862" height="11.924" viewBox="0 0 75.862 11.924">
  <g id="Group_23785" data-name="Group 23785" transform="translate(-1467 -551)">
    <path id="star" d="M13.961,6.46a.857.857,0,0,0-.681-.582l-3.061-.47L8.848,2.5a.844.844,0,0,0-1.539,0L5.936,5.409l-3.061.47a.859.859,0,0,0-.681.582.89.89,0,0,0,.2.907L4.625,9.66,4.1,12.9a.881.881,0,0,0,.361.87.832.832,0,0,0,.888.047L8.071,12.3l2.739,1.52a.83.83,0,0,0,.888-.047.88.88,0,0,0,.361-.87L11.531,9.66l2.227-2.292a.89.89,0,0,0,.2-.907Z" transform="translate(1464.853 548.999)" fill="#ffcb2b"/>
    <path id="star-2" data-name="star" d="M13.961,6.46a.857.857,0,0,0-.681-.582l-3.061-.47L8.848,2.5a.844.844,0,0,0-1.539,0L5.936,5.409l-3.061.47a.859.859,0,0,0-.681.582.89.89,0,0,0,.2.907L4.625,9.66,4.1,12.9a.881.881,0,0,0,.361.87.832.832,0,0,0,.888.047L8.071,12.3l2.739,1.52a.83.83,0,0,0,.888-.047.88.88,0,0,0,.361-.87L11.531,9.66l2.227-2.292a.89.89,0,0,0,.2-.907Z" transform="translate(1480.853 548.999)" fill="#ffcb2b"/>
    <path id="star-3" data-name="star" d="M13.961,6.46a.857.857,0,0,0-.681-.582l-3.061-.47L8.848,2.5a.844.844,0,0,0-1.539,0L5.936,5.409l-3.061.47a.859.859,0,0,0-.681.582.89.89,0,0,0,.2.907L4.625,9.66,4.1,12.9a.881.881,0,0,0,.361.87.832.832,0,0,0,.888.047L8.071,12.3l2.739,1.52a.83.83,0,0,0,.888-.047.88.88,0,0,0,.361-.87L11.531,9.66l2.227-2.292a.89.89,0,0,0,.2-.907Z" transform="translate(1496.853 548.999)" fill="#ffcb2b"/>
    <path id="star-4" data-name="star" d="M13.961,6.46a.857.857,0,0,0-.681-.582l-3.061-.47L8.848,2.5a.844.844,0,0,0-1.539,0L5.936,5.409l-3.061.47a.859.859,0,0,0-.681.582.89.89,0,0,0,.2.907L4.625,9.66,4.1,12.9a.881.881,0,0,0,.361.87.832.832,0,0,0,.888.047L8.071,12.3l2.739,1.52a.83.83,0,0,0,.888-.047.88.88,0,0,0,.361-.87L11.531,9.66l2.227-2.292a.89.89,0,0,0,.2-.907Z" transform="translate(1512.853 548.999)" fill="#ffcb2b"/>
    <path id="star-5" data-name="star" d="M13.961,6.46a.857.857,0,0,0-.681-.582l-3.061-.47L8.848,2.5a.844.844,0,0,0-1.539,0L5.936,5.409l-3.061.47a.859.859,0,0,0-.681.582.89.89,0,0,0,.2.907L4.625,9.66,4.1,12.9a.881.881,0,0,0,.361.87.832.832,0,0,0,.888.047L8.071,12.3l2.739,1.52a.83.83,0,0,0,.888-.047.88.88,0,0,0,.361-.87L11.531,9.66l2.227-2.292a.89.89,0,0,0,.2-.907Z" transform="translate(1528.853 548.999)" fill="#ffcb2b"/>
  </g>
</svg>
