<svg xmlns="http://www.w3.org/2000/svg" width="78.223" height="10.867" viewBox="0 0 78.223 10.867">
  <g id="Group_23697" data-name="Group 23697" transform="translate(0 0)">
    <path id="Path_130192" data-name="Path 130192" d="M5.723,0,3.889,3.485,0,4.12,2.748,6.944l-.6,3.894L5.683,9.1,9.2,10.867l-.563-3.9,2.771-2.8L7.528,3.5Z" fill="#11004a"/>
    <path id="Path_130193" data-name="Path 130193" d="M122.543,0l-1.835,3.485-3.889.635,2.746,2.824-.594,3.894L122.5,9.1l3.52,1.771-.562-3.9,2.771-2.8L124.347,3.5Z" transform="translate(-100.116)" fill="#11004a"/>
    <path id="Path_130194" data-name="Path 130194" d="M239.37,0l-1.835,3.485-3.886.635L236.4,6.944l-.6,3.894L239.331,9.1l3.52,1.771-.562-3.9,2.771-2.8L241.176,3.5Z" transform="translate(-200.242)" fill="#11004a"/>
    <path id="Path_130195" data-name="Path 130195" d="M356.182,0l-1.833,3.485-3.889.635L353.2,6.944l-.6,3.894L356.142,9.1l3.518,1.771-.561-3.9,2.771-2.8L357.987,3.5Z" transform="translate(-300.35)" fill="#11004a"/>
    <path id="Path_130196" data-name="Path 130196" d="M473,0l-1.835,3.485-3.888.635,2.746,2.824-.6,3.894L472.961,9.1l3.52,1.771-.564-3.9,2.772-2.8L474.8,3.5Z" transform="translate(-400.466)" fill="#fff"/>
  </g>
</svg>
