<svg xmlns="http://www.w3.org/2000/svg" width="152.637" height="144.519" viewBox="0 0 152.637 144.519">
  <g id="Support_1_" transform="translate(-20.519 -27.406)">
    <g id="Group_23978" data-name="Group 23978" transform="translate(20.519 27.406)">
      <path id="Path_131904" data-name="Path 131904" d="M149.525,96.031a.781.781,0,0,0,.92.713l4.47,3.464.118-.013c11.066-1.2,25.634-2.51,40.182-1.942l.287.011.018-.287a458.9,458.9,0,0,0,.968-45.923l0-.116-.082-.082c-.537-.537-1.1-1.165-1.635-1.773-.471-.53-.954-1.066-1.432-1.558-.014-.445-.022-.89-.038-1.335a.9.9,0,0,0-1.755-.2,1,1,0,0,0-.151-.02c-4.1-.134-8.194-.326-12.289-.535a116.006,116.006,0,0,0-1.383-16.952c-.01-.169-.018-.338-.028-.507a.444.444,0,0,0-.868-.117c-.385,1.136-.894,3.251-1.888,4.066q-.5,1.558-1.392-.019a7.728,7.728,0,0,1-.949-3.344.446.446,0,0,0-.824-.223,16.935,16.935,0,0,0-2.3,4.584L165.047,27.6c-.321-.46-1.078-.027-.768.437a.4.4,0,0,0-.173.338q-.085,8.427-.169,16.854l-.028,0c-5.058-.415-10.131-.623-15.178-1.179a.733.733,0,0,0-.842.808.952.952,0,0,0-.013.324A247.433,247.433,0,0,1,149.521,95.9c0,.02,0,.036,0,.055l-.079.01Zm19.721-60.888a.448.448,0,0,0,.808-.106,16.315,16.315,0,0,1,1.846-4.284,9.7,9.7,0,0,0,2.031,4.206c.2.246.542.112.694-.09A19.9,19.9,0,0,0,176.92,31a240.782,240.782,0,0,1,.006,26.361l-3.492-3.5a.446.446,0,0,0-.694.09l-2.243,4.8a23.453,23.453,0,0,0-1.977-4.772.448.448,0,0,0-.808.106l-2.264,5.566a39.053,39.053,0,0,1-.7-6.032c0-.011-.006-.018-.007-.028q.123-12.274.246-24.548ZM149.738,45.911c4.714.478,9.449.7,14.172,1.083h.01l-.071,7.036a.431.431,0,0,0,.049.205,37.618,37.618,0,0,0,.993,7.026c.115.464.7.373.852,0l2.437-5.993a22.62,22.62,0,0,1,1.78,4.879.447.447,0,0,0,.808.106c.4-.852,1.657-4.785,2.509-4.966.784-.167,3.124,2.8,3.726,3.406a.433.433,0,0,0,.686-.1c1.036-.505,1.15-2.224,1.205-3.212.135-2.429.2-4.813.215-7.178,4.092.208,8.186.4,12.282.534a.979.979,0,0,0,.182-.012,426.491,426.491,0,0,1-.856,43.811,274.879,274.879,0,0,0-39.358,2.24A249.574,249.574,0,0,0,149.738,45.911Z" transform="translate(-72.806 -27.406)"/>
      <path id="Path_131905" data-name="Path 131905" d="M22.139,219.049A110.664,110.664,0,0,1,27.645,208.2a127.39,127.39,0,0,1,7.574-10.482c.69-.9-.845-1.786-1.527-.892A127.465,127.465,0,0,0,26.118,207.3a110.758,110.758,0,0,0-5.506,10.852C20.13,219.18,21.654,220.079,22.139,219.049Z" transform="translate(-20.519 -96.812)"/>
      <path id="Path_131906" data-name="Path 131906" d="M68.175,221.459a2.458,2.458,0,0,0-1.961-2.532,1.256,1.256,0,0,0-.395.012,1.1,1.1,0,0,0-.4-.005,2.46,2.46,0,0,0-1.9,2.527,2.336,2.336,0,0,0,4.646,0Zm-2.34-.8c.65.172.814,1.091.044,1.125S65.158,220.841,65.835,220.66Z" transform="translate(-38.177 -106.036)"/>
      <path id="Path_131907" data-name="Path 131907" d="M53.021,65.769l0,0,.026-.04Z" transform="translate(-33.864 -43.139)"/>
      <path id="Path_131908" data-name="Path 131908" d="M52.811,65.8c-.034.042-.07.081-.1.124C52.356,66.362,52.528,66.235,52.811,65.8Z" transform="translate(-33.654 -43.169)"/>
      <path id="Path_131909" data-name="Path 131909" d="M111.314,156.065c8.124,6.337,20.752,13.425,30.722,6.761,4.2-2.806,6.535-7.631,7.61-12.437a20.211,20.211,0,0,0,11.6-6.248A28.579,28.579,0,0,0,167.7,129.22a55.655,55.655,0,0,0,.515-11.63,16.864,16.864,0,0,0,9.569-6.719c4.565-7.207,3.258-18.817-2.228-25.814,5.159-4.108,6.021-11.52,6.67-17.933.115-1.131-1.655-1.123-1.768,0-.609,6.017-1.6,12.826-6.146,16.5-2.749-2.844-9.583-7.137-12.26-4.062-2.289,2.63-.322,7.671,2.895,8.414,2.836.654,6.4-.277,9.108-1.884a23.9,23.9,0,0,1,4.174,19.162,15.076,15.076,0,0,1-10.166,10.706,30.3,30.3,0,0,0-1.01-5.179c-1.143-3.863-5.141-7.957-9.5-5.913-3.512,1.645-3.237,6.014-1.428,8.846,2.357,3.693,6.222,4.8,10.123,4.274.5,7.947-.123,16.325-4.8,23.044a18.537,18.537,0,0,1-11.462,7.63c.746-4.4.657-9.456-2.349-12.931-2.6-3.006-7.63-4.453-10.943-1.737-3.259,2.671-2.8,7.57-.785,10.846,2.763,4.494,7.4,6.083,12.126,5.739-1.463,5.508-5.042,10.566-10.005,12.265-9.019,3.086-18.679-2.723-25.54-8.089-.014-.011-.029-.017-.043-.027a43.622,43.622,0,0,0,5.458-9.141.928.928,0,0,0-.138-1.071A60.108,60.108,0,0,0,96.8,129.066c-3.937-1.73-5.351-.7-7.87,2.523-1.864,2.387-4.259,8-7.8,3.584a4.346,4.346,0,0,1-.555-.954c4.314-5.207,7.789-11.494,7.738-18.4a6.534,6.534,0,0,0-.307-2.187c-.007-.018-.018-.036-.025-.054-.03-.233-.069-.465-.121-.694a3.782,3.782,0,0,0-4.3-3.063,7.488,7.488,0,0,0,.305-3.992,4.183,4.183,0,0,0-4.476-3.484,4.268,4.268,0,0,0-.049-.59,4.448,4.448,0,0,0-5.538-3.627,7.374,7.374,0,0,0-.4-2.271c-.854-2.431-3.651-2.535-5.557-1.046a7.233,7.233,0,0,0-1.823,2.378l-.07.005s0,0,0,0a.8.8,0,0,1-.008.138c-.158.306-.307.616-.452.927-.136.185-.286.369-.431.545-.066.079-.129.157-.191.235a70.141,70.141,0,0,1-4.73-11.141,9.172,9.172,0,0,1-.518-3.393c.211-2.076,2.229-2.773,4.051-2.8a33.8,33.8,0,0,1,8.593,1.53.885.885,0,0,0,.47-1.7c-2.427-.623-6.942-2-10.372-1.551a66.162,66.162,0,0,0-2.28-26.7,23.724,23.724,0,0,1,4.089-1.116,22.047,22.047,0,0,1,3.425-.334c1.951-.037,2.486-.087,3.762,1.6a23.627,23.627,0,0,1,2.069,25.9c-.542,1,.984,1.895,1.527.892a24.825,24.825,0,0,0,1.464-21.345c-1.03-2.57-2.843-6.925-5.338-8.387-2.355-1.379-7.144-.2-9.622.491a25.857,25.857,0,0,0-9.346,4.857,22.991,22.991,0,0,0-3.357,3.407,21.551,21.551,0,0,0-1.509,2.532A19.476,19.476,0,0,0,45.6,68.97a37.017,37.017,0,0,0-.534,5.236,83.687,83.687,0,0,0,1.415,17.273c.08.456.151.921.223,1.388a17.75,17.75,0,0,0,1.342,5.172,4.339,4.339,0,0,0-4.354,1.682c-1.726,1.938-1,4.455-.233,6.639a79.293,79.293,0,0,1,2.819,9.15c1.128,5.145,1.874,10.194,3.388,15.139-1.985-1.192-4.489-1.962-5.158.523-1.17,4.341,6.858,9.619,9.446,11.707a68.877,68.877,0,0,0,7.42,5.3,15.543,15.543,0,0,0,2.982,1.508,268.1,268.1,0,0,0-19.7,30.124c-.548,1,.978,1.891,1.527.892l.022-.039c.568.029,1.14.071,1.7.119.919.079,1.852.159,2.776.159a9.407,9.407,0,0,0,3.465-.566c.332-.13.641-.707,1.274-2.378.06-.159.106-.282.132-.342a36.315,36.315,0,0,1,1.874-3.668l5.6-9.681a31.564,31.564,0,0,0,3.257-6.855,10.977,10.977,0,0,0-.151-7.219l.181-.246a3.358,3.358,0,0,0,.64-.1c3.264-.868.813-4.8-1-6.6a10.354,10.354,0,0,0,2.622-.269c6.68,7.252,13.2,13.964,22.174,17.507.165.087.333.167.5.25-2.063.611-3.925,1.67-3.8,3.6a2.874,2.874,0,0,0,1.612,2.25,7.276,7.276,0,0,0,2.6.666,63.256,63.256,0,0,0,7.318.4c3.471,0,6.722-.235,9.455-.481a9.817,9.817,0,0,0,3.008-.609,3.6,3.6,0,0,0,2.147-2.3,3.691,3.691,0,0,0-2.126-3.907,9.448,9.448,0,0,0-4.1-.763A23.62,23.62,0,0,0,111.314,156.065ZM169.338,85.95c-2.409.525-5.341,1.005-6.152-2-1.555-5.77,4.758-2.8,7.121-1.3a14.256,14.256,0,0,1,2.486,2.013A12.35,12.35,0,0,1,169.338,85.95ZM161.426,115.7c-3.04-1.107-8.077-7.665-2.721-9.4,5.714-1.851,7.075,6.124,7.421,10.012A10.762,10.762,0,0,1,161.426,115.7ZM140.89,147.177c-3.263-1.87-5.96-6.1-4.407-9.921,2.405-5.918,9.765-1.937,11.352,2.337a17.814,17.814,0,0,1,.581,9.273A13.012,13.012,0,0,1,140.89,147.177ZM89.829,133.3c1.121-1.474,2.334-3.572,4.525-3.337,1.283.138,2.958,1.252,4.135,1.821a59.634,59.634,0,0,1,6.718,3.776A56.947,56.947,0,0,1,116.1,145.31a36.1,36.1,0,0,1-5.794,9.568,55.81,55.81,0,0,0-22.476-18.7C88.574,135.16,89.229,134.085,89.829,133.3Zm-32.4-78.84c.334-.172.675-.334,1.017-.49a64.962,64.962,0,0,1,2.1,26.5,4.263,4.263,0,0,0-2.611,3.414c-.5,2.855.9,5.913,2.016,8.461,1.22,2.8,2.454,5.611,3.79,8.359-.119.189-.239.381-.363.582l-.291.469c-.23.368-.454.735-.675,1.1a28.153,28.153,0,0,1-2.7,3.926,12.479,12.479,0,0,1-1.6,1.442,11.911,11.911,0,0,0-1.762,1.617s-.006.011-.01.016a163.142,163.142,0,0,1-6.377-22.043,119.683,119.683,0,0,1-2.548-13.5q-.126-2.739-.1-5.492a16.3,16.3,0,0,1,2.738-8.36A21.346,21.346,0,0,1,57.425,54.457Zm9.329,93.194c-.323.806-2.458.115-2.939-.111a16.536,16.536,0,0,1-1.547-.886,67.372,67.372,0,0,1-7.883-5.7,61.365,61.365,0,0,1-6.046-5.446c-.6-.65-2.481-2.788-1.8-3.7.992-1.317,3.312.954,4.15,1.809.259.679.532,1.356.833,2.03.462,1.038,1.986.139,1.527-.892-3.728-8.371-3.963-17.508-6.9-26.093-.665-1.944-2.911-6.032-1-7.927,3.161-3.138,5.979,1.4,7.1,3.783a45.909,45.909,0,0,1,2.314,5.977c.226.729.418,1.423.575,2.17.119.565.234,2.5.5,2.241a.885.885,0,0,0,1.25,1.251c.288-.288.561-.588.827-.892a.724.724,0,0,0,.363-.423c2.814-3.4,4.445-7.629,6.646-11.43.176-.3.43-.823.741-1.453a.913.913,0,0,0,.395-.793c1.337-2.656,3.382-6.336,5.051-5.532,3.227,1.556-.477,8.281-1.6,10.121-.6.974.934,1.863,1.527.892a19.744,19.744,0,0,0,2.848-6.788.843.843,0,0,0,.484,0c2.924-.857,3.84,2.22,2.976,4.415a22.429,22.429,0,0,1-1.017,2.022c-.748,1.447-1.468,2.907-2.174,4.375-.491,1.021,1.033,1.918,1.527.892.813-1.691,1.667-3.358,2.517-5.03a18.772,18.772,0,0,0,1.083-2.354c2.1-.8,3.124,1.324,3.176,2.851a7.688,7.688,0,0,1-.817,3.269,36.6,36.6,0,0,1-2.178,4.108.885.885,0,0,0,1.527.892c.564-.959,1.2-2,1.762-3.092a.948.948,0,0,0,.129-.075c4.953-3.559,3.085,5.211,2.669,6.445a37.644,37.644,0,0,1-5.408,10.626c-.529.7-1.09,1.4-1.676,2.082a.772.772,0,0,0-.288.329c-4.353,4.961-10.156,9.153-16.69,10.66-1.109.256-.639,1.961.47,1.705.77-.178,1.523-.393,2.264-.636a.907.907,0,0,0,.369.86C64.882,144.576,67,147.027,66.754,147.651ZM103.7,159.573a60.05,60.05,0,0,0-8.145.391l-.168.022c-.288.037-.623.08-.988.133a13.655,13.655,0,0,1-1.8-.673c-4.446-2.049-8.111-5.752-11.5-9.2-1.234-1.256-2.417-2.558-3.577-3.879-.465-.675-.91-1.361-1.346-2.036-.771-1.193-1.57-2.421-2.459-3.556a35.3,35.3,0,0,0,5.662-5.169,6.357,6.357,0,0,0,2.472,3.045c1.955,1.043,3.513.258,4.813-1.078a54.158,54.158,0,0,1,22.381,18.572c-.149.137-.3.275-.45.408A17.744,17.744,0,0,1,103.7,159.573Z" transform="translate(-29.599 -36.623)"/>
      <path id="Path_131910" data-name="Path 131910" d="M110.776,51.15l-6.218,1.855a.885.885,0,0,0,.47,1.705l6.219-1.855A.885.885,0,0,0,110.776,51.15Z" transform="translate(-54.769 -37.138)"/>
      <path id="Path_131911" data-name="Path 131911" d="M115.436,70.77l-6.42-.846c-1.125-.148-1.114,1.621,0,1.768l6.42.846C116.561,72.686,116.55,70.917,115.436,70.77Z" transform="translate(-56.509 -44.859)"/>
      <path id="Path_131912" data-name="Path 131912" d="M107.239,96a10.2,10.2,0,0,1,5.143,1.781c.946.638,1.832-.893.892-1.527a11.989,11.989,0,0,0-6.035-2.022C106.1,94.157,106.107,95.925,107.239,96Z" transform="translate(-55.775 -54.841)"/>
      <path id="Path_131913" data-name="Path 131913" d="M173.378,96.18a4.883,4.883,0,0,1,5.619.5,11.207,11.207,0,0,0,2.07,1.382c2.894,1.264,5.473-1.945,8.114-.783,1.032.454,1.933-1.069.892-1.527a5.2,5.2,0,0,0-4.406.07c-2.295.849-3.522,1.012-5.508-.464a10.409,10.409,0,0,0-2.089-1.373c-4.869-2.059-9.964,5.527-13.815-.591-.6-.961-2.135-.075-1.527.892C165.4,98.529,169.392,97.97,173.378,96.18Z" transform="translate(-78.85 -54.332)"/>
      <path id="Path_131914" data-name="Path 131914" d="M189.347,113.281c-1.588,1.542-3.7-.456-5.155-.948a4.874,4.874,0,0,0-3.353-.05c-1.44.476-2.586,1.548-4.061,1.958a7.088,7.088,0,0,1-6.236-1.376c-.912-.681-1.795.853-.892,1.527,3.277,2.447,6.778,2.182,10.238.338,3.128-1.667,4.561.391,7.43.821a3.582,3.582,0,0,0,3.28-1.019C191.415,113.737,190.164,112.487,189.347,113.281Z" transform="translate(-81.594 -62.142)"/>
    </g>
  </g>
</svg>
