<svg xmlns="http://www.w3.org/2000/svg" width="30.827" height="30.827" viewBox="0 0 30.827 30.827">
  <g id="Group_23813" data-name="Group 23813" transform="translate(-1706.174 -3290.921)">
    <path id="Path_130204" data-name="Path 130204" d="M2233.523,15.413A15.413,15.413,0,1,1,2218.109,0a15.413,15.413,0,0,1,15.413,15.413" transform="translate(-496.522 3290.921)" fill="#0fd146" fill-rule="evenodd"/>
    <path id="Path_130205" data-name="Path 130205" d="M2301.5,86.192a9.249,9.249,0,0,0-.86-1.573,9.367,9.367,0,0,0-15.48,0,9.2,9.2,0,0,0-.255,9.961l.008.013-1.675,4.941,5.139-1.633.012.007a9.322,9.322,0,0,0,2.144.852,9.431,9.431,0,0,0,2.369.3,9.323,9.323,0,0,0,8.6-5.657,9.223,9.223,0,0,0,0-7.21m-8.6,11.45a7.907,7.907,0,0,1-4.337-1.289l-3.071.976,1-2.945a7.738,7.738,0,0,1-1.5-4.587,7.906,7.906,0,1,1,7.906,7.844" transform="translate(-571.148 3216.3)" fill="#fff" fill-rule="evenodd"/>
    <path id="Path_130206" data-name="Path 130206" d="M2357.988,157.257c-.058-.1-.211-.152-.44-.266s-1.359-.665-1.569-.741c-.316-.114-.463.052-.645.288s-.393.485-.6.719c-.134.152-.267.171-.5.057a6.279,6.279,0,0,1-3.124-2.708c-.134-.228-.013-.351.1-.465.277-.274.766-.757.555-1.178-.057-.114-.516-1.235-.708-1.691a.675.675,0,0,0-.349-.421,1.272,1.272,0,0,0-.758.086,1.7,1.7,0,0,0-.581.364,2.261,2.261,0,0,0-.639,1.233,2.553,2.553,0,0,0-.042.418c0,.039,0,.079,0,.118a4.206,4.206,0,0,0,.935,2.344,9.381,9.381,0,0,0,3.922,3.44,9.266,9.266,0,0,0,1.719.6,2.369,2.369,0,0,0,2.791-1.7.743.743,0,0,0-.071-.506" transform="translate(-631.795 3151.176)" fill="#fff" fill-rule="evenodd"/>
  </g>
</svg>
