<svg xmlns="http://www.w3.org/2000/svg" xmlns:xlink="http://www.w3.org/1999/xlink" width="283.841" height="41.304" viewBox="0 0 283.841 41.304">
  <defs>
    <clipPath id="clip-path">
      <rect id="Rectangle_38359" data-name="Rectangle 38359" width="283.841" height="41.304" transform="translate(0 0)" fill="none"/>
    </clipPath>
  </defs>
  <g id="Group_23545" data-name="Group 23545" clip-path="url(#clip-path)">
    <path id="Path_129658" data-name="Path 129658" d="M368.016,35.337c5.078,0,8.464-2.455,8.591-6.517,0-.339-.254-.381-.423-.254a12.909,12.909,0,0,1-8.083,2.37c-3.936,0-7.829-2.2-7.829-6.856,0-4.74,3.089-6.94,6.856-6.94,3.216,0,5.671,1.862,5.671,4.613h-5.036c-2.751,0-5.5,1.058-5.84,4.528-.042.423.212.55.423.423,1.439-.762,3.259-.8,5.8-.8h7.745a1.718,1.718,0,0,0,1.9-1.9v-.55c0-7.364-4.867-10.622-10.5-10.622-6.856,0-11.85,4.571-11.85,11.13,0,8.168,6.433,11.384,12.569,11.384m-47.145-.677H323.2a.457.457,0,0,0,.508-.466V17.943a14.688,14.688,0,0,0,2.031-.3,11.69,11.69,0,0,1,2.793-.381c2.835,0,4.528,1.693,4.528,4.655V32.67a1.775,1.775,0,0,0,1.947,1.989h2.454a.435.435,0,0,0,.423-.466V22.09a11.856,11.856,0,0,0-.381-3.682,13.747,13.747,0,0,0,1.989-.508,11.152,11.152,0,0,1,3.555-.635c2.878,0,4.274,1.439,4.274,4.232V32.67a1.739,1.739,0,0,0,1.947,1.989h2.412a.47.47,0,0,0,.465-.466V21.2c0-5.248-3-8.422-8.337-8.422a18.5,18.5,0,0,0-5.755,1.016,18.177,18.177,0,0,1-2.793.719c-.931-.931-2.878-1.693-5.671-1.693a25.566,25.566,0,0,0-5.544.762,10.211,10.211,0,0,1-2.285.212,8.873,8.873,0,0,1-2.455-.3c-.3-.085-.465.042-.465.339V32.67a1.8,1.8,0,0,0,2.031,1.989" transform="translate(-93.951 -3.766)" fill="#fff"/>
    <path id="Path_129659" data-name="Path 129659" d="M305.283,41.343h1.82c2.158,0,3.555-1.185,3.555-3.174V35.926a.423.423,0,0,0-.465-.466h-1.777c-2.2,0-3.555,1.143-3.555,3.089v2.328a.413.413,0,0,0,.423.466" transform="translate(-89.832 -10.449)" fill="#fcc860"/>
    <path id="Path_129660" data-name="Path 129660" d="M203.433,31.571c5.586,0,9.268-2.455,9.268-6.814,0-4.147-3.216-5.544-6.6-6.136l-4.444-.762c-1.989-.339-2.962-.889-2.962-2.158,0-1.608,1.989-2.623,5.417-2.623a8.941,8.941,0,0,1,6.771,2.623c.254.3.466.127.466-.169V12.188c0-1.1-1.143-1.862-1.735-2.158a13.663,13.663,0,0,0-5.84-1.143c-4.951,0-9.734,1.989-9.734,6.94,0,4.02,2.962,5.671,6.433,6.221l4.571.719c1.989.3,2.92.931,2.92,2.2,0,1.608-1.566,2.412-4.74,2.412-3.6,0-6.771-1.777-7.872-3.682-.127-.212-.339-.169-.465.085a3.957,3.957,0,0,0-.381,1.947c0,3.555,4.02,5.84,8.929,5.84m-21.795,0c5.078,0,8.464-2.455,8.591-6.517,0-.339-.254-.381-.423-.254a12.909,12.909,0,0,1-8.083,2.37c-3.936,0-7.829-2.2-7.829-6.856,0-4.74,3.089-6.94,6.856-6.94,3.216,0,5.671,1.862,5.671,4.613h-5.036c-2.751,0-5.5,1.058-5.84,4.528-.042.424.212.55.423.424,1.439-.762,3.259-.8,5.8-.8h7.745a1.718,1.718,0,0,0,1.9-1.9v-.551c0-7.364-4.867-10.622-10.5-10.622-6.856,0-11.85,4.571-11.85,11.13,0,8.168,6.433,11.384,12.569,11.384M155.78,27.127c-4.274,0-7.237-2.5-7.237-6.814s2.835-6.814,7.11-6.814a6.475,6.475,0,0,1,5.332,2.37V26.535a5.74,5.74,0,0,0-2.031.212,14.065,14.065,0,0,1-3.174.381m-.55,4.444a26.157,26.157,0,0,0,5.078-.55,13.5,13.5,0,0,1,3.047-.423,5.545,5.545,0,0,1,1.989.3c.3.127.466-.042.466-.339V1.905A1.719,1.719,0,0,0,163.906,0h-2.5a.4.4,0,0,0-.423.423V10.749c-1.524-1.354-3.978-1.693-5.882-1.693-6.348,0-11.469,4.105-11.469,11.257,0,7.067,5.205,11.257,11.6,11.257m-18.282-.677h2.539a.4.4,0,0,0,.423-.423V11.638a1.718,1.718,0,0,0-1.9-1.9h-2.539a.4.4,0,0,0-.423.423V28.989a1.718,1.718,0,0,0,1.9,1.9m-17.013.719a21.5,21.5,0,0,0,4.867-.592,14.96,14.96,0,0,1,2.92-.381,6.406,6.406,0,0,1,1.947.3c.3.085.466-.042.466-.339V11.638a1.718,1.718,0,0,0-1.9-1.9h-2.539a.4.4,0,0,0-.423.423v16.42a5.712,5.712,0,0,0-1.82.254,12.268,12.268,0,0,1-3.3.423c-3.724,0-5.84-2.2-5.84-6.009V11.638a1.718,1.718,0,0,0-1.9-1.9h-2.539a.4.4,0,0,0-.423.423V21.372c0,6.263,3.724,10.241,10.5,10.241M93.824,41.3c5.205,0,11.215-2.369,11.215-10.665V10.115c0-.254-.127-.381-.3-.381-.042,0-.127.043-.169.043a6.4,6.4,0,0,1-1.735.253,16.253,16.253,0,0,1-3.047-.38,23.811,23.811,0,0,0-5.205-.593c-6.433,0-11.765,4.063-11.765,11.257s5.036,11.13,10.834,11.13c3.132,0,5.459-1.777,5.459-5.163,0-.339-.212-.423-.508-.254a5.915,5.915,0,0,1-3.724,1.058c-4.147,0-7.11-2.412-7.11-6.814,0-4.359,3.089-6.728,7.237-6.728a15.958,15.958,0,0,1,3.216.38,6.518,6.518,0,0,0,1.989.127V30.6c0,4.528-3,6.306-6.6,6.306-3.343,0-6.517-1.439-7.914-3-.212-.254-.466-.212-.466.212V37.5c0,2.582,5.713,3.809,8.591,3.809M72.156,30.894h2.328a.456.456,0,0,0,.508-.466V14.136a10.67,10.67,0,0,0,1.9-.085c.846-.085,1.65-.212,2.243-.212a3.988,3.988,0,0,1,2.751.889c.3.253.423.126.508-.17a5.723,5.723,0,0,0,.169-1.227c0-2.539-1.354-3.978-4.19-3.978a16.3,16.3,0,0,0-3,.339,13.94,13.94,0,0,1-4.782.042c-.3-.042-.466.043-.466.339V28.9a1.8,1.8,0,0,0,2.031,1.989m-17.14.719a21.5,21.5,0,0,0,4.867-.592,14.96,14.96,0,0,1,2.92-.381,6.406,6.406,0,0,1,1.947.3c.3.085.466-.042.466-.339V11.638a1.718,1.718,0,0,0-1.9-1.9H60.772a.4.4,0,0,0-.423.423v16.42a5.712,5.712,0,0,0-1.82.254,12.268,12.268,0,0,1-3.3.423c-3.724,0-5.84-2.2-5.84-6.009V11.638a1.718,1.718,0,0,0-1.9-1.9H44.944a.4.4,0,0,0-.423.423V21.372c0,6.263,3.724,10.241,10.5,10.241M13.585,31.4c2.2,0,3.64-.762,3.64-2.074V26.619a.277.277,0,0,0-.466-.212,3.616,3.616,0,0,1-2.2.592c-2.962,0-4.528-1.735-4.528-4.7V14.177H11.6c4.824,0,7.321-1.947,7.237-5.459,0-.339-.169-.466-.423-.339C16.632,9.4,14.685,9.734,11.342,9.734H10.03V5.29a1.718,1.718,0,0,0-1.9-1.9H5.586a.4.4,0,0,0-.423.423V9.734H3.428C1.312,9.734,0,10.919,0,12.865v.889a.4.4,0,0,0,.423.423h4.74v8.845c0,5.248,2.962,8.379,8.422,8.379M29.423,13.02c-3.348,0-5.364,1.16-6.437,2.36-.129.129-.215.172-.3.172-.387,0-.387-.858-.387-1.245,0-3.132,2.79-5.751,7.982-5.751,6.609,0,11.244,4.377,11.244,11.716,0,6.608-4.549,11.415-11.5,11.415-6.652,0-11.63-4.249-11.33-10.9.129-2.445,1.588-4.634,4.42-4.634.387,0,1.5.128,1.5.514a.372.372,0,0,1-.129.257,6.026,6.026,0,0,0-1.116,3.519c0,3.991,2.532,6.737,6.7,6.737,4.034,0,6.437-2.961,6.437-6.952,0-4.463-2.918-7.21-7.081-7.21" transform="translate(0 0)" fill="#fff"/>
    <path id="Path_129661" data-name="Path 129661" d="M191.583,5.8h1.735c2.074,0,3.386-1.143,3.386-3.047V.423A.4.4,0,0,0,196.281,0h-1.735c-2.074,0-3.386,1.1-3.386,2.962v2.37a.413.413,0,0,0,.423.466" transform="translate(-56.328 0)" fill="#fcc860"/>
  </g>
</svg>
