<svg xmlns="http://www.w3.org/2000/svg" width="17.719" height="15.136" viewBox="0 0 17.719 15.136">
  <path id="Path_129662" data-name="Path 129662" d="M17.706,10.631h-4.43V8.014A2.016,2.016,0,0,0,11.262,6H4.014A2.016,2.016,0,0,0,2,8.014v4.833A2.016,2.016,0,0,0,4.014,14.86V15.7a.805.805,0,0,0,1.376.567.359.359,0,0,0,.04-.046l1-1.362H8.443v2.618a2.016,2.016,0,0,0,2.014,2.014h4.464L16.331,20.9a.805.805,0,0,0,1.375-.569v-.84a2.016,2.016,0,0,0,2.014-2.014V12.645a2.016,2.016,0,0,0-2.014-2.014ZM6.228,14.054a.4.4,0,0,0-.322.164L4.819,15.692V14.457a.4.4,0,0,0-.4-.4h-.4a1.208,1.208,0,0,1-1.208-1.208V8.014A1.208,1.208,0,0,1,4.014,6.805h7.249A1.208,1.208,0,0,1,12.47,8.014v2.618H10.457a2,2,0,0,0-1.188.4L8,8.249a.4.4,0,0,0-.733,0l-2.014,4.43a.4.4,0,0,0,.2.533.4.4,0,0,0,.165.037.4.4,0,0,0,.366-.236l.625-1.375H8.661l.029.062a1.989,1.989,0,0,0-.246.944v1.409Zm2.066-3.222H6.982l.656-1.443Zm10.619,6.645a1.208,1.208,0,0,1-1.208,1.208h-.4a.4.4,0,0,0-.4.4v1.243L15.373,18.8a.4.4,0,0,0-.285-.118H10.457a1.208,1.208,0,0,1-1.208-1.208V12.645a1.208,1.208,0,0,1,1.208-1.208h7.249a1.208,1.208,0,0,1,1.208,1.208Z" transform="translate(-2 -6)" fill="#11004a"/>
</svg>
