<svg xmlns="http://www.w3.org/2000/svg" width="17.802" height="15.207" viewBox="0 0 17.802 15.207">
  <g id="_31_-_40" data-name="31 - 40" transform="translate(-2 -6)">
    <g id="Language" transform="translate(2 6)">
      <path id="Path_130650" data-name="Path 130650" d="M17.779,10.653H13.329V8.023A2.025,2.025,0,0,0,11.306,6H4.023A2.025,2.025,0,0,0,2,8.023v4.855A2.025,2.025,0,0,0,4.023,14.9v.846a.809.809,0,0,0,1.383.569.361.361,0,0,0,.04-.046L6.453,14.9H8.474v2.63A2.025,2.025,0,0,0,10.5,19.554h4.485L16.4,20.97a.809.809,0,0,0,1.381-.572v-.844A2.025,2.025,0,0,0,19.8,17.531V12.676a2.025,2.025,0,0,0-2.023-2.023ZM6.248,14.092a.4.4,0,0,0-.324.165L4.832,15.737V14.5a.4.4,0,0,0-.4-.4h-.4a1.214,1.214,0,0,1-1.214-1.214V8.023A1.214,1.214,0,0,1,4.023,6.809h7.283A1.214,1.214,0,0,1,12.52,8.023v2.63H10.5a2.006,2.006,0,0,0-1.194.4L8.033,8.26a.4.4,0,0,0-.736,0L5.273,12.71a.4.4,0,0,0,.2.536.4.4,0,0,0,.166.037.4.4,0,0,0,.368-.237l.628-1.381H8.692l.029.063a2,2,0,0,0-.247.949v1.416Zm2.076-3.237H7.005l.659-1.45Zm10.669,6.676a1.214,1.214,0,0,1-1.214,1.214h-.4a.4.4,0,0,0-.4.4V20.4l-1.535-1.535a.4.4,0,0,0-.286-.119H10.5a1.214,1.214,0,0,1-1.214-1.214V12.676A1.214,1.214,0,0,1,10.5,11.462h7.283a1.214,1.214,0,0,1,1.214,1.214Z" transform="translate(-2 -6)" fill="#fcc860"/>
      <path id="Path_130651" data-name="Path 130651" d="M30.451,23.214H28.832V22.4a.4.4,0,0,0-.809,0v.809H26.4a.4.4,0,0,0,0,.809h3a2.816,2.816,0,0,1-.982,1.759,2.822,2.822,0,0,1-.738-.95.4.4,0,1,0-.731.347,3.586,3.586,0,0,0,.759,1.041,2.884,2.884,0,0,1-1.137.231.392.392,0,0,0-.39.4.417.417,0,0,0,.419.4,3.614,3.614,0,0,0,1.829-.5,3.693,3.693,0,0,0,1.841.5.392.392,0,0,0,.39-.4.417.417,0,0,0-.419-.4,2.812,2.812,0,0,1-1.1-.229,3.629,3.629,0,0,0,1.077-2.2h.226a.4.4,0,0,0,0-.809Z" transform="translate(-16.29 -15.526)" fill="#fcc860"/>
    </g>
  </g>
</svg>
