<svg xmlns="http://www.w3.org/2000/svg" width="15" height="14.656" viewBox="0 0 15 14.656">
  <g id="customer-support" transform="translate(-0.643 -1.361)">
    <path id="Path_36" data-name="Path 36" d="M14.722,7.709a6.583,6.583,0,0,0-13.158,0A1.548,1.548,0,0,0,.643,9.123V10.86A1.549,1.549,0,0,0,2.19,12.407a1,1,0,0,0,1-1V8.577a1,1,0,0,0-.9-.991A5.865,5.865,0,0,1,14,7.586a1,1,0,0,0-.9.991v2.829a1,1,0,0,0,.915.992v.715a1.462,1.462,0,0,1-1.46,1.46H11.469a1.075,1.075,0,0,0-1.021-.727H9.334a1.07,1.07,0,0,0-.454.1,1.088,1.088,0,0,0-.631.986,1.087,1.087,0,0,0,1.086,1.086h1.115a1.09,1.09,0,0,0,1.021-.727H12.55a2.18,2.18,0,0,0,2.178-2.178V12.27a1.548,1.548,0,0,0,.915-1.411V9.123a1.548,1.548,0,0,0-.921-1.413ZM2.473,8.577v2.829a.284.284,0,0,1-.283.283.83.83,0,0,1-.829-.829V9.123a.83.83,0,0,1,.829-.829A.284.284,0,0,1,2.473,8.577Zm8.335,6.432a.37.37,0,0,1-.36.292H9.333a.368.368,0,0,1-.153-.7.357.357,0,0,1,.153-.033h1.115a.37.37,0,0,1,.36.444Zm4.117-4.149a.83.83,0,0,1-.829.829.284.284,0,0,1-.283-.283V8.577a.284.284,0,0,1,.283-.283.83.83,0,0,1,.829.829Z" transform="translate(0 0)" fill="#11004a"/>
    <path id="Path_37" data-name="Path 37" d="M22.883,22.812a1.711,1.711,0,0,0,1.714-1.7V17.634a1.689,1.689,0,0,0-.5-1.2,1.707,1.707,0,0,0-1.211-.5H17.645a1.711,1.711,0,0,0-1.714,1.7v3.473a1.711,1.711,0,0,0,1.714,1.7h.032v.9a.834.834,0,0,0,.524.776.849.849,0,0,0,.315.061.825.825,0,0,0,.592-.249l1.505-1.489Zm-2.721-.688-1.629,1.612a.02.02,0,0,1-.028.006.027.027,0,0,1-.019-.03v-1.3a.4.4,0,0,0-.4-.4h-.437a.9.9,0,0,1-.9-.9V17.634a.9.9,0,0,1,.9-.9h5.238a.9.9,0,0,1,.639.264.891.891,0,0,1,.266.636v3.473a.9.9,0,0,1-.9.9H20.447A.406.406,0,0,0,20.162,22.124Z" transform="translate(-12.121 -11.55)" fill="#11004a"/>
    <path id="Path_38" data-name="Path 38" d="M22.958,26.787a.458.458,0,1,0,.459.458A.459.459,0,0,0,22.958,26.787Z" transform="translate(-16.576 -19.281)" fill="#11004a"/>
    <path id="Path_39" data-name="Path 39" d="M30.244,26.787a.458.458,0,1,0,.459.458A.459.459,0,0,0,30.244,26.787Z" transform="translate(-22.102 -19.281)" fill="#11004a"/>
    <path id="Path_40" data-name="Path 40" d="M37.53,26.787a.458.458,0,1,0,.459.458A.459.459,0,0,0,37.53,26.787Z" transform="translate(-27.627 -19.281)" fill="#11004a"/>
  </g>
</svg>
