<svg xmlns="http://www.w3.org/2000/svg" xmlns:xlink="http://www.w3.org/1999/xlink" width="214" height="124.985" viewBox="0 0 214 124.985">
  <defs>
    <clipPath id="clip-path">
      <rect id="Rectangle_38437" data-name="Rectangle 38437" width="214" height="110.085" fill="none"/>
    </clipPath>
    <clipPath id="clip-path-4">
      <rect id="Rectangle_38434" data-name="Rectangle 38434" width="121.449" height="124.985" fill="none"/>
    </clipPath>
  </defs>
  <g id="Group_23812" data-name="Group 23812" transform="translate(-975 -1014.453)">
    <g id="Group_23677" data-name="Group 23677" transform="translate(975 1025.562)">
      <g id="Group_23676" data-name="Group 23676" clip-path="url(#clip-path)">
        <g id="Group_23675" data-name="Group 23675" transform="translate(0 0)">
          <g id="Group_23674" data-name="Group 23674" clip-path="url(#clip-path)">
            <g id="Group_23673" data-name="Group 23673" transform="translate(0 0)" opacity="0.5">
              <g id="Group_23672" data-name="Group 23672">
                <g id="Group_23671" data-name="Group 23671" clip-path="url(#clip-path)">
                  <path id="Path_130165" data-name="Path 130165" d="M214,40.517a9.783,9.783,0,0,1-1.621,5.412q-.148.222-.305.437v0a10.154,10.154,0,0,1-1.633,1.724c-.053.043-.107.087-.162.13s-.108.085-.163.126-.111.083-.167.124-.113.081-.169.12-.115.079-.172.117c-.011.009-.024.017-.036.025l-.123.079c-.082.052-.163.1-.247.152l-.123.074-.016.009-.167.093-.1.054-.051.027-.084.044-.136.069h0l-.138.067-.078.036-.059.028c-.034.016-.068.031-.1.045l-.151.066c-.078.034-.158.066-.238.1l-.019.008-.178.067-.063.023-.044.015c-.114.041-.23.08-.346.115l-.178.053-.112.032c-.09.026-.181.05-.272.072-.053.013-.107.027-.16.038l-.083.019-.047.011-.106.021c-.106.023-.214.043-.322.06l-.126.021c-.143.023-.287.042-.431.058l-.217.022h0l-.218.017c-.146.01-.294.017-.442.02-.075,0-.147,0-.223,0H174.492l-.1,0h-.033l-.042,0c-.128.005-.255.014-.381.028l-.088.01-.139.018-.167.025-.022,0-.014,0H173.5l-.081.015c-.045.008-.09.016-.134.026s-.069.014-.1.022c-.06.013-.121.028-.18.043l-.062.016a.285.285,0,0,0-.039.011c-.032.007-.063.016-.095.026-.11.031-.218.065-.326.1-.048.016-.095.033-.142.051a.013.013,0,0,0-.008,0l-.026.011c-.04.013-.079.029-.118.044l-.094.037-.039.017-.07.03-.1.042-.064.03-.081.038-.06.028-.085.044c-.049.024-.1.049-.143.075l-.141.079-.038.021c-.034.02-.067.039-.1.06s-.081.049-.121.075l-.043.028-.057.037c-.061.04-.122.081-.181.123h0l-.082.061c-.036.027-.073.053-.109.082s-.044.033-.064.05c-.084.066-.166.134-.247.2l-.063.055-.02.017-.037.035-.024.022-.061.056c-.05.046-.1.093-.146.142h0c-.049.048-.1.1-.142.147s-.106.114-.158.173c-.028.032-.057.064-.083.1l-.059.071c-.122.148-.237.3-.345.46l-.053.079c-.035.052-.07.106-.1.16a6.635,6.635,0,0,0-.362.662c-.014.029-.028.058-.042.087s-.038.086-.057.13-.044.1-.064.153-.043.106-.063.159c-.009.023-.018.046-.026.07s-.025.067-.035.1c-.017.049-.034.1-.049.148v0q-.02.061-.037.125c-.016.051-.03.1-.043.151-.005.019-.011.036-.015.055s-.01.036-.014.056c-.012.047-.023.093-.034.14s-.02.094-.03.142c0,.018-.008.036-.011.054a6.655,6.655,0,0,0-.115.946c-.008.114-.01.229-.01.344a6.623,6.623,0,0,0,.035.68c.005.057.011.113.019.169s.013.112.023.166.02.123.031.185c.005.034.012.067.02.1,0,.014.005.028.009.043l.008.041c.008.04.017.08.027.121.015.064.03.127.047.19.01.044.022.087.035.13s.03.106.046.158c.031.1.066.207.1.309.018.051.037.1.058.153s.041.1.062.15.044.1.066.149l.019.043c.039.084.079.167.121.249s.1.189.154.282h0c.053.092.109.184.167.274.029.045.059.089.089.134.06.089.122.176.186.261,0,0,0,0,0,0,.057.075.114.147.171.218q.064.079.13.154c.035.041.07.08.106.12l.015.018q.037.043.077.083l.017.017.016.017c.061.067.126.131.193.193l.017.016.023.023c.023.023.047.044.071.065.047.044.094.086.143.128s.1.082.143.121.068.057.1.083c.093.073.188.144.286.212.034.024.067.048.1.071l.1.064.037.023.068.043c.023.015.045.029.068.043.046.029.091.056.139.082.075.043.149.084.225.124l.039.02c.051.027.1.052.154.077l.156.074c.05.024.1.044.149.065s.1.042.15.061.076.031.114.044l.038.013.068.025q.2.069.4.127l.033.01.126.034c.053.014.106.028.161.039s.081.02.122.027l.122.024.083.016c.048.01.093.017.14.024l.024,0c.085.012.17.024.256.033l.087.011c.053.006.1.012.157.013h.006c.056.006.111.01.167.012s.085,0,.128,0h.043l.044,0,.128,0h20.411l.131,0c.087,0,.174.007.26.013s.159.011.238.018h.015l.014,0,.189.02.094.011.013,0,.08.011.026,0,.159.025.031.005.079.013c.109.02.218.042.326.067.083.019.164.038.245.059l.079.02c.027.006.053.013.079.021l.131.039.042.012q.316.094.619.215l.183.075.046.019.047.02.021.01c.083.036.165.074.246.114.059.028.118.058.177.088.116.06.233.122.345.187.036.02.071.041.106.063a.074.074,0,0,1,.018.011c.076.045.153.092.227.141.05.032.1.064.147.1l.108.074.044.032c.046.033.092.066.138.1l.054.041c.018.012.036.026.053.041.044.034.088.068.131.1.016.012.033.025.049.039l.126.1c.053.045.107.091.159.139s.1.09.148.136.1.091.145.139l.048.047c.027.026.052.051.077.078l.076.08c.074.076.145.154.214.233l.068.079a.213.213,0,0,1,.023.027l.051.06q.246.3.464.616c.035.05.069.1.1.153s.074.115.109.173l.05.083c.018.027.034.055.05.083.032.055.063.109.094.165l0,.006.048.09c.03.055.059.11.086.166s.044.087.066.131c0,0,0,0,0,0,.022.044.043.09.063.135s.041.09.06.135c.041.09.079.182.115.275.048.123.093.249.137.375.013.037.026.075.037.114s.015.049.023.074.02.065.029.1.019.064.027.1.023.083.035.124.021.08.031.121c.023.09.043.181.063.272.011.053.022.108.033.162.007.035.013.069.02.1a0,0,0,0,1,0,0l.016.1c.01.054.019.108.026.163s.013.091.019.138a.022.022,0,0,1,0,.007q.007.045.011.091c0,.04.009.081.012.121,0,.022,0,.044.007.066s0,.049.006.073,0,.034,0,.051,0,.026,0,.039c0,.05.007.1.01.151s0,.084.005.126,0,.054,0,.081,0,.055,0,.083c0,.05,0,.1,0,.149s0,.1,0,.146c0,.028,0,.055,0,.083s0,.081,0,.121c0,.021,0,.042,0,.063v.006c0,.019,0,.037,0,.056s0,.062-.005.093,0,.062-.008.093,0,.057-.006.085,0,.057-.008.085,0,.047-.007.071c-.005.052-.012.1-.019.155s-.012.091-.02.138c0,.03-.009.059-.014.09-.007.051-.016.1-.025.154s-.018.094-.027.14-.017.087-.027.13-.02.1-.032.146-.025.1-.038.157-.024.092-.037.138c-.006.025-.013.051-.021.075-.022.077-.044.154-.068.229-.011.038-.023.075-.036.113s-.026.075-.039.113c-.024.071-.05.14-.076.21-.012.034-.026.067-.039.1s-.027.067-.041.1c-.028.067-.056.133-.085.2-.013.03-.026.059-.04.089-.054.12-.112.239-.173.355-.035.067-.072.136-.109.2l-.053.1c-.019.032-.037.065-.057.1-.039.068-.08.134-.123.2-.01.017-.021.035-.032.051l-.065.1,0,0c-.037.056-.075.112-.113.166a8.026,8.026,0,0,1-.5.638l-.059.068c-.021.026-.044.051-.068.077s-.046.051-.07.077c-.051.058-.106.114-.16.169l-.086.087c-.028.029-.058.058-.087.085s-.059.057-.089.084-.059.055-.09.083c-.048.044-.1.087-.146.13-.029.025-.058.051-.089.075s-.059.05-.089.073l-.058.048c-.075.061-.153.121-.23.178s-.179.131-.272.194q-.181.125-.369.24l-.169.1-.089.05-.041.022c-.043.024-.086.048-.13.07s-.1.054-.157.081l-.016.008-.018.008c-.059.03-.12.059-.18.087-.2.092-.4.177-.605.252l-.067.024q-.108.04-.218.074c-.035.012-.072.023-.108.035l-.1.029c-.037.011-.075.023-.113.033-.054.016-.108.03-.162.044a.054.054,0,0,1-.016,0c-.13.033-.26.063-.392.091l-.2.038-.176.029-.024,0-.153.021-.146.019h0c-.108.012-.217.023-.327.031-.064.005-.128.01-.193.012h-.038l-.045,0-.122,0c-.069,0-.139,0-.209,0H178.281l-.152,0c-.056,0-.112,0-.167.007-.095.006-.19.015-.283.025l-.147.019-.049.006-.1.016-.073.013c-.025,0-.049.009-.073.014l-.072.015c-.125.027-.249.058-.37.094-.046.013-.092.028-.138.043l-.032.01-.15.052-.01,0-.157.061-.02.007-.071.03-.1.043c-.078.035-.154.071-.229.11l-.039.02-.147.081c-.038.021-.076.043-.114.067-.058.034-.115.069-.17.106s-.1.068-.153.1l-.046.034a5.2,5.2,0,0,0-.649.551c-.037.037-.074.075-.109.113-.017.017-.032.034-.047.051s-.028.03-.041.045-.041.044-.06.067l-.018.02c-.015.019-.031.038-.048.057l-.016.02c-.027.032-.053.065-.079.1s-.052.067-.077.1-.033.044-.049.067c-.05.068-.1.138-.143.208a5.121,5.121,0,0,0-.438.821c-.017.039-.033.078-.048.118s-.023.058-.033.086-.024.065-.036.1v0c-.011.03-.022.061-.032.093h0c-.015.044-.028.089-.042.133l-.008.025-.032.114q-.011.036-.019.072c0,.014-.008.029-.012.044s-.011.044-.015.065l0,.009q-.015.063-.027.125c-.01.043-.018.085-.025.128s-.013.078-.019.118-.011.07-.015.106-.006.051-.01.076-.005.042-.007.063,0,.043-.006.064l-.005.051c0,.012,0,.024,0,.036,0,.039-.006.077-.008.115,0,.012,0,.023,0,.036,0,.034,0,.068-.005.1v.024c0,.044,0,.09,0,.135,0,.062,0,.123,0,.185v.013c0,.025,0,.049,0,.072,0,.09.011.178.02.266,0,.005,0,.011,0,.016s0,.017,0,.026c0,.028.006.056.01.083,0,.012,0,.024.005.036s.005.044.009.067l.005.032c.019.124.042.246.069.367.007.033.014.065.023.1.025.1.052.2.083.3q.019.061.04.122c.035.107.075.213.119.317.013.033.028.066.042.1s.019.045.03.067.031.068.048.1.039.081.059.12.038.075.059.113c.053.1.108.192.168.285l.065.1c.019.028.037.057.057.084l.042.061c.025.036.05.069.076.1.051.067.1.135.157.2l.032.04.013.014c.011.014.024.028.036.042.033.04.067.078.1.117.05.054.1.106.154.159h0c.059.059.12.117.181.173l.1.09.089.075c.065.053.13.106.2.155s.136.1.2.146.142.092.214.136.145.087.219.126l.111.059c.038.02.076.038.115.056.076.036.154.072.233.1.039.018.079.034.118.049l.118.046c.04.016.081.03.122.043.081.027.163.053.246.076.042.012.083.024.125.034l.126.03h0c.043.011.083.02.127.028h0c.043.01.084.019.128.025.088.016.178.029.267.041l.1.011c.053.006.106.011.161.015s.088.008.132.008h0l.135.005h.067c.023,0,.046,0,.068,0H185.9c.14,0,.281,0,.421.011.03,0,.058,0,.086,0l.186.011c.047,0,.093.005.139.01l.031,0,.059.005.01,0c.073.007.146.014.219.023s.146.018.218.029c.149.02.295.044.439.071h.012a.147.147,0,0,1,.028.005.007.007,0,0,1,.006,0c.11.023.221.045.328.071l.139.031a.117.117,0,0,1,.026.005.073.073,0,0,1,.021.005l.023.006.071.02c.074.016.145.036.217.058s.16.044.239.068l.019.005.018.007.1.031.1.033.059.02.063.022.073.028c.04.013.078.028.118.043.09.032.178.067.265.1.042.018.084.035.125.053.137.057.272.117.4.184l.087.041c.1.05.2.1.3.156l.073.04c.03.017.059.034.088.051.072.039.143.081.215.122.041.024.083.05.123.076.1.064.209.13.311.2a.15.15,0,0,1,.023.013l.02.014.077.051.077.054c.04.028.08.057.118.084l.035.024.039.028.031.024.052.042c.087.066.176.134.26.206a1.607,1.607,0,0,1,.154.13,1.693,1.693,0,0,1,.138.117c.057.048.113.1.171.152.1.091.2.185.293.28l.123.126c.042.043.082.085.122.129s.1.112.152.167l.042.047c.053.06.107.122.158.185s.112.135.166.2l.053.069c.016.02.032.04.047.06s.018.021.026.033l.045.06c.044.059.089.12.131.18l0,0c.037.053.074.106.109.159.1.141.19.286.279.432.032.051.062.1.091.153l.029.051c.058.1.114.2.168.305.027.05.052.1.078.15.015.028.029.058.043.087.028.054.054.108.079.163.061.127.118.256.173.386l.037.091c.005.015.012.029.018.045q.1.253.19.513a.061.061,0,0,1,0,.012c.02.063.042.126.061.19.006.019.012.039.018.059.019.057.036.114.051.171.009.028.017.056.024.084.013.045.024.09.036.135,0,.012.006.024.009.036q.035.13.064.261c.018.075.034.148.049.224s.029.146.043.22c0,.012,0,.023.006.035q.02.114.037.229c.012.078.023.155.033.234a.228.228,0,0,1,0,.024c0,.017,0,.035.006.051.007.058.013.114.019.172a.044.044,0,0,0,0,.011c.006.065.012.13.018.2,0,.047.007.094.01.141s.007.115.01.174c0,.025,0,.05,0,.075,0,.054.005.108.006.163a.051.051,0,0,1,0,.012c0,.082,0,.163,0,.245v0c0,.084,0,.169,0,.253,0,.032,0,.063,0,.1s0,.077-.005.116l0,0v0h0c0,.012,0,.025,0,.036,0,.038,0,.075-.006.112a.007.007,0,0,1,0,0,.025.025,0,0,1,0,.009c0,.042-.005.084-.009.126,0,.017,0,.033,0,.05,0,.057-.01.113-.015.169v0l-.011.1c-.006.057-.012.113-.02.169l0,.005c0,.03-.009.061-.012.092s-.008.059-.012.09l-.008.052c-.013.093-.029.185-.046.277-.011.066-.024.131-.037.2,0,.016-.006.032-.01.047-.013.064-.027.126-.042.189s-.026.114-.041.17l-.035.13c-.006.03-.014.06-.022.091l-.027.091c-.01.035-.018.067-.027.1-.015.054-.031.108-.049.162s-.028.094-.044.14l0,.008-.011.029q-.072.222-.156.438-.016.045-.035.091c-.029.074-.06.147-.091.22s-.052.121-.08.181h0c-.031.072-.066.144-.1.216l-.08.161-.007.015c-.024.048-.05.1-.075.143-.007.014-.015.028-.023.043q-.032.061-.067.122c-.022.042-.046.083-.07.125-.012.022-.025.044-.039.067-.03.053-.061.107-.094.16s-.083.135-.125.2-.085.132-.13.2-.07.1-.106.156c-.011.014-.02.028-.027.039-.019.027-.039.051-.059.077s-.025.035-.038.051l-.045.061c-.024.033-.048.065-.074.1s-.06.079-.091.117-.048.061-.073.091l-.042.05c-.072.088-.145.175-.22.259l-.042.047-.017.019c-.039.044-.079.087-.119.13,0,0,0,0,0,0l-.021.023c-.117.126-.238.248-.361.367l-.073.068c-.031.03-.062.059-.093.087l-.093.084c-.028.027-.058.052-.087.077q-.274.241-.564.458c-.028.022-.058.044-.087.065l-.146.106-.175.121c-.071.048-.143.1-.216.142l-.183.114-.035.021-.052.031-.1.056c-.114.066-.228.129-.344.189l-.154.08-.043.022-.113.057-.215.1c-.073.033-.146.065-.219.1l-.157.065-.133.052-.173.066c-.08.03-.16.058-.24.086-.044.013-.088.028-.132.04q-.1.033-.2.061l-.071.02c-.028.009-.055.017-.083.024l-.083.022-.071.02c-.138.036-.278.07-.419.1h0l-.115.024-.02.005-.1.019a.029.029,0,0,1-.02,0l-.012,0-.115.02c-.141.025-.284.046-.428.065-.1.014-.21.025-.315.036-.013,0-.03,0-.05,0-.126.012-.254.019-.382.026-.036,0-.073,0-.11,0-.131.007-.264.01-.4.01H25.047c-.16,0-.32,0-.477-.012a.041.041,0,0,1-.018,0l-.125-.006-.085-.005c-.067,0-.133-.009-.2-.015-.036,0-.073-.005-.109-.01l-.1-.01c-.088-.008-.176-.019-.263-.03-.065-.008-.13-.017-.193-.027l-.01,0-.129-.02-.028,0c-.084-.013-.168-.028-.251-.044-.146-.028-.288-.058-.431-.091l-.154-.038-.036-.009-.085-.022-.205-.055c-.083-.024-.167-.049-.249-.075s-.165-.052-.248-.081-.143-.049-.214-.075l-.078-.028-.129-.049-.109-.044c-.072-.028-.143-.057-.213-.087q-.266-.113-.526-.242c-.129-.061-.256-.127-.381-.2q-.154-.085-.305-.173c-.12-.07-.238-.142-.354-.217-.194-.125-.385-.256-.571-.393-.049-.036-.1-.073-.146-.111-.066-.05-.13-.1-.2-.153l-.157-.129-.121-.1-.083-.071c-.091-.081-.181-.162-.27-.247l-.12-.115c-.05-.047-.1-.1-.146-.144-.019-.018-.037-.037-.055-.056l-.054-.056c-.065-.067-.13-.136-.193-.2s-.125-.139-.186-.21L17,106.378c-.022-.026-.044-.051-.065-.078l-.05-.059c-.056-.067-.11-.136-.165-.2l-.044-.056c-.026-.032-.051-.064-.074-.1l-.079-.106c-.091-.122-.177-.244-.262-.369-.041-.06-.081-.122-.12-.183-.029-.045-.059-.091-.087-.138l-.068-.112-.052-.088c-.012-.019-.023-.037-.034-.057l-.059-.1c-.028-.047-.055-.1-.081-.143s-.036-.068-.055-.1c-.059-.107-.114-.216-.167-.326-.021-.043-.043-.086-.062-.13s-.041-.086-.06-.13-.037-.082-.055-.122q-.055-.12-.1-.242c-.017-.038-.032-.077-.048-.116-.071-.178-.138-.359-.2-.542-.017-.046-.032-.092-.046-.139l-.011-.038c-.005-.016-.01-.032-.015-.047-.011-.036-.023-.072-.033-.108a.186.186,0,0,1-.009-.029c-.011-.037-.022-.075-.033-.113l-.037-.136c-.012-.046-.024-.091-.036-.138s-.019-.071-.027-.106a.235.235,0,0,1-.008-.035c-.008-.031-.015-.061-.022-.092s-.015-.069-.023-.1-.015-.068-.022-.1l-.021-.1c-.009-.043-.017-.084-.024-.127-.014-.074-.028-.151-.039-.226-.01-.056-.019-.113-.028-.17-.018-.118-.034-.236-.045-.355,0-.025-.006-.051-.01-.076s0-.03,0-.045c-.006-.054-.011-.109-.015-.164s-.011-.131-.015-.2c0-.034-.005-.067-.006-.1s-.005-.084-.006-.127-.005-.108-.006-.162c0-.019,0-.038,0-.058,0-.045,0-.091,0-.136s0-.091,0-.137V94.7c0-.023,0-.044,0-.067s0-.028,0-.042,0-.018,0-.027c0-.028,0-.056,0-.083s0-.066-.006-.1a.03.03,0,0,1,0-.009l0-.038c0-.049-.009-.1-.015-.143,0-.012,0-.023,0-.035,0-.036-.009-.071-.014-.106s-.011-.071-.018-.107c-.009-.051-.019-.1-.03-.15-.005-.027-.011-.053-.018-.08s-.013-.055-.02-.082l0-.012c-.014-.056-.029-.11-.046-.164-.006-.021-.013-.043-.02-.064s-.013-.042-.02-.063-.011-.033-.017-.05a.325.325,0,0,0-.011-.031c-.021-.059-.044-.117-.067-.175,0-.012-.01-.025-.015-.037s-.012-.026-.018-.039c-.013-.032-.027-.065-.043-.1s-.035-.074-.053-.111-.024-.048-.036-.071-.019-.038-.03-.057l-.032-.056a.326.326,0,0,0-.019-.035h0c-.012-.022-.025-.044-.038-.066s-.033-.055-.05-.082l-.044-.067q-.039-.06-.08-.117a.167.167,0,0,0-.018-.026c-.011-.017-.023-.034-.036-.051a.2.2,0,0,0-.017-.022l-.035-.047c-.031-.041-.064-.081-.1-.121l0-.005c-.019-.023-.038-.045-.058-.067l-.068-.077c-.016-.019-.035-.038-.053-.057l-.027-.027v0l0,0,0,0-.057-.058c-.019-.019-.038-.039-.058-.057l-.034-.034c-.068-.064-.139-.126-.212-.185-.027-.022-.052-.044-.08-.065l-.068-.052-.014-.009c-.052-.039-.106-.077-.16-.114l-.008-.006c-.038-.025-.076-.049-.115-.074s-.094-.06-.142-.088l-.108-.06-.078-.041c-.061-.031-.124-.061-.187-.09l-.067-.028-.027-.012-.04-.016-.059-.024a.04.04,0,0,0-.014-.005L11.71,90.7q-.049-.02-.1-.037l-.112-.038c-.028-.01-.058-.019-.086-.027-.084-.026-.17-.049-.257-.068l-.1-.022-.006,0h-.007l-.117-.022-.115-.019-.031,0c-.072-.01-.146-.016-.219-.023l-.152-.01-.092,0-.122,0a3.807,3.807,0,0,1-3.8-3.8V83.748a.228.228,0,0,1,0-.025.235.235,0,0,1,0-.025c0-.048,0-.1,0-.143a.073.073,0,0,1,0-.014c0-.039,0-.079.008-.118,0-.015,0-.029,0-.044s.006-.059.01-.088c.009-.07.019-.139.031-.209.006-.034.012-.068.019-.1q.029-.14.067-.274c.008-.03.017-.06.027-.09.019-.059.039-.119.06-.177s.044-.116.068-.173.05-.113.076-.169.048-.1.073-.144.049-.088.074-.131.059-.1.091-.146.06-.089.091-.132.054-.076.083-.112l.049-.063.051-.062c.02-.024.041-.049.063-.073l.044-.048c.013-.015.027-.03.041-.044L7.46,81.1c.028-.029.055-.057.084-.085s.059-.056.088-.083.069-.061.1-.092.069-.057.1-.084l.109-.083c.036-.027.074-.052.111-.077s.063-.043.1-.063l.13-.079.031-.018.058-.032c.074-.04.149-.078.225-.113.031-.015.064-.029.1-.043.089-.038.18-.073.272-.1l.143-.045.074-.02q.074-.021.149-.037l.133-.028c.034-.007.067-.012.1-.018l.145-.021.157-.016c.1-.008.209-.012.316-.012H20.711c.07,0,.14,0,.209,0h.014l.194-.008c.062,0,.123-.006.185-.012.038,0,.076-.005.114-.01.053,0,.106-.009.158-.015s.107-.011.161-.019.1-.012.151-.02l.034-.005c.071-.011.141-.022.211-.035l.13-.025.077-.015.035-.006c.05-.012.1-.021.15-.034l.032-.007c.059-.013.117-.027.177-.044s.091-.023.135-.036l.059-.017.038-.011c.115-.032.23-.068.343-.106.063-.021.126-.044.188-.067.089-.032.177-.067.264-.1.036-.013.07-.028.1-.043l.091-.041c.1-.043.2-.088.3-.137l.061-.029.065-.034c.02-.009.042-.02.062-.031l.085-.044.051-.027c.058-.031.114-.063.171-.1s.113-.066.169-.1.112-.068.167-.1c.11-.069.218-.143.324-.219h0l.157-.115.019-.013c.038-.029.078-.058.116-.09.021-.016.042-.033.062-.05.088-.069.174-.141.259-.215l.019-.015c.037-.031.073-.063.108-.1l.02-.019.029-.027c.033-.028.065-.059.1-.09l.07-.067c.029-.028.058-.055.086-.084h0q.208-.206.4-.429a8.09,8.09,0,0,0,1.984-5.32c0-.039,0-.078,0-.116s0-.076,0-.114c0-.014,0-.028,0-.043a.194.194,0,0,0,0-.032l0-.043c0-.034,0-.067-.005-.1s0-.043,0-.064a.01.01,0,0,0,0-.007l-.005-.062c0-.03,0-.06-.006-.091s0-.048-.006-.072,0-.04-.006-.06-.005-.064-.009-.095a.169.169,0,0,0,0-.022c0-.029-.007-.059-.012-.088l-.005-.048c-.012-.1-.028-.208-.046-.311-.006-.036-.013-.074-.02-.111-.019-.1-.04-.207-.063-.309l0-.013c-.011-.045-.021-.091-.033-.136-.029-.123-.062-.246-.1-.367-.012-.042-.025-.083-.038-.125s-.027-.087-.043-.131c0-.014-.008-.028-.012-.042s-.016-.047-.025-.07-.015-.045-.023-.067-.015-.038-.022-.057-.016-.046-.025-.069-.021-.058-.033-.086-.027-.069-.041-.1l-.029-.071c-.02-.046-.039-.091-.059-.137l-.027-.061c-.009-.021-.019-.042-.028-.062-.04-.089-.083-.178-.127-.265s-.078-.154-.12-.23-.067-.122-.1-.181-.054-.094-.083-.14a.4.4,0,0,0-.023-.037c-.014-.024-.029-.049-.044-.072-.042-.067-.084-.135-.13-.2a.42.42,0,0,0-.024-.036c-.032-.047-.065-.093-.1-.14s-.069-.1-.1-.144l-.061-.082c-.011-.016-.024-.032-.037-.048l-.069-.088a.475.475,0,0,0-.037-.048c-.042-.053-.085-.106-.13-.157l-.093-.107-.008-.01c-.008-.011-.018-.021-.028-.033a.11.11,0,0,0-.014-.015l-.065-.072c-.026-.028-.052-.058-.08-.086l-.059-.061c-.1-.1-.2-.2-.3-.3-.062-.059-.126-.117-.19-.172-.037-.033-.076-.064-.113-.1-.065-.056-.13-.111-.2-.163s-.146-.115-.22-.17-.138-.1-.209-.149l-.142-.1-.048-.032-.024-.015h0q-.108-.071-.217-.137c-.049-.03-.1-.059-.147-.087-.114-.065-.229-.128-.345-.187L24.28,64.5l-.067-.032c-.067-.033-.134-.064-.2-.093s-.109-.049-.164-.072c-.094-.039-.188-.076-.283-.112-.04-.015-.079-.03-.119-.044l-.083-.029-.071-.023q-.109-.037-.218-.069c-.06-.019-.121-.036-.182-.053l-.008,0a.145.145,0,0,0-.032-.009l-.011,0c-.07-.02-.14-.038-.211-.054l-.108-.026-.109-.024c-.068-.014-.136-.027-.2-.039l-.089-.016-.135-.023-.121-.018-.2-.026-.2-.021h0l-.106-.009c-.1-.008-.192-.014-.289-.018-.033,0-.067,0-.1,0h-.007l-.128,0H6.665a6.649,6.649,0,0,1-1.824-.253l-.157-.047c-.1-.032-.208-.067-.31-.1a6.688,6.688,0,0,1-.886-.4c-.189-.1-.372-.214-.549-.334l-.132-.091a6.706,6.706,0,0,1-.855-.722h0q-.113-.113-.221-.232c-.072-.079-.141-.159-.209-.241a6.658,6.658,0,0,1-.473-.648c-.058-.09-.113-.181-.166-.273a6.687,6.687,0,0,1-.848-4c.011-.106.024-.209.04-.313,0-.016,0-.032.007-.048.015-.1.034-.2.054-.3s.041-.19.065-.283q.009-.041.021-.083c.038-.146.081-.288.13-.43a6.658,6.658,0,0,1,1.6-2.575h0a6.648,6.648,0,0,1,4.709-1.949h9.98a8,8,0,0,0,8-8,11.661,11.661,0,0,1,11.66-11.66H73.655a6.757,6.757,0,0,0,4.126-1.4,6.574,6.574,0,0,0,.669-.586,6.781,6.781,0,0,0-4.8-11.574H60.041A8.562,8.562,0,0,1,60.041,0H161.913c.072,0,.139,0,.211.005a6.065,6.065,0,0,1,5.86,6.065v7.739a3.312,3.312,0,0,0,3.315,3.313,4.9,4.9,0,0,1,4.9,4.9,8.657,8.657,0,0,0,8.363,8.653c.1,0,.2.005.295.005h19.309A9.832,9.832,0,0,1,214,40.517" transform="translate(0 -0.002)" fill="#d8e9ff"/>
                </g>
              </g>
            </g>
            <path id="Path_130166" data-name="Path 130166" d="M208.12,436.063h2.32a9.805,9.805,0,0,1-6.271,2.257H174.627a6.665,6.665,0,0,0,0,13.329h20.279a8.134,8.134,0,0,1,0,16.268H178.281a5.239,5.239,0,1,0,0,10.478h7.624a9.832,9.832,0,0,1,0,19.664H25.047a10.583,10.583,0,0,1-10.582-10.582v-4.806a4.271,4.271,0,0,0-4.275-4.275,3.806,3.806,0,0,1-3.805-3.805v-2.87a3.8,3.8,0,0,1,3.805-3.8H20.711a8.134,8.134,0,0,0,0-16.268H6.665a6.664,6.664,0,0,1-4.71-11.38v1.641H5.579V439.75l4.272.019v-3.505h.861v-.693h.113v.693h3.3v0h.66v-.7H14.9v.7h.795v6.967h5.089V445.8h2.826v-1.49h2.623V438.4h1.309V435.64h.2V438.4h3.134v-5.169h.308V438.4h2.073v-.071h0v-.657h0v-.621h0v-1.034h0v-.657h0v-1.034h0v-.66h0v-1.034h0v-.712h0v-1.034h0v-.907h0v-1.034h0v-.685h.619v-.773h.1v.773h4.578v-.773h.1v.773h.836v5.405l.588,0v0h-.006v-1.034h.006v-.712h-.006v-1.034h.006v-.709h-.006V429.14h.006v0h5.551v0h.954l.148.082v6.893h1.023v-1H59.464v7.745h3.58V428.541h.778v-1h.14v1h2.824v-1h.14v1h4v-1h.14v1h2.518v-1h.137v1h1.037v13.37h3.954V439.75l4.663.019v-3.505h.94v-.693h.124v.693h3.6v0h.72v-.7h.124v.7h.869v6.967h5.551V445.8h3.088v-1.49h2.862V438.4h1.43V435.64h.214V438.4h3.423v-5.169h.335V438.4h3.907v-9.125H121.3v7.745h3.28V422.693h.712v-1h.126v1h2.59v-1h.129v1H131.8v-1h.129v1h2.307v-1h.126v1h.949v13.37h3.624V433.9l4.273.019v-3.505h.861v-.693h.113v.693h3.3v0h.66v-.7h.113v.7h.8v6.967h5.086v2.565h2.829v-1.49h2.623v-5.911H160.9v-2.758h.2v2.758h3.134V427.38h.308v5.169h2.076v-.071h0v-.657h0V431.2h0v-1.034h0v-.657h0v-1.034h0v-.66h0v-1.034h0v-.712h0v-1.034h0v-.907h0v-1.034h0v-.685h.616v-.773h.1v.773h4.581v-.773h.1v.773h.836v5.405l.588,0v0h-.006v-1.034h.006v-.712h-.006v-1.034h.006v-.709h-.006v-1.034h.006v0h5.551v0h.954l.148.082v6.89h1.023v-.993h11.718v7.745H196.4V422.693h.778v-1h.14v1h2.826v-1h.137v1h4v-1h.14v1h2.518v-1h.137v1h1.037Z" transform="translate(0 -387.975)" fill="#dceafb"/>
            <path id="Path_130167" data-name="Path 130167" d="M2656.627,575.262q-.148.223-.305.437v-.437Z" transform="translate(-2444.249 -529.335)" fill="#dceafb"/>
          </g>
        </g>
      </g>
    </g>
    <g id="Group_23670" data-name="Group 23670" transform="translate(366 565.293)">
      <g id="Group_23669" data-name="Group 23669" transform="translate(655 449.16)">
        <g id="Group_23668" data-name="Group 23668" clip-path="url(#clip-path-4)">
          <path id="Path_130088" data-name="Path 130088" d="M155.136,817.537c1.393-.068,2.794-.041,4.189-.046,2.428-.01,4.806-.317,6.768,1.439,1.163,1.041,1.195,2.467,1.635,2.872.02,2.023-.117,3.64-1.624,5.169a4.915,4.915,0,0,1-2.142,1.238l.072.009a42.4,42.4,0,0,0,5.013,0l9.234-.011c.958,0,2.975-.117,3.815.008a.691.691,0,0,1,.415.195.574.574,0,0,1,.116.474.758.758,0,0,1-.289.44c-.8.265-5.812.074-7,.073l-14.06-.007-46.215.011q-13.635.076-27.27-.011a37.776,37.776,0,0,1-4.981-.075.507.507,0,0,1-.292-.355.592.592,0,0,1,.087-.452.888.888,0,0,1,.532-.23,12.15,12.15,0,0,1,1.536-.009l3,.009c3.946.01,7.916.122,11.859,0,.4,0,.81.016,1.213,0q4.536,0,9.072.061c-.039-.564-.2-1.834.158-2.282a.758.758,0,0,1,.493-.242c.526-.075,2.065.018,2.739,0l24.14.006,7.3,0c1.17,0,2.393-.078,3.558.01a6.258,6.258,0,0,1,.362-1.9c1.115-1.377,1.015-4.2,1.21-5.948l3.044,0a12.3,12.3,0,0,1,1.866.048l.332-.048c.14-.14.1-.242.114-.433" transform="translate(-71.104 -704.478)" fill="#fefefe"/>
          <path id="Path_130089" data-name="Path 130089" d="M283.078,877.636l24.14.006,7.3,0c1.17,0,2.393-.078,3.558.01.517.014,2.531-.119,2.805.143.421.4.2,1.77.219,2.323-1.681.11-3.411.032-5.1.031l-9.292,0-27.021.02c-.039-.564-.2-1.834.158-2.282a.758.758,0,0,1,.493-.242c.526-.075,2.065.018,2.739,0" transform="translate(-240.97 -756.307)" fill="#3b3f51"/>
          <path id="Path_130090" data-name="Path 130090" d="M564.782,817.537c1.393-.068,2.794-.041,4.189-.046,2.428-.01,4.806-.317,6.768,1.439,1.163,1.041,1.195,2.467,1.635,2.872.02,2.023-.117,3.64-1.624,5.169a4.916,4.916,0,0,1-2.142,1.238l-.814.007c-1.213.121-2.474.05-3.695.048-2.734,0-5.489-.075-8.221.022-.014-.554.2-1.922-.219-2.323-.274-.261-2.288-.129-2.805-.143a6.257,6.257,0,0,1,.362-1.9c1.115-1.377,1.015-4.2,1.21-5.948l3.044,0a12.3,12.3,0,0,1,1.866.048l.332-.048c.14-.14.1-.242.114-.433" transform="translate(-480.75 -704.478)" fill="#fefefe"/>
          <path id="Path_130091" data-name="Path 130091" d="M605.2,817.537c1.393-.068,2.794-.041,4.189-.046,2.428-.01,4.806-.317,6.768,1.439,1.163,1.041,1.195,2.467,1.635,2.872.019,2.023-.117,3.64-1.624,5.169a4.915,4.915,0,0,1-2.142,1.238l-.814.007a6.431,6.431,0,0,0,1.776-.86,4.6,4.6,0,0,0,1.832-3.119,5.434,5.434,0,0,0-.936-3.984c-1.582-2.061-3.577-2.151-5.957-2.181q-1.675-.019-3.351-.015a12.406,12.406,0,0,1-1.713-.022l-.108-.017.332-.048c.14-.14.1-.242.114-.433" transform="translate(-521.164 -704.478)" fill="#fefefe"/>
          <path id="Path_130092" data-name="Path 130092" d="M716.4,280.387a16.552,16.552,0,0,1,1.613,4.629q.242.877.459,1.761t.408,1.773q.191.89.356,1.785t.3,1.794q.139.9.253,1.8t.2,1.809q.087.906.148,1.814t.1,1.817q.034.909.043,1.819t-.01,1.82q-.018.91-.063,1.819t-.115,1.816q-.071.907-.168,1.812t-.22,1.806q-.123.9-.272,1.8t-.325,1.791a61.317,61.317,0,0,1-10.858,23.822,68.351,68.351,0,0,1-6.872,7.625c-1.13,1.093-2.294,2.128-3.485,3.152a17.789,17.789,0,0,1-1.815,1.48,2.9,2.9,0,0,1-.419.234,66.761,66.761,0,0,0-.781-10.364,12.954,12.954,0,0,0,1.925-1.786,54.8,54.8,0,0,0,9.087-12.537c.716-1.324,3.845-8.573,3.523-9.652a11.856,11.856,0,0,0,2.348-1.821,8.227,8.227,0,0,0,2.328-5.983,8.319,8.319,0,0,0-2.118-5.438,5.079,5.079,0,0,0,.1-1.716q.011-1.581-.085-3.159t-.3-3.146q-.2-1.568-.513-3.118t-.724-3.076c3.147-2.5,4.527-4.152,5.95-7.985" transform="translate(-598.835 -241.633)" fill="#d1e2f1"/>
          <path id="Path_130093" data-name="Path 130093" d="M524.313,550.184a51.7,51.7,0,0,1,4.325,4.273,37.177,37.177,0,0,1,6.586,12.825,32.641,32.641,0,0,1,1.233,5.028,66.763,66.763,0,0,1,.781,10.364c-.089,2.93-.065,5.86-.2,8.789-.441-.4-.473-1.831-1.635-2.872-1.961-1.756-4.34-1.448-6.767-1.439-1.395.005-2.8-.022-4.189.046-.011.19.025.292-.114.432l-.332.048a12.273,12.273,0,0,0-1.866-.049l-3.044,0,1.1-11.1c.193-1.788.642-4.032.648-5.762a2.248,2.248,0,0,0-.655-1.633,1.6,1.6,0,0,0-.9-.356,18.715,18.715,0,0,0-2.719-.059l-5.524-.005a13.047,13.047,0,0,1,1.91-2.862l3.164-4.122c.557-.714,1.183-1.4,1.687-2.151-.893-.881-1.828-1.716-2.709-2.611,1.509-1.142,3.093-2.193,4.622-3.31a52.4,52.4,0,0,0,4.591-3.482" transform="translate(-440.413 -474.14)" fill="#fefefe"/>
          <path id="Path_130094" data-name="Path 130094" d="M515.1,578.687c1.509-1.142,3.093-2.193,4.622-3.31a21.661,21.661,0,0,1,4.494,8.495c1,3.872.563,8.614.456,12.6-.111,4.136-.237,8.3-.227,12.438-.011.19.025.292-.114.432l-.332.048a12.3,12.3,0,0,0-1.866-.049l-3.044,0,1.1-11.1c.193-1.788.642-4.032.648-5.762a2.248,2.248,0,0,0-.655-1.633,1.6,1.6,0,0,0-.9-.356,18.7,18.7,0,0,0-2.719-.06l-5.524-.005a13.045,13.045,0,0,1,1.91-2.862l3.164-4.122c.557-.714,1.183-1.4,1.687-2.151-.893-.881-1.828-1.716-2.709-2.611" transform="translate(-440.413 -495.851)" fill="#fefefe"/>
          <path id="Path_130095" data-name="Path 130095" d="M365.366,449.347q.027,1.07.01,2.14a7.174,7.174,0,0,0,.054,1.7c.928,1.1,2.012,2.061,2.973,3.132.628.7,1.128,1.507,1.751,2.2a1.052,1.052,0,0,1,.3-.581,34.832,34.832,0,0,1,3.281,1.791c2.123,1.144,4.3,2.215,6.4,3.392-.036.14-.008.089-.058.164a52.432,52.432,0,0,1-4.591,3.482c-1.529,1.117-3.113,2.168-4.622,3.31.881.895,1.816,1.73,2.709,2.611-.5.75-1.13,1.438-1.687,2.151l-3.164,4.122a13.044,13.044,0,0,0-1.91,2.862,42.613,42.613,0,0,1-4.807-.03,3.5,3.5,0,0,1-1.585.083c-2.2-.07-4.412.078-6.6-.045-.549-.039-1.109.028-1.661.012-.364-.928-.652-1.9-.975-2.85q-.967-2.854-1.977-5.694-2.718-7.517-5.524-15a6.3,6.3,0,0,0,1.255-1.155,4.577,4.577,0,0,1,.363-.432,17.514,17.514,0,0,1,2.813-3.513c.274-.262.663-.676,1.053-.68a8.942,8.942,0,0,0,.19-3.028,43.035,43.035,0,0,0,16.012-.141" transform="translate(-296.177 -387.24)" fill="#fefefe"/>
          <path id="Path_130096" data-name="Path 130096" d="M462.8,511.815c.979-1.127,5.282-8.512,5.807-8.66a.66.66,0,0,1-.02.505,15.085,15.085,0,0,1-.942,1.9c-.827,1.578-1.7,3.112-2.581,4.661-.508.9-.935,1.892-1.488,2.756a1.167,1.167,0,0,1-.341.394c-.765.1-1.584-.565-2.159-1-.418-.318-.834-.635-1.259-.942l.592-1.286a20.168,20.168,0,0,0,2.393,1.672" transform="translate(-396.264 -433.611)" fill="#a4b0c2"/>
          <path id="Path_130097" data-name="Path 130097" d="M345.3,502.615a22.3,22.3,0,0,1,1.949,2.908q1.122,1.835,2.168,3.713c.418.749.8,1.531,1.237,2.264.717-.453,2.053-1.438,2.755-1.753.221.419.445.83.695,1.232a14.688,14.688,0,0,1,.923,1.6c-.269,5.056-.906,10.1-1.207,15.154-.549-.039-1.109.028-1.661.012-.364-.928-.652-1.9-.975-2.85q-.967-2.854-1.977-5.694-2.718-7.517-5.524-15a6.3,6.3,0,0,0,1.255-1.155,4.577,4.577,0,0,1,.363-.432" transform="translate(-296.177 -433.146)" fill="#fefefe"/>
          <path id="Path_130098" data-name="Path 130098" d="M353.125,502.615a22.3,22.3,0,0,1,1.949,2.908q1.122,1.835,2.168,3.713c.418.749.8,1.531,1.237,2.264.717-.453,2.053-1.438,2.755-1.753.221.419.445.83.695,1.232a7.485,7.485,0,0,0-2.651,1.775,1.285,1.285,0,0,1-1,.338.951.951,0,0,1-.5-.446,21.922,21.922,0,0,1-1.314-2.451c-1.239-2.372-2.37-4.828-3.7-7.148a4.577,4.577,0,0,1,.363-.432" transform="translate(-304.005 -433.146)" fill="#a4b0c2"/>
          <path id="Path_130099" data-name="Path 130099" d="M392.994,449.347q.027,1.07.01,2.14a7.169,7.169,0,0,0,.054,1.7,2.667,2.667,0,0,1-.619.854c-1.354,1.367-2.939,2.556-4.413,3.8-1.146.963-2.222,2-3.414,2.91-.786-.625-1.534-1.3-2.306-1.944-2.214-1.846-4.4-3.7-6.567-5.6.274-.262.663-.676,1.053-.68a8.942,8.942,0,0,0,.19-3.028,43.034,43.034,0,0,0,16.012-.141" transform="translate(-323.805 -387.24)" fill="#f5c7a4"/>
          <path id="Path_130100" data-name="Path 130100" d="M399.561,449.347q.027,1.07.01,2.14c-2.922,1.483-9.591,1.215-12.946,1.207a17.033,17.033,0,0,1-3.13-.047.82.82,0,0,1-.135-.132,8.942,8.942,0,0,0,.19-3.028,43.035,43.035,0,0,0,16.012-.141" transform="translate(-330.373 -387.24)" fill="#e28a73"/>
          <path id="Path_130101" data-name="Path 130101" d="M484.416,512.075a1.052,1.052,0,0,1,.3-.581A34.808,34.808,0,0,1,488,513.285c2.123,1.144,4.3,2.215,6.4,3.392-.036.14-.008.089-.058.164a52.417,52.417,0,0,1-4.591,3.482c-1.529,1.117-3.113,2.168-4.622,3.31.881.895,1.816,1.73,2.709,2.611-.5.75-1.13,1.437-1.687,2.151l-3.164,4.122a13.047,13.047,0,0,0-1.91,2.862,42.627,42.627,0,0,1-4.807-.03c1.44-3.8,2.646-7.7,4-11.532,1.385-3.913,2.937-7.766,4.146-11.742" transform="translate(-410.44 -440.798)" fill="#fefefe"/>
          <path id="Path_130102" data-name="Path 130102" d="M195.694,511.97c.341-.135,1.053-.509,1.4-.386.087.032.119.189.142.271a.354.354,0,0,1,.006.055q2.806,7.485,5.524,15,1.01,2.839,1.977,5.694c.322.945.61,1.922.975,2.85l-10.6.014c-1.651,0-3.341.079-4.986-.013a2.234,2.234,0,0,0-1.732.514,1.841,1.841,0,0,0-.463,1.554c.041.993.215,1.995.355,2.978q.285,1.989.547,3.982.44,3.427.965,6.842c.151.991.245,2.047.484,3.019a43.8,43.8,0,0,0,.854,5.725,14.364,14.364,0,0,0,.706,2.111c-.674.02-2.213-.073-2.739,0a.757.757,0,0,0-.493.242c-.359.448-.2,1.718-.158,2.282q-4.536-.06-9.072-.061c-.4.018-.809.005-1.213,0q-.124-.034-.245-.076a6.754,6.754,0,0,1-3.671-3.58,4.756,4.756,0,0,1-.121-3.993,24.8,24.8,0,0,1-.059-3.125l0-5.648a43.955,43.955,0,0,1,.956-9.391c.345-1.365.571-2.745.964-4.1a37.591,37.591,0,0,1,7.836-14.433c1.089-1.209,2.3-2.243,3.444-3.388,1.569-1.758,6.208-3.962,8.419-4.941" transform="translate(-149.736 -440.854)" fill="#fefefe"/>
          <path id="Path_130103" data-name="Path 130103" d="M272.163,573.127c.565,0,4.545,3.215,5.366,3.774-.964.9-2.063,1.7-2.975,2.647a37.98,37.98,0,0,1,2.8,3.957q1.674,2.507,3.454,4.94c-1.049,0-9.805-.085-10.005.071a2.235,2.235,0,0,0-1.732.514,1.841,1.841,0,0,0-.463,1.554c.041.993.215,1.995.355,2.978q.285,1.989.547,3.982.44,3.427.965,6.842c.151.991.245,2.047.484,3.019-1.018-.031-2.042-.01-3.061-.012-.013-.463-.03-.922-.074-1.384.045-1.577-.073-3.2-.11-4.784q-.151-4.994-.237-9.989c-.039-1.757-.172-3.548-.081-5.3.245-4.725,2.231-8.9,4.764-12.806" transform="translate(-230.414 -493.912)" fill="#fefefe"/>
          <path id="Path_130104" data-name="Path 130104" d="M187.148,811.022c.044.462.061.921.074,1.384,1.019,0,2.043-.019,3.061.012a43.794,43.794,0,0,0,.854,5.725,14.355,14.355,0,0,0,.706,2.111c-.674.02-2.213-.073-2.739,0a.757.757,0,0,0-.493.242c-.359.448-.2,1.718-.158,2.282q-4.536-.06-9.072-.061c-.4.018-.809.005-1.213,0q-.124-.034-.245-.076a6.754,6.754,0,0,1-3.671-3.579,4.756,4.756,0,0,1-.121-3.993,13.634,13.634,0,0,1,1.227-1.57,5.841,5.841,0,0,1,2.8-1.317,21.614,21.614,0,0,1,4.128-.159l4.87.007a8.9,8.9,0,0,1,0-1.012" transform="translate(-149.736 -698.926)" fill="#fefefe"/>
          <path id="Path_130105" data-name="Path 130105" d="M187.148,811.022c.044.462.061.921.074,1.384l-4.339.048c-2.435.025-4.853-.12-6.7,1.761q-.074.075-.144.154t-.136.161q-.066.082-.128.167t-.12.173q-.058.088-.111.179c-.036.061-.069.122-.1.184s-.063.125-.092.189-.057.128-.083.194-.05.131-.073.2-.044.133-.063.2-.037.135-.053.2-.03.137-.043.206-.023.138-.032.208-.016.139-.022.21-.01.14-.012.21,0,.14,0,.211a5.966,5.966,0,0,0,1.869,4.05,6.769,6.769,0,0,0,2.549,1.407c-.4.018-.809.005-1.213,0q-.124-.034-.245-.076a6.754,6.754,0,0,1-3.671-3.579,4.756,4.756,0,0,1-.121-3.993,13.634,13.634,0,0,1,1.227-1.57,5.841,5.841,0,0,1,2.8-1.317,21.614,21.614,0,0,1,4.128-.159l4.87.007a8.9,8.9,0,0,1,0-1.012" transform="translate(-149.736 -698.926)" fill="#fefefe"/>
          <path id="Path_130106" data-name="Path 130106" d="M302.358,684.171a3.5,3.5,0,0,0,1.585-.083,42.627,42.627,0,0,0,4.807.03l5.524.005a18.724,18.724,0,0,1,2.719.06,1.6,1.6,0,0,1,.9.356,2.248,2.248,0,0,1,.655,1.633c-.006,1.73-.455,3.974-.648,5.762l-1.1,11.1c-.195,1.746-.1,4.57-1.21,5.948a6.255,6.255,0,0,0-.362,1.9c-1.165-.088-2.388-.011-3.558-.01l-7.3,0-24.14-.006a14.363,14.363,0,0,1-.706-2.111,43.786,43.786,0,0,1-.854-5.725c-.24-.971-.333-2.028-.484-3.018q-.525-3.415-.965-6.842-.262-1.992-.547-3.982c-.139-.984-.313-1.985-.355-2.978a1.841,1.841,0,0,1,.463-1.554,2.235,2.235,0,0,1,1.732-.514c1.645.091,3.336.012,4.986.013l10.6-.014c.552.016,1.112-.051,1.661-.012,2.192.124,4.407-.025,6.6.045" transform="translate(-238.116 -589.536)" fill="#a4b0c2"/>
          <path id="Path_130107" data-name="Path 130107" d="M419.948,775.2a2.088,2.088,0,0,1,1.188.308,2.058,2.058,0,0,1,.61,2.821,2.184,2.184,0,0,1-1.5.846,2.289,2.289,0,0,1-1.1-.253,1.913,1.913,0,0,1-1-1.189,1.842,1.842,0,0,1,.191-1.41,2.414,2.414,0,0,1,1.612-1.122" transform="translate(-360.295 -668.054)" fill="#fefefe"/>
          <path id="Path_130108" data-name="Path 130108" d="M299.542,862.548l.116.022c.177.034.339.109.515.139a16.016,16.016,0,0,0,2.6.066l4.721,0,14.253.006,9.353.059a30.722,30.722,0,0,0,4.508-.07,6.256,6.256,0,0,0-.362,1.9c-1.165-.088-2.388-.011-3.558-.01l-7.3,0-24.14-.006a14.36,14.36,0,0,1-.706-2.111" transform="translate(-258.141 -743.33)" fill="#828d9e"/>
          <path id="Path_130109" data-name="Path 130109" d="M24.339,107.375a15.328,15.328,0,0,1-2.033-1.418q-1.386-1.048-2.7-2.186t-2.548-2.36q-1.235-1.222-2.387-2.523t-2.215-2.675q-.438-.561-.863-1.132t-.836-1.152q-.411-.581-.807-1.172t-.779-1.192q-.382-.6-.75-1.21T7.7,89.127q-.353-.618-.69-1.245t-.66-1.261q-.322-.635-.629-1.277t-.6-1.292q-.291-.65-.566-1.306t-.534-1.319q-.259-.663-.5-1.332t-.47-1.344q-.227-.675-.437-1.355t-.4-1.365q-.194-.685-.371-1.374t-.337-1.383q-.16-.694-.3-1.391t-.27-1.4q-.126-.7-.236-1.4T.5,67.672Q.4,66.966.328,66.258T.195,64.841q-.058-.709-.1-1.42T.032,62Q.008,61.287,0,60.575t0-1.423q.011-.712.039-1.423T.12,56.307q.046-.71.108-1.419t.143-1.416Q.459,52.736.565,52t.229-1.464q.124-.73.265-1.457t.3-1.451q.159-.723.336-1.443t.371-1.434q.194-.715.406-1.425t.441-1.414q.229-.7.476-1.4t.51-1.391q.264-.692.544-1.378t.577-1.364q.3-.679.611-1.35T6.276,33.7q.33-.663.676-1.318t.708-1.3q.362-.646.74-1.283t.771-1.265q.393-.628.8-1.246t.832-1.226q.423-.608.862-1.2t.891-1.184q.453-.586.92-1.161t.948-1.138q.481-.564.976-1.115t1-1.091q.508-.539,1.029-1.066t1.055-1.04q.534-.514,1.08-1.014t1.1-.987q.558-.487,1.128-.96t1.151-.932q.588-.466,1.187-.918t1.21-.888q.61-.437,1.231-.858T27.83,9.67q.631-.406,1.272-.8t1.291-.765q.65-.374,1.31-.733t1.327-.7q.668-.342,1.344-.667t1.36-.634q.684-.308,1.376-.6T38.5,4.21q.7-.274,1.4-.531t1.416-.5q.711-.239,1.428-.461t1.439-.426q.722-.2,1.449-.39t1.458-.355q.731-.168,1.466-.318T50.035.949Q50.774.817,51.516.7T53,.494q.745-.1,1.491-.172T55.987.186q.748-.058,1.5-.1t1.5-.062Q59.734,0,60.484,0t1.5.012q.75.016,1.5.049t1.5.087q.749.052,1.5.123t1.492.16q.5.057,1.007.122t1,.139q.5.074,1,.156t1,.173q.5.091,1,.19t.993.207q.5.108.99.224t.986.24q.492.124.981.257t.977.274q.487.141.972.29t.967.307q.482.157.962.323t.956.339q.477.174.95.355t.944.371q.47.19.938.387t.931.4q.464.205.924.419t.917.434q.457.221.909.45t.9.465q.449.236.894.48t.885.5q.441.251.877.51t.868.525q.432.266.859.54t.85.554q.423.281.84.568t.831.582q.413.295.821.6t.811.61a35.9,35.9,0,0,1,6.4,6.032,16.67,16.67,0,0,0-9.51,2.211c-.417-.3-.8-.7-1.2-1.027-.963-.792-1.973-1.593-3-2.3a53.622,53.622,0,0,0-12.344-6.189,6.449,6.449,0,0,0-1.785-.525,23.805,23.805,0,0,1,2.479,2.727,16.885,16.885,0,0,1,3.431,9.461c0,.26.005.522-.013.781a7.065,7.065,0,0,1-.59.633,15.593,15.593,0,0,1-3.134,1.009c-.183.6-1.49,1.134-1.942,1.536a10.657,10.657,0,0,1-3.311.96,30.015,30.015,0,0,1-21.953-5.2c-.378-.332-.81-.613-1.194-.945a18.255,18.255,0,0,1-2.377-2.563q-.652.011-1.3-.01a5.021,5.021,0,0,1,1.352-.1,3.3,3.3,0,0,1-1.3-.71c-.853-.787-1.366-2.525-2.834-1.789-1.347.675-2.577,2.75-3.033,4.134a1.35,1.35,0,0,0-.052.326c0,.03-.008.06-.011.091-.1-.589-.045-1.2-.122-1.791a9.409,9.409,0,0,1,1.059-3.733,3.84,3.84,0,0,1,.715-.55,1.307,1.307,0,0,1,1.09-.149.478.478,0,0,0,.33.024,6.818,6.818,0,0,0,.057-1.754,10.783,10.783,0,0,1,.191-1.557,24.189,24.189,0,0,0-4.293,1.63A54.033,54.033,0,0,0,24.063,23.425,20,20,0,0,0,21.487,26c-.677.034-1.385.029-2.056.127a9.288,9.288,0,0,0-5.544,3.059,8.2,8.2,0,0,0-2.1,6.187,10.839,10.839,0,0,0,.76,3.3c-.342,1.046-.783,2.053-1.151,3.089a61.267,61.267,0,0,0-2.015,6.834A52.25,52.25,0,0,0,8.324,63.724a54.266,54.266,0,0,0,5.422,19.138q.471.929.979,1.838t1.051,1.8q.543.888,1.122,1.754t1.191,1.708q.612.842,1.258,1.659t1.323,1.608q.678.791,1.386,1.554t1.447,1.5A14.839,14.839,0,0,0,25.3,97.984a43.955,43.955,0,0,0-.956,9.391" transform="translate(0 -0.001)" fill="#d1e2f1"/>
          <path id="Path_130110" data-name="Path 130110" d="M300.625,42.616a30.928,30.928,0,0,1,2.694-1.747,23.31,23.31,0,0,1,10.183-2.7,24.361,24.361,0,0,1,4.838.487,19.053,19.053,0,0,1,7.376,3.114c.621.442,1.717,1.452,2.294,1.745a23.805,23.805,0,0,1,2.479,2.727,16.885,16.885,0,0,1,3.431,9.461c0,.26.005.522-.013.781a7.066,7.066,0,0,1-.59.633,15.593,15.593,0,0,1-3.134,1.009c-.183.6-1.49,1.134-1.942,1.536a10.656,10.656,0,0,1-3.311.96,30.015,30.015,0,0,1-21.953-5.2c-.378-.332-.811-.613-1.194-.945a18.254,18.254,0,0,1-2.377-2.563q-.652.011-1.3-.01a5.021,5.021,0,0,1,1.352-.1,3.3,3.3,0,0,1-1.3-.71c-.853-.787-1.366-2.525-2.834-1.789-1.347.675-2.577,2.75-3.033,4.134a1.35,1.35,0,0,0-.052.326c0,.03-.008.06-.012.091-.1-.589-.045-1.2-.122-1.791a9.409,9.409,0,0,1,1.059-3.733,3.842,3.842,0,0,1,.715-.55,1.307,1.307,0,0,1,1.09-.149.478.478,0,0,0,.33.024,6.817,6.817,0,0,0,.057-1.754,10.785,10.785,0,0,1,.191-1.557,6.239,6.239,0,0,1,2.3-3.341,10.177,10.177,0,0,0-.194,2.543c.955-.192,1.994-1,2.974-.937" transform="translate(-251.731 -32.894)" fill="#ad5b19"/>
          <path id="Path_130111" data-name="Path 130111" d="M332.24,71.258c.955-.192,1.994-1,2.974-.937a10.39,10.39,0,0,0-2.663,3.606,18.06,18.06,0,0,1-.311-2.669" transform="translate(-286.319 -60.598)" fill="#93c1e6"/>
          <path id="Path_130112" data-name="Path 130112" d="M393.8,54.736a15.381,15.381,0,0,1,5.115.569,15.735,15.735,0,0,1,9.875,7.81c1.333,2.438,2.709,6.1,1.887,8.884-1.162-1.158-1.427-3-1.93-4.508a14.746,14.746,0,0,0-1.033-2.431,15.7,15.7,0,0,0-7.353-6.82,19.384,19.384,0,0,0-13.4-1.531,10.671,10.671,0,0,0-1.812.488.6.6,0,0,0-.077.064l-.047-.06-.017.029-.117.019a4.428,4.428,0,0,1,1.327-.682,21.4,21.4,0,0,1,7.585-1.832" transform="translate(-331.695 -47.15)" fill="#c87629"/>
          <path id="Path_130113" data-name="Path 130113" d="M335.927,112.9c1.815.513,4.056,2.632,5.817,3.681a47.27,47.27,0,0,0,6.041,3.1,41.684,41.684,0,0,0,19.787,2.845c-.183.6-1.49,1.134-1.942,1.536a10.657,10.657,0,0,1-3.311.96,30.015,30.015,0,0,1-21.953-5.2c-.378-.332-.81-.613-1.194-.945a18.255,18.255,0,0,1-2.377-2.563q-.652.011-1.3-.01a5.02,5.02,0,0,1,1.352-.1l.225-.06c.127-.409-.933-2.683-1.14-3.251" transform="translate(-289.12 -97.3)" fill="#93480d"/>
          <path id="Path_130114" data-name="Path 130114" d="M507.588,76.855a6.448,6.448,0,0,1,1.785.525,53.62,53.62,0,0,1,12.344,6.189c1.026.707,2.036,1.507,3,2.3.4.329.784.728,1.2,1.027a16.67,16.67,0,0,1,9.51-2.211,21.326,21.326,0,0,1,2.46.4,15.856,15.856,0,0,1,8.634,5.931,15.492,15.492,0,0,1,2.919,11.422,13.358,13.358,0,0,1-.565,2.552c-1.422,3.834-2.8,5.485-5.95,7.985q.414,1.525.724,3.076t.513,3.118q.2,1.568.3,3.146t.085,3.159a5.079,5.079,0,0,1-.1,1.716,8.319,8.319,0,0,1,2.118,5.438,8.227,8.227,0,0,1-2.328,5.983,11.856,11.856,0,0,1-2.348,1.821c.323,1.079-2.807,8.328-3.523,9.652a54.8,54.8,0,0,1-9.087,12.537,12.952,12.952,0,0,1-1.925,1.786,32.648,32.648,0,0,0-1.233-5.028,37.179,37.179,0,0,0-6.586-12.825,51.7,51.7,0,0,0-4.325-4.273c.05-.075.022-.024.058-.164-2.1-1.177-4.279-2.249-6.4-3.392a34.836,34.836,0,0,0-3.281-1.791,1.052,1.052,0,0,0-.3.581c-.623-.692-1.123-1.5-1.751-2.2-.961-1.072-2.045-2.037-2.973-3.132a7.172,7.172,0,0,1-.054-1.7q.017-1.07-.01-2.14a12.956,12.956,0,0,0,4.359-2,12.033,12.033,0,0,0,4.364-8.284,19.845,19.845,0,0,0,.111-4.094,20.64,20.64,0,0,1-.133-3.234l-.007-1.626c.127-3.022-.018-6.073.012-9.1a5.643,5.643,0,0,1,.732-.877,2.522,2.522,0,0,1,1.24-.261,12.845,12.845,0,0,0,1.625-.024q-.006-3.379.065-6.758l.029-1.627a7.074,7.074,0,0,0,.59-.633c.018-.259.017-.521.013-.781a16.885,16.885,0,0,0-3.431-9.461,23.8,23.8,0,0,0-2.479-2.727" transform="translate(-431.308 -66.232)" fill="#93c1e6"/>
          <path id="Path_130115" data-name="Path 130115" d="M608.136,249.492a2.11,2.11,0,0,1,.6-.114c.135.088.185.1.217.272a1.606,1.606,0,0,1,0,.318c-.3-.026-.6-.024-.907-.024a.748.748,0,0,0,.09-.452" transform="translate(-524.005 -214.91)" fill="#0d568f"/>
          <path id="Path_130116" data-name="Path 130116" d="M608.134,321.393c.139.044.277.092.415.136a.97.97,0,0,0,.58-.026c.018,0,.036,0,.055-.005-.008.245.021.339-.129.54a1.184,1.184,0,0,1-.852-.019,4.18,4.18,0,0,1-.069-.626" transform="translate(-524.08 -276.971)" fill="#0d568f"/>
          <path id="Path_130117" data-name="Path 130117" d="M616.641,265.471a2.209,2.209,0,0,1,1.3,1.266c.07.215.115.444.165.665a1.226,1.226,0,0,1,.554,1.036,2.188,2.188,0,0,1-.088,1.3,1.28,1.28,0,0,1-.443.1c-.61.748.771,2.721-1.563,3.17q0-1.039.032-2.077a14.206,14.206,0,0,0,.05-2.907Z" transform="translate(-531.348 -228.779)" fill="#092256"/>
          <path id="Path_130118" data-name="Path 130118" d="M607.435,253.47c.3,0,.6,0,.907.024a4.817,4.817,0,0,1,.345,1.635l.008,2.559a14.2,14.2,0,0,1-.05,2.907q-.029,1.038-.032,2.077a.46.46,0,0,0-.116.291.547.547,0,0,0-.055.005.97.97,0,0,1-.58.026c-.139-.045-.276-.092-.415-.136l-.055-6.37a15.627,15.627,0,0,1,.042-3.018" transform="translate(-523.394 -218.436)" fill="#4a8ac2"/>
          <path id="Path_130119" data-name="Path 130119" d="M613,286.894c-.022-.1-.006-.07-.053-.145a2.725,2.725,0,0,1-.534-1.819,1.3,1.3,0,0,1,.637-.943,14.21,14.21,0,0,1-.05,2.907" transform="translate(-527.746 -244.736)" fill="#0d568f"/>
          <path id="Path_130120" data-name="Path 130120" d="M567.088,235.936a2.125,2.125,0,0,1,1.687.587c.389.416.591.961.953,1.385a.749.749,0,0,1-.09.452,15.617,15.617,0,0,0-.042,3.018l.054,6.37a4.173,4.173,0,0,0,.069.626,3.035,3.035,0,0,1-.984,2.147c-.908.75-2.239.563-3.336.532l-1.78.006a20.64,20.64,0,0,1-.133-3.234l-.007-1.626c.127-3.022-.018-6.073.012-9.1a5.644,5.644,0,0,1,.732-.877,2.523,2.523,0,0,1,1.24-.261,12.845,12.845,0,0,0,1.625-.024" transform="translate(-485.597 -203.326)" fill="#092256"/>
          <path id="Path_130121" data-name="Path 130121" d="M564.222,236.371a2.523,2.523,0,0,1,1.24-.261c.1,1.34.129,14.635-.064,15.093l-1.78.006a20.641,20.641,0,0,1-.133-3.234l-.007-1.626c.127-3.022-.018-6.073.012-9.1a5.644,5.644,0,0,1,.732-.877" transform="translate(-485.597 -203.476)" fill="#00103c"/>
          <path id="Path_130122" data-name="Path 130122" d="M717.475,433.7a10.137,10.137,0,0,1-3.687,1.094,8.343,8.343,0,0,1-6.275-1.9,9.01,9.01,0,0,1-3.252-6.015q-.017-.226-.023-.452t0-.453q.005-.226.021-.452t.043-.45q.027-.225.066-.448t.087-.444q.049-.221.109-.439t.13-.433q.07-.215.152-.427t.172-.418q.091-.207.193-.41t.213-.4q.111-.2.232-.389t.251-.377q.13-.185.269-.364t.287-.35a8.507,8.507,0,0,1,5.986-2.988c3.107-.213,5.368,1.334,7.587,3.274a8.319,8.319,0,0,1,2.118,5.438,8.226,8.226,0,0,1-2.328,5.983,11.859,11.859,0,0,1-2.349,1.821" transform="translate(-606.898 -359.509)" fill="#fefefe"/>
          <path id="Path_130123" data-name="Path 130123" d="M726.391,432.236a11.071,11.071,0,0,1,1.326.1c.03.357.028.721.037,1.079.523.154,1.034.316,1.541.514a1.784,1.784,0,0,1,1.111-.568c.555.023.971.591,1.316.969a8.277,8.277,0,0,1-.789.816A15.647,15.647,0,0,1,732,436.786c.192-.061.385-.125.58-.175a.577.577,0,0,1,.514.07c.282.216.357.99.43,1.336a11.6,11.6,0,0,0-1.136.492c0,.034.006.068.011.1a7.492,7.492,0,0,1,.046,1.31,7.89,7.89,0,0,1,1.063.668c-.166.438-.342.863-.541,1.287-.373-.073-.745-.172-1.115-.26q-.51.718-1.043,1.418a2.33,2.33,0,0,1,.46.683.578.578,0,0,1-.039.49c-.217.341-.736.431-1.1.526q-.277-.416-.569-.822l-1.611.566a1.936,1.936,0,0,1-.144,1,1,1,0,0,1-.726.331.989.989,0,0,1-.688-.236c-.222-.243-.168-.688-.167-1a14.024,14.024,0,0,0-1.6-.5c-.247.27-.529.626-.934.61-.449-.018-.788-.47-1.073-.77.222-.273.411-.573.608-.865a17.38,17.38,0,0,0-1.026-1.5l-1.016.507c-.231-.385-.657-.935-.5-1.407.124-.368.6-.584.912-.777-.027-.477-.048-.946-.029-1.424-.336-.139-.891-.3-1.088-.607a1.235,1.235,0,0,1,.061-.659.981.981,0,0,1,.535-.573c.34-.124.594.058.894.2.358-.643.834-1.2,1.2-1.831-.292-.266-.563-.54-.83-.831a7.031,7.031,0,0,1,1.292-1.023,5.168,5.168,0,0,1,1.023.772c.516-.208,1.033-.383,1.565-.547a3.157,3.157,0,0,1,.174-1.124" transform="translate(-620.881 -372.494)" fill="#4a8ac2"/>
          <path id="Path_130124" data-name="Path 130124" d="M640.385,135.519a16.669,16.669,0,0,1,9.51-2.211,21.326,21.326,0,0,1,2.46.4,15.856,15.856,0,0,1,8.634,5.931,15.493,15.493,0,0,1,2.919,11.422,13.357,13.357,0,0,1-.565,2.552c-1.422,3.834-2.8,5.485-5.95,7.985a16.067,16.067,0,0,1-4.9,2.159,15.321,15.321,0,0,1-9.891-.822,21.84,21.84,0,0,1-2.117-1.153c-.656.269-1.284.663-1.911,1q-1.875,1.005-3.779,1.954c.664-2.14,1.308-4.32,2.12-6.408a7.754,7.754,0,0,1-.849-.992,15.367,15.367,0,0,1-2.6-10.943,16.2,16.2,0,0,1,6.917-10.868" transform="translate(-545.775 -114.855)" fill="#4a8ac2"/>
          <path id="Path_130125" data-name="Path 130125" d="M656.815,143.1a10.048,10.048,0,0,1,2.2.048,14.338,14.338,0,0,1,9.484,5.19q.113.146.223.294t.216.3q.106.151.208.3t.2.31q.1.156.193.315t.185.319q.091.161.177.324t.169.328q.082.165.161.332t.153.336q.074.169.144.34t.136.343q.066.172.127.346t.119.35q.057.175.11.352t.1.355q.048.178.092.357t.083.36q.039.18.074.361t.065.363q.031.182.056.365t.047.366q.021.183.038.367t.029.368q.012.184.02.368t.011.369q0,.184,0,.369t-.007.369q-.006.184-.017.369t-.026.368q-.015.184-.035.367t-.044.366a13.556,13.556,0,0,1-5.169,8.87,14.215,14.215,0,0,1-10.537,2.733,10.8,10.8,0,0,1-5.79-2.409c-1.3.519-2.485,1.29-3.775,1.832a20.141,20.141,0,0,1,1.257-4.037c-2.177-1.99-3.344-5.468-3.614-8.328a13.8,13.8,0,0,1,3.212-10.037,14.071,14.071,0,0,1,9.718-4.961" transform="translate(-554.842 -123.286)" fill="#fefefe"/>
          <path id="Path_130126" data-name="Path 130126" d="M695.19,211.978a.885.885,0,0,1,.155-.018,4.246,4.246,0,0,1,3.2.662,3.072,3.072,0,0,1,.811,2.278c.024,1.94-1.1,3.031-2.374,4.319.578.027,1.892-.2,2.308.169a.781.781,0,0,1,.237.534,3.219,3.219,0,0,1-.117,1.389,11.362,11.362,0,0,1-3.2.12c-.7-.01-1.415.066-2.112.035a.852.852,0,0,1-.672-.279c-.323-.391-.174-1.265-.147-1.747a10.3,10.3,0,0,0,.835-.625c1.022-.831,2.8-2.09,2.906-3.5a1.385,1.385,0,0,0-.308-1.066c-.474-.468-2.173-.08-2.843-.1l-.108,0a6.045,6.045,0,0,1-.472-1.718,12.111,12.111,0,0,1,1.9-.444" transform="translate(-597.408 -182.635)" fill="#4a8ac2"/>
          <path id="Path_130127" data-name="Path 130127" d="M748.794,212.864a8.146,8.146,0,0,1,2.586.042c.311.5.121,4.435.142,5.249l.858.07a11.654,11.654,0,0,1-.02,1.878l-.729.234,0,1.881a8.485,8.485,0,0,1-2.211-.11l-.046-.62c-.03-.425-.019-.859-.024-1.285-1.394-.079-2.8.035-4.183-.158a3.167,3.167,0,0,1,0-1.616c.2-.5,2.854-4.789,3.25-5.286a.682.682,0,0,1,.378-.278" transform="translate(-642.08 -183.369)" fill="#4a8ac2"/>
          <path id="Path_130128" data-name="Path 130128" d="M764.671,229.013a18.622,18.622,0,0,1,.034,3.051l-1.906,0a11.675,11.675,0,0,1,1.872-3.055" transform="translate(-657.368 -197.36)" fill="#fefefe"/>
          <path id="Path_130129" data-name="Path 130129" d="M72.418,97.432a19.993,19.993,0,0,1,2.576-2.571A54.033,54.033,0,0,1,90.453,84.523a24.189,24.189,0,0,1,4.293-1.63,10.784,10.784,0,0,0-.191,1.557A6.818,6.818,0,0,1,94.5,86.2a.478.478,0,0,1-.33-.024,1.307,1.307,0,0,0-1.09.149,3.84,3.84,0,0,0-.715.55A9.409,9.409,0,0,0,91.3,90.612c.077.595.025,1.2.122,1.791,0-.03.009-.06.011-.091a1.35,1.35,0,0,1,.052-.326c.456-1.385,1.686-3.459,3.033-4.134,1.468-.736,1.981,1,2.834,1.789a3.3,3.3,0,0,0,1.3.71,5.022,5.022,0,0,0-1.352.1q.652.021,1.3.01a18.256,18.256,0,0,0,2.377,2.563c.384.332.817.612,1.194.945a30.015,30.015,0,0,0,21.953,5.2,10.656,10.656,0,0,0,3.311-.96c.453-.4,1.759-.938,1.942-1.536a15.592,15.592,0,0,0,3.134-1.009l-.029,1.627q-.071,3.379-.065,6.758a12.841,12.841,0,0,1-1.625.024,2.523,2.523,0,0,0-1.24.261,5.648,5.648,0,0,0-.732.877c-.03,3.027.114,6.078-.012,9.1l.007,1.626a20.65,20.65,0,0,0,.133,3.234,19.843,19.843,0,0,1-.111,4.094,12.032,12.032,0,0,1-4.364,8.284,12.956,12.956,0,0,1-4.358,2,43.036,43.036,0,0,1-16.012.141,8.942,8.942,0,0,1-.19,3.028c-.39,0-.779.418-1.053.68a17.516,17.516,0,0,0-2.813,3.513,4.579,4.579,0,0,0-.363.432,6.3,6.3,0,0,1-1.255,1.155.36.36,0,0,0-.006-.055c-.024-.082-.055-.24-.142-.271-.342-.124-1.054.251-1.4.386-2.21.979-6.849,3.183-8.419,4.941-1.143,1.146-2.355,2.179-3.444,3.388a37.591,37.591,0,0,0-7.836,14.433c-.393,1.36-.619,2.74-.964,4.1a14.839,14.839,0,0,1-1.793-1.706q-.738-.734-1.447-1.5T71.6,164.662q-.678-.791-1.323-1.608t-1.258-1.659q-.613-.842-1.191-1.708t-1.122-1.754q-.544-.888-1.051-1.8t-.979-1.838a54.266,54.266,0,0,1-5.422-19.138,52.249,52.249,0,0,1,1.058-15.132,61.261,61.261,0,0,1,2.015-6.834c.368-1.036.809-2.043,1.151-3.089a10.839,10.839,0,0,1-.76-3.3,8.2,8.2,0,0,1,2.1-6.187,9.288,9.288,0,0,1,5.544-3.059c.671-.1,1.379-.093,2.056-.127" transform="translate(-50.931 -71.436)" fill="#93c1e6"/>
          <path id="Path_130130" data-name="Path 130130" d="M247.245,259.08a11.1,11.1,0,0,1,.044-2.38.671.671,0,0,1,.335-.4.581.581,0,0,1,.472-.052c.557.52.159,2.25.3,3.021,0,.019.008.038.012.057.28.388.072,3.927.2,4.746l-.6.121c-.291-.036-.591-.044-.885-.065a1.337,1.337,0,0,1-.235-.119.443.443,0,0,1-.2-.367c-.07-.455-.59-.886-.816-1.314a2.093,2.093,0,0,1-.14-1.72,2.862,2.862,0,0,1,1.51-1.532" transform="translate(-211.664 -220.811)" fill="#0d568f"/>
          <path id="Path_130131" data-name="Path 130131" d="M283.379,129.188q.041-4.645,0-9.29c0-1.4-.079-2.867.059-4.259a9.171,9.171,0,0,1,.548-2.39,2.629,2.629,0,0,1,1.639-1.516,9.409,9.409,0,0,0-1.059,3.733,20.137,20.137,0,0,0-.235,3.745q-.034,2.225-.025,4.45c0,.675.051,1.386,0,2.057-.094,1.146-.026,2.332-.011,3.483-.3,0-.614.013-.914-.013" transform="translate(-244.195 -96.29)" fill="#00103c"/>
          <path id="Path_130132" data-name="Path 130132" d="M256.557,313.43c.293.02.593.028.885.065a14.883,14.883,0,0,0,5.168,10.02,13.387,13.387,0,0,0,3.741,2.358,9.467,9.467,0,0,0,3.146,1.041l.738.12a2.638,2.638,0,0,1-.038.917l-.147.066a18.971,18.971,0,0,1-3-.706,20.185,20.185,0,0,1-1.911-.844,17.648,17.648,0,0,1-3.737-2.685,15.387,15.387,0,0,1-4.845-10.352" transform="translate(-221.097 -270.109)" fill="#00103c"/>
          <path id="Path_130133" data-name="Path 130133" d="M263.554,313.023c.022.181.032.592.176.713a1.38,1.38,0,0,0,.593.174c-.027,1.025-.159,2.321.63,3.115a3.105,3.105,0,0,0,2.472.574l2.627-.033a6.763,6.763,0,0,0,.163,1.7,16.457,16.457,0,0,0,1.652,6.25,13.385,13.385,0,0,1-3.741-2.358,14.883,14.883,0,0,1-5.168-10.02Z" transform="translate(-226.612 -269.758)" fill="#93c1e6"/>
          <path id="Path_130134" data-name="Path 130134" d="M269.22,212.916c.07,1.122-.079,2.34.091,3.441a2.859,2.859,0,0,0,.58.041c.661-.013,1.7-.164,2.212.349a1.753,1.753,0,0,1,.447.888,8.8,8.8,0,0,1,.06,1.83c-.01,1.142-.064,2.3-.007,3.439-.009,2.8.021,5.6-.054,8.392l-2.627.033a3.1,3.1,0,0,1-2.472-.574c-.789-.794-.656-2.09-.63-3.115a1.381,1.381,0,0,1-.593-.174c-.144-.122-.153-.532-.176-.713-.124-.819.084-4.358-.2-4.746l1-.009c-.008-1.155-.245-3.92.325-4.838a1.8,1.8,0,0,1,1.111-.773c.3.026.612.01.914.013-.015-1.151-.083-2.337.011-3.483" transform="translate(-229.111 -183.488)" fill="#05447a"/>
          <path id="Path_130135" data-name="Path 130135" d="M266.859,278.621a55.714,55.714,0,0,1-.037,5.643,1.381,1.381,0,0,1-.593-.174c-.144-.122-.153-.532-.176-.714-.124-.819.084-4.358-.2-4.746Z" transform="translate(-229.111 -240.111)" fill="#4a8ac2"/>
          <path id="Path_130136" data-name="Path 130136" d="M294.751,237.921c.661-.013,1.7-.164,2.212.349a1.754,1.754,0,0,1,.447.888,8.809,8.809,0,0,1,.06,1.83c-.01,1.142-.064,2.3-.007,3.439-.009,2.8.021,5.6-.054,8.392l-2.627.033a35.424,35.424,0,0,1-.031-4.122c.009-3.6.16-7.219,0-10.809" transform="translate(-253.971 -205.011)" fill="#00103c"/>
          <path id="Path_130137" data-name="Path 130137" d="M290.574,122.219c0-.03.009-.06.011-.091a1.351,1.351,0,0,1,.052-.326c.456-1.385,1.686-3.459,3.033-4.134,1.468-.736,1.981,1,2.834,1.789a3.3,3.3,0,0,0,1.3.71,5.021,5.021,0,0,0-1.352.1q.652.021,1.3.01a18.255,18.255,0,0,0,2.377,2.563c.384.332.817.612,1.194.945-1.843.242-3.553.586-4.763,2.134-1.615,2.068-1.728,7.24-1.875,9.939a5.127,5.127,0,0,0-1.039.8,37.363,37.363,0,0,1-.076,4.018c-.057-1.141,0-2.3.007-3.439a8.8,8.8,0,0,0-.06-1.83,1.753,1.753,0,0,0-.447-.888c-.512-.513-1.552-.362-2.212-.349a2.856,2.856,0,0,1-.58-.041c-.171-1.1-.022-2.32-.092-3.441.056-.671.007-1.382,0-2.057q-.008-2.225.025-4.45a20.139,20.139,0,0,1,.235-3.745c.077.595.025,1.2.122,1.791" transform="translate(-250.078 -101.252)" fill="#733006"/>
          <path id="Path_130138" data-name="Path 130138" d="M290.574,122.219c0-.03.009-.06.011-.091a1.351,1.351,0,0,1,.052-.326c.456-1.385,1.686-3.459,3.033-4.134,1.468-.736,1.981,1,2.834,1.789a3.3,3.3,0,0,0,1.3.71,5.021,5.021,0,0,0-1.352.1,5.108,5.108,0,0,0-2.8,2.71c-1.793,3.368-1.924,7.386-1.861,11.115l-.95.013.021.061a2.856,2.856,0,0,1-.58-.041c-.171-1.1-.022-2.32-.092-3.441.056-.671.007-1.382,0-2.057q-.008-2.225.025-4.45a20.139,20.139,0,0,1,.235-3.745c.077.595.025,1.2.122,1.791" transform="translate(-250.078 -101.252)" fill="#93480d"/>
          <path id="Path_130139" data-name="Path 130139" d="M290.451,138.743c.077.595.025,1.2.122,1.791.107,1.782.083,3.569.124,5.353.05,2.172.148,4.356.139,6.528l.021.062a2.859,2.859,0,0,1-.58-.041c-.171-1.1-.022-2.32-.092-3.441.056-.671.007-1.382,0-2.057q-.008-2.225.025-4.45a20.14,20.14,0,0,1,.235-3.745" transform="translate(-250.078 -119.567)" fill="#93c1e6"/>
          <path id="Path_130140" data-name="Path 130140" d="M94.882,188.085a8.925,8.925,0,0,1,6.355,3.307,8.791,8.791,0,0,1,1.64,6.423,11.014,11.014,0,0,1-2.317,5.318c.434,1.123.8,2.317,1.309,3.407-1.212-.6-2.461-1.075-3.722-1.565a9.237,9.237,0,0,1-7.18.532,8.55,8.55,0,0,1-5.024-4.747,10.838,10.838,0,0,1-.76-3.3,8.2,8.2,0,0,1,2.1-6.187,9.288,9.288,0,0,1,5.544-3.059c.671-.1,1.379-.093,2.056-.127" transform="translate(-73.395 -162.089)" fill="#fefefe"/>
          <path id="Path_130141" data-name="Path 130141" d="M120.679,218.015a6.864,6.864,0,0,1,.852,2.484,5.026,5.026,0,0,1-1.169,3.657A5.273,5.273,0,0,1,116.8,225.9a5.644,5.644,0,0,1-3.976-1.389,5.265,5.265,0,0,1-1.644-3.7,5.057,5.057,0,0,1,1.284-3.592,5.638,5.638,0,0,1,3.9-1.82,5.842,5.842,0,0,1,3.643,1.126l.026.119a3.634,3.634,0,0,0,.6.415c0,.18-.044.206-.15.354l-.113.051a.749.749,0,0,0-.257-.456l-.151.033a5.729,5.729,0,0,0-4.4-1.065,5.259,5.259,0,0,0-3.263,2.306,4.567,4.567,0,0,0-.506,3.53,4.661,4.661,0,0,0,2.193,2.948,4.715,4.715,0,0,0,6.536-1.628,4.39,4.39,0,0,0,.417-3.351,4.819,4.819,0,0,0-.759-1.485,2.8,2.8,0,0,1,.5-.283" transform="translate(-95.812 -185.626)" fill="#4a8ac2"/>
          <path id="Path_130142" data-name="Path 130142" d="M123.074,221.228a4.818,4.818,0,0,1,.759,1.485,4.39,4.39,0,0,1-.417,3.351,4.715,4.715,0,0,1-6.536,1.628,4.661,4.661,0,0,1-2.193-2.948,4.567,4.567,0,0,1,.506-3.53,5.259,5.259,0,0,1,3.263-2.306,5.729,5.729,0,0,1,4.4,1.065l.151-.033a.749.749,0,0,1,.257.456l.113-.051c.107-.148.153-.175.15-.354a3.635,3.635,0,0,1-.6-.415l-.026-.119c.147.081.285.165.423.259a1,1,0,0,0,.846.067.687.687,0,0,1,.48.182.427.427,0,0,1-.178.365c-.27.243-.616.393-.9.617a2.8,2.8,0,0,0-.5.283" transform="translate(-98.708 -188.557)" fill="#fefefe"/>
          <path id="Path_130143" data-name="Path 130143" d="M133.538,224.078l.151-.033a.749.749,0,0,1,.257.456l.113-.051c.107-.148.153-.175.15-.354a3.638,3.638,0,0,1-.6-.415l-.026-.119c.147.081.285.165.423.259a1,1,0,0,0,.846.067.687.687,0,0,1,.48.182.427.427,0,0,1-.178.365c-.27.243-.616.393-.9.617a2.8,2.8,0,0,0-.5.283l-.425.211a1.6,1.6,0,0,1-.426.3q.043.106.084.213a3.46,3.46,0,0,1-.115,2.78,2.117,2.117,0,0,1-1.241,1.175,8.963,8.963,0,0,1-3.7-.05,1.894,1.894,0,0,1-.866-1.167c-.015-.049-.028-.1-.04-.147s-.023-.1-.033-.149-.018-.1-.026-.15-.013-.1-.018-.151-.008-.1-.011-.152,0-.1,0-.153,0-.1,0-.152.007-.1.012-.152.012-.1.019-.151.017-.1.027-.15.022-.1.034-.149.027-.1.042-.147.031-.1.049-.144.036-.1.056-.142.041-.093.063-.139.045-.091.07-.136.055-.1.084-.143.059-.093.091-.139.064-.09.1-.134.068-.087.1-.129.073-.083.11-.124.077-.08.116-.118.08-.076.122-.112.084-.072.127-.106.087-.067.132-.1.091-.063.137-.093.094-.058.142-.086.1-.054.146-.079.1-.049.149-.071.1-.044.153-.064.1-.039.156-.057.105-.034.158-.049a4.062,4.062,0,0,1,3.147.582,3.6,3.6,0,0,0,1.284-.914c.005-.219-.087-.259-.23-.419" transform="translate(-109.39 -192.661)" fill="#307aba"/>
          <path id="Path_130144" data-name="Path 130144" d="M174.464,225.917a.687.687,0,0,1,.48.182.427.427,0,0,1-.178.365c-.27.243-.616.393-.9.617a2.8,2.8,0,0,0-.5.283l-.425.211-.045-.077a2.112,2.112,0,0,1,.239-.142,8.64,8.64,0,0,0,.924-.61l.119-.069-.108-.035c-.244.1-.475.223-.708.35.019-.093.977-.937,1.1-1.075" transform="translate(-148.998 -194.692)" fill="#0d568f"/>
          <path id="Path_130145" data-name="Path 130145" d="M132.6,235.175a4.686,4.686,0,0,1,2.546.625c-.653.328-1.981.916-2.289,1.57a.708.708,0,0,0,.185.486c-.168.342-.753.377-.906.807a.5.5,0,0,0,.423.072,1.894,1.894,0,0,0,1.148-.924.485.485,0,0,0,.046-.45l-.189-.081.025-.1a8.222,8.222,0,0,1,1.806-1.2c.012.028.024.057.037.086a2.972,2.972,0,0,1,.234,2.073,2.1,2.1,0,0,1-1.074,1.327,7.057,7.057,0,0,1-3.572.107,1.138,1.138,0,0,1-.572-.708,2.8,2.8,0,0,1,2.153-3.7" transform="translate(-112.297 -202.659)" fill="#fefefe"/>
          <path id="Path_130146" data-name="Path 130146" d="M72.965,379.824a9.1,9.1,0,0,1,9.281,8.436A9.358,9.358,0,0,1,79.9,395.1q-.148.161-.3.314t-.319.3q-.163.146-.333.283t-.347.266q-.176.129-.359.249t-.371.231q-.188.111-.382.213t-.392.194q-.2.092-.4.175t-.409.155q-.206.072-.416.135t-.422.114q-.213.052-.427.094t-.431.072q-.216.031-.434.051t-.436.03a8.781,8.781,0,0,1-6.211-2.17,9.447,9.447,0,0,1-3.256-6.376,9,9,0,0,1,8.713-9.6" transform="translate(-55.357 -327.32)" fill="#fefefe"/>
          <path id="Path_130147" data-name="Path 130147" d="M83.4,394.211a7.207,7.207,0,0,1,7.506,6.426,6.84,6.84,0,0,1-1.523,5.124,7.4,7.4,0,0,1-5.269,2.5,7.622,7.622,0,0,1-4.934-1.649,7.125,7.125,0,0,1-2.7-4.935,6.24,6.24,0,0,1,1.474-4.638,7.741,7.741,0,0,1,5.443-2.831" transform="translate(-65.889 -339.706)" fill="#4a8ac2"/>
          <path id="Path_130148" data-name="Path 130148" d="M84.915,465.091l3.248,0a10.014,10.014,0,0,0,1.367,3.566,7.354,7.354,0,0,1-4.615-3.562" transform="translate(-73.178 -400.805)" fill="#fefefe"/>
          <path id="Path_130149" data-name="Path 130149" d="M141.887,464.986c1.122-.02,2.249.008,3.371.015a6.154,6.154,0,0,1-2.07,2.5,7.016,7.016,0,0,1-2.509,1.055,9.834,9.834,0,0,0,1.208-3.571" transform="translate(-121.235 -400.711)" fill="#fefefe"/>
          <path id="Path_130150" data-name="Path 130150" d="M140.64,399.013c.073.019.147.037.218.06a7.561,7.561,0,0,1,4.465,3.966l-3.281.007a9.634,9.634,0,0,0-1.4-4.033" transform="translate(-121.201 -343.863)" fill="#fefefe"/>
          <path id="Path_130151" data-name="Path 130151" d="M88.2,399.176l.053.015c.04.178-.447.736-.569.926a7.314,7.314,0,0,0-.984,3.077l-3.227-.012-.1-.078a1.485,1.485,0,0,1,.089-.257,7.657,7.657,0,0,1,4.736-3.67" transform="translate(-71.853 -344.004)" fill="#fefefe"/>
          <path id="Path_130152" data-name="Path 130152" d="M113.3,464.848l3.22-.01a11.351,11.351,0,0,1-.43,1.8,2.975,2.975,0,0,1-1.362,1.862,5.333,5.333,0,0,1-1.269.033l-.089-.061a5.228,5.228,0,0,1-1.687-3.608Z" transform="translate(-96.242 -400.591)" fill="#fefefe"/>
          <path id="Path_130153" data-name="Path 130153" d="M152.835,431.405h1a7,7,0,0,1-.011,4.195H151.7l-1.308,0c.075-1.4.121-2.783.1-4.181Z" transform="translate(-129.602 -371.777)" fill="#fefefe"/>
          <path id="Path_130154" data-name="Path 130154" d="M83.017,431.4a1.938,1.938,0,0,1,.327.033,4.1,4.1,0,0,1,.043,1.321,22.379,22.379,0,0,0,.165,2.851l-3.342-.006a1.074,1.074,0,0,1-.091-.114c-.679-1.087-.475-2.882-.176-4.051Z" transform="translate(-68.652 -371.773)" fill="#fefefe"/>
          <path id="Path_130155" data-name="Path 130155" d="M112.817,398.541a1.951,1.951,0,0,1,1.494.334c1.081.805,1.3,2.514,1.509,3.752l-1.956,0-3.17-.009c.063-.383.132-.767.22-1.145a4.354,4.354,0,0,1,1.9-2.936" transform="translate(-95.395 -343.436)" fill="#fefefe"/>
          <path id="Path_130156" data-name="Path 130156" d="M109.529,431.344l5.2-.008a30.1,30.1,0,0,1-.147,4.2l-4.975.009a13.323,13.323,0,0,1-.076-4.2" transform="translate(-94.263 -371.719)" fill="#fefefe"/>
          <path id="Path_130157" data-name="Path 130157" d="M322.09,163a30.015,30.015,0,0,0,21.953,5.2,10.656,10.656,0,0,0,3.311-.96c.453-.4,1.759-.938,1.942-1.536a15.593,15.593,0,0,0,3.134-1.009l-.029,1.627q-.071,3.379-.065,6.758a12.843,12.843,0,0,1-1.625.024,2.522,2.522,0,0,0-1.24.261,5.647,5.647,0,0,0-.732.877c-.03,3.027.114,6.078-.012,9.1l.007,1.626a20.644,20.644,0,0,0,.133,3.234,19.849,19.849,0,0,1-.111,4.094,12.032,12.032,0,0,1-4.364,8.284,12.955,12.955,0,0,1-4.358,2,43.036,43.036,0,0,1-16.012.141,18.345,18.345,0,0,1-4.446-2.162,9.681,9.681,0,0,1-2.778-2.884,18.962,18.962,0,0,0,3,.706l.147-.066a2.638,2.638,0,0,0,.038-.917l-.738-.12a9.468,9.468,0,0,1-3.147-1.041,16.457,16.457,0,0,1-1.652-6.25,6.763,6.763,0,0,1-.163-1.7c.075-2.795.045-5.6.054-8.392a37.379,37.379,0,0,0,.076-4.018,5.129,5.129,0,0,1,1.039-.8c.147-2.7.26-7.871,1.875-9.939,1.209-1.548,2.919-1.893,4.763-2.134" transform="translate(-270.844 -140.471)" fill="#f5c7a4"/>
          <path id="Path_130158" data-name="Path 130158" d="M555.24,176.278a15.6,15.6,0,0,0,3.134-1.009l-.029,1.627q-.071,3.379-.065,6.758a12.846,12.846,0,0,1-1.625.024,2.523,2.523,0,0,0-1.24.261,5.645,5.645,0,0,0-.732.877c-.03,3.027.114,6.078-.012,9.1-.183-2.325.16-4.72-.075-7.037a22.284,22.284,0,0,0-1.012-2.945,25.959,25.959,0,0,1-.285-6.12c.453-.4,1.759-.938,1.942-1.536" transform="translate(-476.788 -151.044)" fill="#733006"/>
          <path id="Path_130159" data-name="Path 130159" d="M571.711,187.041q-.071,3.379-.065,6.758a12.845,12.845,0,0,1-1.625.024,2.522,2.522,0,0,0-1.24.261,4.808,4.808,0,0,1,.049-1.113c.2-1.376,1.782-5.128,2.881-5.93" transform="translate(-490.154 -161.189)" fill="#ad5b19"/>
          <path id="Path_130160" data-name="Path 130160" d="M314.413,251.147a5.129,5.129,0,0,1,1.039-.8c-.133,1.135-.374,2.257-.5,3.393a25.779,25.779,0,0,0,.256,7.3,4.769,4.769,0,0,0,.152.458q.088.225.2.441a4.812,4.812,0,0,0,.241.419,4.752,4.752,0,0,0,.282.392,7.013,7.013,0,0,0,4.511,2.42c2.744.274,6.747-2.113,9.958-2.375q.584-.044,1.17-.039t1.169.058q.583.053,1.16.155t1.143.25c3.734,1,7.857,3.61,11.373.658a6.1,6.1,0,0,0,2.168-3.635,20.645,20.645,0,0,0,.133,3.234,19.849,19.849,0,0,1-.111,4.094,12.032,12.032,0,0,1-4.364,8.284,12.956,12.956,0,0,1-4.358,2,43.035,43.035,0,0,1-16.012.141,18.35,18.35,0,0,1-4.446-2.162,9.681,9.681,0,0,1-2.778-2.884,18.962,18.962,0,0,0,3,.706l.147-.066a2.638,2.638,0,0,0,.038-.917l-.738-.12a9.468,9.468,0,0,1-3.147-1.041,16.457,16.457,0,0,1-1.652-6.25,6.763,6.763,0,0,1-.163-1.7c.075-2.795.045-5.6.054-8.392a37.379,37.379,0,0,0,.076-4.018" transform="translate(-270.844 -215.747)" fill="#c87629"/>
          <path id="Path_130161" data-name="Path 130161" d="M315.465,358.234c.376.387,1.217,2.636,1.708,3.406a27.916,27.916,0,0,0,2.228,2.848,13.169,13.169,0,0,1,.862,1.036,9.466,9.466,0,0,1-3.146-1.041,16.455,16.455,0,0,1-1.652-6.25" transform="translate(-271.863 -308.72)" fill="#ad5b19"/>
          <path id="Path_130162" data-name="Path 130162" d="M354.37,404.064c0-.021,0-.043.008-.064a1.192,1.192,0,0,1,.49-.875c.55-.389,5.191-.36,5.968-.194a1.1,1.1,0,0,1,.786.467,3.2,3.2,0,0,1,.194,2.079,1.335,1.335,0,0,1-.1.257,1.336,1.336,0,0,1-.067.12q-.037.058-.079.112a1.346,1.346,0,0,1-.191.2,1.35,1.35,0,0,1-.109.083,1.294,1.294,0,0,1-.117.071,20.7,20.7,0,0,1-5.688.124,1.629,1.629,0,0,1-.987-.963c-.052-.121-.094-.246-.136-.37l-.158-.061.147-.066a2.639,2.639,0,0,0,.038-.917" transform="translate(-305.232 -347.14)" fill="#092256"/>
          <path id="Path_130163" data-name="Path 130163" d="M399.282,366.01c3.882-.014,7.807-.1,11.686.032a5.7,5.7,0,0,1-1.664,2.518,7.438,7.438,0,0,1-2.655,1.365,6.818,6.818,0,0,1-4.995-.535,5.162,5.162,0,0,1-2.373-3.38" transform="translate(-344.095 -315.388)" fill="#fefefe"/>
          <path id="Path_130164" data-name="Path 130164" d="M362.822,383.878a2.915,2.915,0,0,1-.074-.284,2.264,2.264,0,0,1,.313-1.75,1.025,1.025,0,0,1,.666-.441c.866-.133,1.911.864,2.567,1.332a5.271,5.271,0,0,0,4.169.862c4.778-.835,8.613-4.828,11.285-8.627a12.033,12.033,0,0,1-4.364,8.284,12.956,12.956,0,0,1-4.359,2,43.036,43.036,0,0,1-16.012.141,18.345,18.345,0,0,1-4.446-2.162,3.878,3.878,0,0,1,.418.077,30.992,30.992,0,0,0,5.517.207c1.438.046,2.88.275,4.319.365" transform="translate(-303.838 -323.143)" fill="#ad5b19"/>
        </g>
      </g>
    </g>
    <rect id="Rectangle_38438" data-name="Rectangle 38438" width="195" height="3" transform="translate(985 1136)" fill="#11004a"/>
  </g>
</svg>
