<svg id="Layer_2" data-name="Layer 2" xmlns="http://www.w3.org/2000/svg" width="21.862" height="21.848" viewBox="0 0 21.862 21.848">
  <path id="Path_130606" data-name="Path 130606" d="M17,16.255H14.275l.568-1.888a2.255,2.255,0,0,0-1.451-2.806,1.232,1.232,0,0,0-1.582.874l-.087.367a7.526,7.526,0,0,1-1.975,3.5l-.5.489a1.364,1.364,0,0,0-1.058-.516H7.554A1.364,1.364,0,0,0,6.19,17.618v5.629a1.364,1.364,0,0,0,1.364,1.364h.638a1.355,1.355,0,0,0,1.162-.664l.122.061a5.725,5.725,0,0,0,2.544.6h3.138a3.129,3.129,0,0,0,2.622-1.4,5.542,5.542,0,0,0,.935-3.085V17.95A1.7,1.7,0,0,0,17,16.255ZM8.646,23.247a.489.489,0,0,1-.489.489h-.6a.489.489,0,0,1-.489-.489V17.618a.489.489,0,0,1,.489-.489h.638a.489.489,0,0,1,.455.489Zm9.178-3.12a4.7,4.7,0,0,1-.787,2.622,2.264,2.264,0,0,1-1.879,1.005H12.02a4.833,4.833,0,0,1-2.15-.507l-.35-.175V17.706l.8-.8A8.417,8.417,0,0,0,12.536,13l.087-.358a.376.376,0,0,1,.175-.227.35.35,0,0,1,.28,0,1.381,1.381,0,0,1,.874,1.748l-.734,2.456a.437.437,0,0,0,.07.385.42.42,0,0,0,.35.175H16.95a.822.822,0,0,1,.822.822Z" transform="translate(-2.079 -2.763)" fill="#2500a0"/>
  <path id="Path_130607" data-name="Path 130607" d="M10.791,6.57l-.28,1.617a.953.953,0,0,0,.385.953.97.97,0,0,0,.568.192,1.031,1.031,0,0,0,.455-.114l1.495-.769,1.46.769A.972.972,0,0,0,16.28,8.2L16.035,6.57,17.18,5.434a.961.961,0,0,0,.253-1,.979.979,0,0,0-.787-.664l-1.634-.236-.725-1.495a.979.979,0,0,0-1.748,0L11.814,3.52l-1.634.236a.979.979,0,0,0-.787.664.961.961,0,0,0,.253,1.014Zm-.524-1.949,1.862-.271a.428.428,0,0,0,.411-.236l.874-1.687a.1.1,0,0,1,.175,0l.874,1.687a.428.428,0,0,0,.332.236l1.862.271a.1.1,0,0,1,.079.07.1.1,0,0,1,0,.1L15.389,6.1a.463.463,0,0,0-.131.393l.323,1.844a.079.079,0,0,1-.044.1.087.087,0,0,1-.1,0l-1.661-.874a.411.411,0,0,0-.4,0L11.7,8.432a.093.093,0,0,1-.14-.1l.323-1.844a.463.463,0,0,0-.131-.393L10.406,4.787a.1.1,0,0,1,0-.1.1.1,0,0,1-.1-.07Z" transform="translate(-2.475 -1.504)" fill="#2500a0"/>
  <path id="Path_130608" data-name="Path 130608" d="M6.6,12.285a.874.874,0,0,0,.874-1.04L7.241,9.916l.979-.953A.874.874,0,0,0,7.73,7.451L6.393,7.259l-.6-1.215a.918.918,0,0,0-1.591,0L3.6,7.259l-1.337.192a.874.874,0,0,0-.489,1.512l.97.953L2.5,11.244A.888.888,0,0,0,3.8,12.18l1.2-.629,1.2.629a.874.874,0,0,0,.411.1ZM4.994,10.624a.4.4,0,0,0-.2.052l-1.425.717.315-1.556a.463.463,0,0,0-.175-.393L2.381,8.316l1.573-.227a.411.411,0,0,0,.323-.236L5,6.428l.708,1.425a.411.411,0,0,0,.323.236l1.573.253L6.48,9.444a.463.463,0,0,0-.131.393L6.6,11.41,5.2,10.676a.4.4,0,0,0-.2-.052Z" transform="translate(-1.486 -2.018)" fill="#2500a0"/>
  <path id="Path_130609" data-name="Path 130609" d="M25.447,8.054a.874.874,0,0,0-.717-.6l-1.337-.192-.6-1.215a.918.918,0,0,0-1.591,0l-.6,1.215-1.337.192a.874.874,0,0,0-.489,1.512l.97.953L19.5,11.244a.888.888,0,0,0,1.294.935l1.2-.629,1.2.629a.878.878,0,0,0,1.285-.935l-.236-1.329.97-.953A.874.874,0,0,0,25.447,8.054ZM23.48,9.444a.463.463,0,0,0-.131.393L23.6,11.41,22.2,10.676a.411.411,0,0,0-.4,0l-1.425.717.315-1.556a.463.463,0,0,0-.175-.393L19.381,8.316l1.573-.227a.411.411,0,0,0,.323-.236L22,6.428l.708,1.425a.411.411,0,0,0,.323.236l1.573.253Z" transform="translate(-3.627 -2.018)" fill="#2500a0"/>
</svg>
