<svg xmlns="http://www.w3.org/2000/svg" width="12.219" height="15.012" viewBox="0 0 12.219 15.012">
  <g id="Icon" transform="translate(-3.25 -1.25)">
    <path id="Path_130645" data-name="Path 130645" d="M9.963,1.25A4.74,4.74,0,0,0,5.25,6.013a7.312,7.312,0,0,0,.964,3.1,30.325,30.325,0,0,0,3.352,4.873.523.523,0,0,0,.795,0,30.325,30.325,0,0,0,3.352-4.873,7.312,7.312,0,0,0,.964-3.1A4.74,4.74,0,0,0,9.963,1.25Zm0,1.047a3.693,3.693,0,0,1,3.666,3.715,8.081,8.081,0,0,1-1.4,3.6,30.713,30.713,0,0,1-2.266,3.206A30.713,30.713,0,0,1,7.7,9.613a8.081,8.081,0,0,1-1.4-3.6A3.693,3.693,0,0,1,9.963,2.3Z" transform="translate(-0.604)" fill="#fcc860" fill-rule="evenodd"/>
    <path id="Path_130646" data-name="Path 130646" d="M11.17,5.25a1.92,1.92,0,1,0,1.92,1.92A1.921,1.921,0,0,0,11.17,5.25Zm0,1.047a.873.873,0,1,1-.873.873A.873.873,0,0,1,11.17,6.3Z" transform="translate(-1.811 -1.207)" fill="#fcc860" fill-rule="evenodd"/>
    <path id="Path_130647" data-name="Path 130647" d="M12.7,16.934a4.329,4.329,0,0,1,1.359.628c.209.159.363.315.363.5a.493.493,0,0,1-.153.314,2.189,2.189,0,0,1-.64.457,9.975,9.975,0,0,1-4.269.8,9.975,9.975,0,0,1-4.269-.8,2.189,2.189,0,0,1-.64-.457.493.493,0,0,1-.153-.314c0-.19.154-.346.363-.5a4.329,4.329,0,0,1,1.359-.628.524.524,0,0,0-.3-1,4.8,4.8,0,0,0-1.94,1.012,1.567,1.567,0,0,0-.528,1.125,1.754,1.754,0,0,0,.841,1.387,9.787,9.787,0,0,0,5.269,1.232,9.787,9.787,0,0,0,5.269-1.232,1.754,1.754,0,0,0,.841-1.387,1.567,1.567,0,0,0-.528-1.125A4.8,4.8,0,0,0,13,15.93a.524.524,0,0,0-.3,1Z" transform="translate(0 -4.424)" fill="#fcc860" fill-rule="evenodd"/>
  </g>
</svg>
