<svg xmlns="http://www.w3.org/2000/svg" width="15.033" height="15.033" viewBox="0 0 15.033 15.033">
  <g id="online-marketing" transform="translate(-6 -6)">
    <path id="Path_130627" data-name="Path 130627" d="M26.421,16.656a3.747,3.747,0,0,1-2.657-1.1,3.811,3.811,0,0,1-.734-1.035.288.288,0,0,1,.52-.249,3.185,3.185,0,0,0,5.12.876l2.862-2.862a3.181,3.181,0,0,0-4.5-4.5l-2.862,2.862a3.172,3.172,0,0,0-.622.879.288.288,0,0,1-.52-.249,3.781,3.781,0,0,1,.734-1.038l2.862-2.862A3.757,3.757,0,1,1,31.939,12.7l-2.862,2.862A3.747,3.747,0,0,1,26.421,16.656Z" transform="translate(-12.086 -0.199)" fill="#fcc860"/>
    <path id="Path_130628" data-name="Path 130628" d="M30.6,27.258a2.3,2.3,0,0,1-1.636-.676.288.288,0,0,1,.408-.408,1.731,1.731,0,0,0,2.452,0l2.862-2.862a.288.288,0,0,1,.408.408l-2.862,2.862a2.3,2.3,0,0,1-1.636.676Z" transform="translate(-16.264 -12.247)" fill="#fcc860"/>
    <path id="Path_130629" data-name="Path 130629" d="M33.337,14.1a.3.3,0,0,1-.205-.084.288.288,0,0,1,0-.408l1.657-1.657a2.314,2.314,0,0,1,3.27,0,.288.288,0,0,1-.408.408,1.731,1.731,0,0,0-2.452,0l-1.657,1.657A.284.284,0,0,1,33.337,14.1Z" transform="translate(-19.228 -3.754)" fill="#fcc860"/>
    <path id="Path_130630" data-name="Path 130630" d="M10.028,32.214A3.757,3.757,0,0,1,7.371,25.8l2.862-2.862a3.76,3.76,0,0,1,5.314,0,3.811,3.811,0,0,1,.734,1.035.288.288,0,0,1-.52.249,3.185,3.185,0,0,0-5.12-.876L7.779,26.207a3.181,3.181,0,0,0,4.5,4.5l2.862-2.862a3.2,3.2,0,0,0,.622-.876.288.288,0,0,1,.52.249,3.707,3.707,0,0,1-.734,1.035l-2.862,2.862a3.731,3.731,0,0,1-2.657,1.1Z" transform="translate(-0.192 -11.259)" fill="#fcc860"/>
    <path id="Path_130631" data-name="Path 130631" d="M13.607,30.87a.3.3,0,0,1-.205-.084.288.288,0,0,1,0-.408l2.862-2.862a2.317,2.317,0,0,1,3.273,0,.288.288,0,1,1-.408.408,1.731,1.731,0,0,0-2.452,0l-2.862,2.862a.284.284,0,0,1-.205.084Z" transform="translate(-5.202 -14.815)" fill="#fcc860"/>
    <path id="Path_130632" data-name="Path 130632" d="M15.038,45.773A2.307,2.307,0,0,1,13.4,45.1a.288.288,0,0,1,.408-.408,1.731,1.731,0,0,0,2.452,0l1.657-1.657a.288.288,0,0,1,.408.408L16.669,45.1a2.307,2.307,0,0,1-1.636.676Z" transform="translate(-5.202 -26.266)" fill="#fcc860"/>
    <path id="Path_130633" data-name="Path 130633" d="M12.444,12.74a.3.3,0,0,1-.205-.084L11.082,11.5a.288.288,0,0,1,.408-.408l1.156,1.156a.288.288,0,0,1,0,.408.284.284,0,0,1-.205.084Z" transform="translate(-3.553 -3.56)" fill="#fcc860"/>
    <path id="Path_130634" data-name="Path 130634" d="M8.024,22.578H6.289a.289.289,0,1,1,0-.578H8.024a.289.289,0,1,1,0,.578Z" transform="translate(0 -11.374)" fill="#fcc860"/>
    <path id="Path_130635" data-name="Path 130635" d="M22.289,8.313A.29.29,0,0,1,22,8.024V6.289a.289.289,0,1,1,.578,0V8.024A.29.29,0,0,1,22.289,8.313Z" transform="translate(-11.374)" fill="#fcc860"/>
    <path id="Path_130636" data-name="Path 130636" d="M12.444,12.74a.3.3,0,0,1-.205-.084L11.082,11.5a.288.288,0,0,1,.408-.408l1.156,1.156a.288.288,0,0,1,0,.408.284.284,0,0,1-.205.084Z" transform="translate(-3.553 -3.56)" fill="#fcc860"/>
    <path id="Path_130637" data-name="Path 130637" d="M8.024,22.578H6.289a.289.289,0,1,1,0-.578H8.024a.289.289,0,1,1,0,.578Z" transform="translate(0 -11.374)" fill="#fcc860"/>
    <path id="Path_130638" data-name="Path 130638" d="M22.289,8.313A.29.29,0,0,1,22,8.024V6.289a.289.289,0,1,1,.578,0V8.024A.29.29,0,0,1,22.289,8.313Z" transform="translate(-11.374)" fill="#fcc860"/>
    <path id="Path_130639" data-name="Path 130639" d="M12.444,12.74a.3.3,0,0,1-.205-.084L11.082,11.5a.288.288,0,0,1,.408-.408l1.156,1.156a.288.288,0,0,1,0,.408.284.284,0,0,1-.205.084Z" transform="translate(-3.553 -3.56)" fill="#fcc860"/>
    <path id="Path_130640" data-name="Path 130640" d="M8.024,22.578H6.289a.289.289,0,1,1,0-.578H8.024a.289.289,0,1,1,0,.578Z" transform="translate(0 -11.374)" fill="#fcc860"/>
    <path id="Path_130641" data-name="Path 130641" d="M22.289,8.313A.29.29,0,0,1,22,8.024V6.289a.289.289,0,1,1,.578,0V8.024A.29.29,0,0,1,22.289,8.313Z" transform="translate(-11.374)" fill="#fcc860"/>
    <path id="Path_130642" data-name="Path 130642" d="M48.444,48.74a.3.3,0,0,1-.205-.084L47.082,47.5a.288.288,0,0,1,.408-.408l1.156,1.156a.288.288,0,0,1,0,.408.284.284,0,0,1-.205.084Z" transform="translate(-29.145 -29.152)" fill="#fcc860"/>
    <path id="Path_130643" data-name="Path 130643" d="M52.024,40.578H50.289a.289.289,0,1,1,0-.578h1.735a.289.289,0,1,1,0,.578Z" transform="translate(-31.28 -24.171)" fill="#fcc860"/>
    <path id="Path_130644" data-name="Path 130644" d="M40.289,52.313A.29.29,0,0,1,40,52.024V50.289a.289.289,0,1,1,.578,0v1.735A.29.29,0,0,1,40.289,52.313Z" transform="translate(-24.171 -31.28)" fill="#fcc860"/>
  </g>
</svg>
