<svg xmlns="http://www.w3.org/2000/svg" width="19.012" height="19.645" viewBox="0 0 19.012 19.645">
  <g id="Group_23782" data-name="Group 23782" transform="translate(-770 -386.355)">
    <g id="video-call" transform="translate(768 385.355)">
      <path id="Path_130610" data-name="Path 130610" d="M18.317,46.634h.951a.317.317,0,0,0,0-.634h-.951a.317.317,0,1,0,0,.634Z" transform="translate(-10.93 -30.741)" fill="#ac21a4"/>
      <path id="Path_130611" data-name="Path 130611" d="M20.218,50h-1.9a.317.317,0,0,0,0,.634h1.9a.317.317,0,0,0,0-.634Z" transform="translate(-10.93 -33.474)" fill="#ac21a4"/>
      <ellipse id="Ellipse_26" data-name="Ellipse 26" cx="0.5" rx="0.5" transform="translate(3 11.645)" fill="#ac21a4"/>
      <circle id="Ellipse_27" data-name="Ellipse 27" transform="translate(5 11.645)" fill="#ac21a4"/>
      <circle id="Ellipse_28" data-name="Ellipse 28" transform="translate(6 11.645)" fill="#ac21a4"/>
      <ellipse id="Ellipse_29" data-name="Ellipse 29" cx="0.5" rx="0.5" transform="translate(19 5.645)" fill="#ac21a4"/>
      <circle id="Ellipse_30" data-name="Ellipse 30" transform="translate(17 5.645)" fill="#ac21a4"/>
      <circle id="Ellipse_31" data-name="Ellipse 31" transform="translate(18 5.645)" fill="#ac21a4"/>
      <path id="Path_130612" data-name="Path 130612" d="M20.061,4.169H17.209V2.584A1.569,1.569,0,0,0,15.625,1H7.387A1.569,1.569,0,0,0,5.8,2.584v7.6H2.951A.934.934,0,0,0,2,11.14v1.267a.934.934,0,0,0,.951.951H5.8v5.7a1.569,1.569,0,0,0,1.584,1.584h8.238a1.569,1.569,0,0,0,1.584-1.584V8.129l1.046-.792h1.806a.934.934,0,0,0,.951-.951V5.119A.934.934,0,0,0,20.061,4.169ZM7.387,1.634h8.238a.934.934,0,0,1,.951.951V2.9H6.436V2.584A.934.934,0,0,1,7.387,1.634ZM2.634,12.407V11.14a.3.3,0,0,1,.317-.317h3.8a.3.3,0,0,1,.317.317v1.267a.3.3,0,0,1-.317.317h-3.8A.3.3,0,0,1,2.634,12.407Zm4.119.951a.934.934,0,0,0,.951-.951V11.14a.934.934,0,0,0-.951-.951H6.436V3.535h10.14v.634h-.317a.934.934,0,0,0-.951.951V6.387a.934.934,0,0,0,.951.951h.317V14.5a7.65,7.65,0,0,0-2.25-1.046,5.833,5.833,0,0,1-.792-.285.9.9,0,0,1-.349-.253,6.168,6.168,0,0,0,2.123-4.658,3.8,3.8,0,1,0-7.6,0,6.219,6.219,0,0,0,2.123,4.658,1.407,1.407,0,0,1-.349.253c-.253.1-.539.19-.792.285A7.65,7.65,0,0,0,6.436,14.5V13.358Zm-.317,2a5.532,5.532,0,0,1,2.44-1.3l.222-.063a2.564,2.564,0,0,0,2.408,1.267,2.6,2.6,0,0,0,2.408-1.267l.222.063a5.23,5.23,0,0,1,2.44,1.3v2.757H6.436Zm1.9-7.066a3.169,3.169,0,0,1,6.337,0,4.836,4.836,0,0,1-.1.951,3.061,3.061,0,0,1-2.757-2.281.309.309,0,0,0-.317-.253.324.324,0,0,0-.317.222A3.061,3.061,0,0,1,8.432,9.207a4.3,4.3,0,0,1-.1-.919Zm3.169-.444a3.476,3.476,0,0,0,2.915,2.028c-.475,1.616-1.616,3.074-2.915,3.074S9.034,11.456,8.591,9.872A3.476,3.476,0,0,0,11.506,7.844Zm-1.141,5.45a2.424,2.424,0,0,0,2.281,0,1.438,1.438,0,0,0,.6.475l.032.032a2.086,2.086,0,0,1-1.806.856A1.959,1.959,0,0,1,9.7,13.8h.032a2.035,2.035,0,0,0,.634-.507Zm5.26,6.717H7.387a.934.934,0,0,1-.951-.951v-.317h10.14v.317A.934.934,0,0,1,15.625,20.012ZM20.378,6.387a.3.3,0,0,1-.317.317h-1.9a.45.45,0,0,0-.19.063l-.76.57V7.02a.3.3,0,0,0-.317-.317h-.634a.3.3,0,0,1-.317-.317V5.119a.3.3,0,0,1,.317-.317h3.8a.3.3,0,0,1,.317.317Z" fill="#ac21a4"/>
    </g>
  </g>
</svg>
