<svg xmlns="http://www.w3.org/2000/svg" xmlns:xlink="http://www.w3.org/1999/xlink" width="29.493" height="31.441" viewBox="0 0 29.493 31.441">
  <defs>
    <clipPath id="clip-path">
      <rect id="Rectangle_38376" data-name="Rectangle 38376" width="29.493" height="31.441" fill="#fcc860"/>
    </clipPath>
  </defs>
  <g id="Group_23566" data-name="Group 23566" clip-path="url(#clip-path)">
    <path id="Path_129678" data-name="Path 129678" d="M73.035,6.666c0,1.072-1.617,3.07-2.27,3.905-.817.945-2.452,2.816-3.851,2.816a3.371,3.371,0,0,1-1.907-1.035A20.027,20.027,0,0,1,63.135,10.5c-.727-.836-2.325-2.706-2.325-3.833,0-1.181,1.58-2.979,2.325-3.833a25.325,25.325,0,0,1,1.871-1.816A3.453,3.453,0,0,1,66.913,0c1.326,0,3,1.907,3.778,2.834.69.781,2.343,2.761,2.343,3.833" transform="translate(-52.176)" fill="#fcc860"/>
    <path id="Path_129679" data-name="Path 129679" d="M73.035,133.821c0,1.072-1.617,3.07-2.27,3.905-.817.945-2.452,2.816-3.851,2.816a3.371,3.371,0,0,1-1.907-1.035,20.027,20.027,0,0,1-1.871-1.853c-.727-.836-2.325-2.706-2.325-3.833,0-1.181,1.58-2.979,2.325-3.833a25.322,25.322,0,0,1,1.871-1.816,3.453,3.453,0,0,1,1.907-1.017c1.326,0,3,1.907,3.778,2.834.69.781,2.343,2.761,2.343,3.833" transform="translate(-52.176 -109.101)" fill="#fcc860"/>
    <path id="Path_129680" data-name="Path 129680" d="M12.225,70.243c0,1.072-1.617,3.07-2.27,3.905-.817.945-2.452,2.816-3.851,2.816A3.371,3.371,0,0,1,4.2,75.929a20.028,20.028,0,0,1-1.871-1.853C1.6,73.24,0,71.369,0,70.243c0-1.181,1.58-2.979,2.325-3.833A25.325,25.325,0,0,1,4.2,64.594,3.453,3.453,0,0,1,6.1,63.577c1.326,0,3,1.907,3.778,2.834.69.781,2.343,2.761,2.343,3.833" transform="translate(0 -54.55)" fill="#fcc860"/>
    <path id="Path_129681" data-name="Path 129681" d="M133.845,70.243c0,1.072-1.617,3.07-2.27,3.905-.817.945-2.452,2.816-3.851,2.816a3.371,3.371,0,0,1-1.907-1.035,20.026,20.026,0,0,1-1.871-1.853c-.727-.836-2.325-2.706-2.325-3.833,0-1.181,1.58-2.979,2.325-3.833a25.323,25.323,0,0,1,1.871-1.816,3.453,3.453,0,0,1,1.907-1.017c1.326,0,3,1.907,3.778,2.834.69.781,2.343,2.761,2.343,3.833" transform="translate(-104.352 -54.55)" fill="#fcc860"/>
  </g>
</svg>
