<svg xmlns="http://www.w3.org/2000/svg" width="13.771" height="17.857" viewBox="0 0 13.771 17.857">
  <g id="share" transform="translate(-8.226 -3.546)">
    <path id="Path_130604" data-name="Path 130604" d="M20.033,8.911H18.246a.655.655,0,0,0,0,1.31h1.788a.656.656,0,0,1,.655.655v8.563a.656.656,0,0,1-.655.655H10.19a.656.656,0,0,1-.655-.655V10.876a.656.656,0,0,1,.655-.655h1.788a.655.655,0,1,0,0-1.31H10.19a1.967,1.967,0,0,0-1.964,1.964v8.563A1.967,1.967,0,0,0,10.19,21.4h9.843A1.967,1.967,0,0,0,22,19.438V10.876a1.967,1.967,0,0,0-1.965-1.964ZM12.67,7.59l1.808-1.808V14.4a.655.655,0,1,0,1.31,0V5.781L17.6,7.59a.655.655,0,0,0,.926-.926L15.6,3.737a.655.655,0,0,0-.926,0L11.744,6.664a.655.655,0,0,0,.926.926Z" fill="#11004a"/>
  </g>
</svg>
