<svg xmlns="http://www.w3.org/2000/svg" xmlns:xlink="http://www.w3.org/1999/xlink" width="214" height="123.235" viewBox="0 0 214 123.235">
  <defs>
    <clipPath id="clip-path">
      <rect id="Rectangle_38437" data-name="Rectangle 38437" width="214" height="110.085" fill="none"/>
    </clipPath>
    <clipPath id="clip-path-4">
      <rect id="Rectangle_38605" data-name="Rectangle 38605" width="156.506" height="120.882" transform="translate(0 0)" fill="none"/>
    </clipPath>
    <clipPath id="clip-path-5">
      <rect id="Rectangle_38606" data-name="Rectangle 38606" width="24.392" height="24.389" fill="none"/>
    </clipPath>
  </defs>
  <g id="Group_23812" data-name="Group 23812" transform="translate(-459 -997.765)">
    <g id="Group_23678" data-name="Group 23678" transform="translate(459 1007.562)">
      <g id="Group_23676" data-name="Group 23676" clip-path="url(#clip-path)">
        <g id="Group_23675" data-name="Group 23675" transform="translate(0 0)">
          <g id="Group_23674" data-name="Group 23674" clip-path="url(#clip-path)">
            <g id="Group_23673" data-name="Group 23673" transform="translate(0 0)" opacity="0.5">
              <g id="Group_23672" data-name="Group 23672">
                <g id="Group_23671" data-name="Group 23671" clip-path="url(#clip-path)">
                  <path id="Path_130165" data-name="Path 130165" d="M214,40.517a9.783,9.783,0,0,1-1.621,5.412q-.148.222-.305.437v0a10.154,10.154,0,0,1-1.633,1.724c-.053.043-.107.087-.162.13s-.108.085-.163.126-.111.083-.167.124-.113.081-.169.12-.115.079-.172.117c-.011.009-.024.017-.036.025l-.123.079c-.082.052-.163.1-.247.152l-.123.074-.016.009-.167.093-.1.054-.051.027-.084.044-.136.069h0l-.138.067-.078.036-.059.028c-.034.016-.068.031-.1.045l-.151.066c-.078.034-.158.066-.238.1l-.019.008-.178.067-.063.023-.044.015c-.114.041-.23.08-.346.115l-.178.053-.112.032c-.09.026-.181.05-.272.072-.053.013-.107.027-.16.038l-.083.019-.047.011-.106.021c-.106.023-.214.043-.322.06l-.126.021c-.143.023-.287.042-.431.058l-.217.022h0l-.218.017c-.146.01-.294.017-.442.02-.075,0-.147,0-.223,0H174.492l-.1,0h-.033l-.042,0c-.128.005-.255.014-.381.028l-.088.01-.139.018-.167.025-.022,0-.014,0H173.5l-.081.015c-.045.008-.09.016-.134.026s-.069.014-.1.022c-.06.013-.121.028-.18.043l-.062.016a.285.285,0,0,0-.039.011c-.032.007-.063.016-.095.026-.11.031-.218.065-.326.1-.048.016-.095.033-.142.051a.013.013,0,0,0-.008,0l-.026.011c-.04.013-.079.029-.118.044l-.094.037-.039.017-.07.03-.1.042-.064.03-.081.038-.06.028-.085.044c-.049.024-.1.049-.143.075l-.141.079-.038.021c-.034.02-.067.039-.1.06s-.081.049-.121.075l-.043.028-.057.037c-.061.04-.122.081-.181.123h0l-.082.061c-.036.027-.073.053-.109.082s-.044.033-.064.05c-.084.066-.166.134-.247.2l-.063.055-.02.017-.037.035-.024.022-.061.056c-.05.046-.1.093-.146.142h0c-.049.048-.1.1-.142.147s-.106.114-.158.173c-.028.032-.057.064-.083.1l-.059.071c-.122.148-.237.3-.345.46l-.053.079c-.035.052-.07.106-.1.16a6.635,6.635,0,0,0-.362.662c-.014.029-.028.058-.042.087s-.038.086-.057.13-.044.1-.064.153-.043.106-.063.159c-.009.023-.018.046-.026.07s-.025.067-.035.1c-.017.049-.034.1-.049.148v0q-.02.061-.037.125c-.016.051-.03.1-.043.151-.005.019-.011.036-.015.055s-.01.036-.014.056c-.012.047-.023.093-.034.14s-.02.094-.03.142c0,.018-.008.036-.011.054a6.655,6.655,0,0,0-.115.946c-.008.114-.01.229-.01.344a6.623,6.623,0,0,0,.035.68c.005.057.011.113.019.169s.013.112.023.166.02.123.031.185c.005.034.012.067.02.1,0,.014.005.028.009.043l.008.041c.008.04.017.08.027.121.015.064.03.127.047.19.01.044.022.087.035.13s.03.106.046.158c.031.1.066.207.1.309.018.051.037.1.058.153s.041.1.062.15.044.1.066.149l.019.043c.039.084.079.167.121.249s.1.189.154.282h0c.053.092.109.184.167.274.029.045.059.089.089.134.06.089.122.176.186.261,0,0,0,0,0,0,.057.075.114.147.171.218q.064.079.13.154c.035.041.07.08.106.12l.015.018q.037.043.077.083l.017.017.016.017c.061.067.126.131.193.193l.017.016.023.023c.023.023.047.044.071.065.047.044.094.086.143.128s.1.082.143.121.068.057.1.083c.093.073.188.144.286.212.034.024.067.048.1.071l.1.064.037.023.068.043c.023.015.045.029.068.043.046.029.091.056.139.082.075.043.149.084.225.124l.039.02c.051.027.1.052.154.077l.156.074c.05.024.1.044.149.065s.1.042.15.061.076.031.114.044l.038.013.068.025q.2.069.4.127l.033.01.126.034c.053.014.106.028.161.039s.081.02.122.027l.122.024.083.016c.048.01.093.017.14.024l.024,0c.085.012.17.024.256.033l.087.011c.053.006.1.012.157.013h.006c.056.006.111.01.167.012s.085,0,.128,0h.043l.044,0,.128,0h20.411l.131,0c.087,0,.174.007.26.013s.159.011.238.018h.015l.014,0,.189.02.094.011.013,0,.08.011.026,0,.159.025.031.005.079.013c.109.02.218.042.326.067.083.019.164.038.245.059l.079.02c.027.006.053.013.079.021l.131.039.042.012q.316.094.619.215l.183.075.046.019.047.02.021.01c.083.036.165.074.246.114.059.028.118.058.177.088.116.06.233.122.345.187.036.02.071.041.106.063a.074.074,0,0,1,.018.011c.076.045.153.092.227.141.05.032.1.064.147.1l.108.074.044.032c.046.033.092.066.138.1l.054.041c.018.012.036.026.053.041.044.034.088.068.131.1.016.012.033.025.049.039l.126.1c.053.045.107.091.159.139s.1.09.148.136.1.091.145.139l.048.047c.027.026.052.051.077.078l.076.08c.074.076.145.154.214.233l.068.079a.213.213,0,0,1,.023.027l.051.06q.246.3.464.616c.035.05.069.1.1.153s.074.115.109.173l.05.083c.018.027.034.055.05.083.032.055.063.109.094.165l0,.006.048.09c.03.055.059.11.086.166s.044.087.066.131c0,0,0,0,0,0,.022.044.043.09.063.135s.041.09.06.135c.041.09.079.182.115.275.048.123.093.249.137.375.013.037.026.075.037.114s.015.049.023.074.02.065.029.1.019.064.027.1.023.083.035.124.021.08.031.121c.023.09.043.181.063.272.011.053.022.108.033.162.007.035.013.069.02.1a0,0,0,0,1,0,0l.016.1c.01.054.019.108.026.163s.013.091.019.138a.022.022,0,0,1,0,.007q.007.045.011.091c0,.04.009.081.012.121,0,.022,0,.044.007.066s0,.049.006.073,0,.034,0,.051,0,.026,0,.039c0,.05.007.1.01.151s0,.084.005.126,0,.054,0,.081,0,.055,0,.083c0,.05,0,.1,0,.149s0,.1,0,.146c0,.028,0,.055,0,.083s0,.081,0,.121c0,.021,0,.042,0,.063v.006c0,.019,0,.037,0,.056s0,.062-.005.093,0,.062-.008.093,0,.057-.006.085,0,.057-.008.085,0,.047-.007.071c-.005.052-.012.1-.019.155s-.012.091-.02.138c0,.03-.009.059-.014.09-.007.051-.016.1-.025.154s-.018.094-.027.14-.017.087-.027.13-.02.1-.032.146-.025.1-.038.157-.024.092-.037.138c-.006.025-.013.051-.021.075-.022.077-.044.154-.068.229-.011.038-.023.075-.036.113s-.026.075-.039.113c-.024.071-.05.14-.076.21-.012.034-.026.067-.039.1s-.027.067-.041.1c-.028.067-.056.133-.085.2-.013.03-.026.059-.04.089-.054.12-.112.239-.173.355-.035.067-.072.136-.109.2l-.053.1c-.019.032-.037.065-.057.1-.039.068-.08.134-.123.2-.01.017-.021.035-.032.051l-.065.1,0,0c-.037.056-.075.112-.113.166a8.026,8.026,0,0,1-.5.638l-.059.068c-.021.026-.044.051-.068.077s-.046.051-.07.077c-.051.058-.106.114-.16.169l-.086.087c-.028.029-.058.058-.087.085s-.059.057-.089.084-.059.055-.09.083c-.048.044-.1.087-.146.13-.029.025-.058.051-.089.075s-.059.05-.089.073l-.058.048c-.075.061-.153.121-.23.178s-.179.131-.272.194q-.181.125-.369.24l-.169.1-.089.05-.041.022c-.043.024-.086.048-.13.07s-.1.054-.157.081l-.016.008-.018.008c-.059.03-.12.059-.18.087-.2.092-.4.177-.605.252l-.067.024q-.108.04-.218.074c-.035.012-.072.023-.108.035l-.1.029c-.037.011-.075.023-.113.033-.054.016-.108.03-.162.044a.054.054,0,0,1-.016,0c-.13.033-.26.063-.392.091l-.2.038-.176.029-.024,0-.153.021-.146.019h0c-.108.012-.217.023-.327.031-.064.005-.128.01-.193.012h-.038l-.045,0-.122,0c-.069,0-.139,0-.209,0H178.281l-.152,0c-.056,0-.112,0-.167.007-.095.006-.19.015-.283.025l-.147.019-.049.006-.1.016-.073.013c-.025,0-.049.009-.073.014l-.072.015c-.125.027-.249.058-.37.094-.046.013-.092.028-.138.043l-.032.01-.15.052-.01,0-.157.061-.02.007-.071.03-.1.043c-.078.035-.154.071-.229.11l-.039.02-.147.081c-.038.021-.076.043-.114.067-.058.034-.115.069-.17.106s-.1.068-.153.1l-.046.034a5.2,5.2,0,0,0-.649.551c-.037.037-.074.075-.109.113-.017.017-.032.034-.047.051s-.028.03-.041.045-.041.044-.06.067l-.018.02c-.015.019-.031.038-.048.057l-.016.02c-.027.032-.053.065-.079.1s-.052.067-.077.1-.033.044-.049.067c-.05.068-.1.138-.143.208a5.121,5.121,0,0,0-.438.821c-.017.039-.033.078-.048.118s-.023.058-.033.086-.024.065-.036.1v0c-.011.03-.022.061-.032.093h0c-.015.044-.028.089-.042.133l-.008.025-.032.114q-.011.036-.019.072c0,.014-.008.029-.012.044s-.011.044-.015.065l0,.009q-.015.063-.027.125c-.01.043-.018.085-.025.128s-.013.078-.019.118-.011.07-.015.106-.006.051-.01.076-.005.042-.007.063,0,.043-.006.064l-.005.051c0,.012,0,.024,0,.036,0,.039-.006.077-.008.115,0,.012,0,.023,0,.036,0,.034,0,.068-.005.1v.024c0,.044,0,.09,0,.135,0,.062,0,.123,0,.185v.013c0,.025,0,.049,0,.072,0,.09.011.178.02.266,0,.005,0,.011,0,.016s0,.017,0,.026c0,.028.006.056.01.083,0,.012,0,.024.005.036s.005.044.009.067l.005.032c.019.124.042.246.069.367.007.033.014.065.023.1.025.1.052.2.083.3q.019.061.04.122c.035.107.075.213.119.317.013.033.028.066.042.1s.019.045.03.067.031.068.048.1.039.081.059.12.038.075.059.113c.053.1.108.192.168.285l.065.1c.019.028.037.057.057.084l.042.061c.025.036.05.069.076.1.051.067.1.135.157.2l.032.04.013.014c.011.014.024.028.036.042.033.04.067.078.1.117.05.054.1.106.154.159h0c.059.059.12.117.181.173l.1.09.089.075c.065.053.13.106.2.155s.136.1.2.146.142.092.214.136.145.087.219.126l.111.059c.038.02.076.038.115.056.076.036.154.072.233.1.039.018.079.034.118.049l.118.046c.04.016.081.03.122.043.081.027.163.053.246.076.042.012.083.024.125.034l.126.03h0c.043.011.083.02.127.028h0c.043.01.084.019.128.025.088.016.178.029.267.041l.1.011c.053.006.106.011.161.015s.088.008.132.008h0l.135.005h.067c.023,0,.046,0,.068,0H185.9c.14,0,.281,0,.421.011.03,0,.058,0,.086,0l.186.011c.047,0,.093.005.139.01l.031,0,.059.005.01,0c.073.007.146.014.219.023s.146.018.218.029c.149.02.295.044.439.071h.012a.147.147,0,0,1,.028.005.007.007,0,0,1,.006,0c.11.023.221.045.328.071l.139.031a.117.117,0,0,1,.026.005.073.073,0,0,1,.021.005l.023.006.071.02c.074.016.145.036.217.058s.16.044.239.068l.019.005.018.007.1.031.1.033.059.02.063.022.073.028c.04.013.078.028.118.043.09.032.178.067.265.1.042.018.084.035.125.053.137.057.272.117.4.184l.087.041c.1.05.2.1.3.156l.073.04c.03.017.059.034.088.051.072.039.143.081.215.122.041.024.083.05.123.076.1.064.209.13.311.2a.15.15,0,0,1,.023.013l.02.014.077.051.077.054c.04.028.08.057.118.084l.035.024.039.028.031.024.052.042c.087.066.176.134.26.206a1.607,1.607,0,0,1,.154.13,1.693,1.693,0,0,1,.138.117c.057.048.113.1.171.152.1.091.2.185.293.28l.123.126c.042.043.082.085.122.129s.1.112.152.167l.042.047c.053.06.107.122.158.185s.112.135.166.2l.053.069c.016.02.032.04.047.06s.018.021.026.033l.045.06c.044.059.089.12.131.18l0,0c.037.053.074.106.109.159.1.141.19.286.279.432.032.051.062.1.091.153l.029.051c.058.1.114.2.168.305.027.05.052.1.078.15.015.028.029.058.043.087.028.054.054.108.079.163.061.127.118.256.173.386l.037.091c.005.015.012.029.018.045q.1.253.19.513a.061.061,0,0,1,0,.012c.02.063.042.126.061.19.006.019.012.039.018.059.019.057.036.114.051.171.009.028.017.056.024.084.013.045.024.09.036.135,0,.012.006.024.009.036q.035.13.064.261c.018.075.034.148.049.224s.029.146.043.22c0,.012,0,.023.006.035q.02.114.037.229c.012.078.023.155.033.234a.228.228,0,0,1,0,.024c0,.017,0,.035.006.051.007.058.013.114.019.172a.044.044,0,0,0,0,.011c.006.065.012.13.018.2,0,.047.007.094.01.141s.007.115.01.174c0,.025,0,.05,0,.075,0,.054.005.108.006.163a.051.051,0,0,1,0,.012c0,.082,0,.163,0,.245v0c0,.084,0,.169,0,.253,0,.032,0,.063,0,.1s0,.077-.005.116l0,0v0h0c0,.012,0,.025,0,.036,0,.038,0,.075-.006.112a.007.007,0,0,1,0,0,.025.025,0,0,1,0,.009c0,.042-.005.084-.009.126,0,.017,0,.033,0,.05,0,.057-.01.113-.015.169v0l-.011.1c-.006.057-.012.113-.02.169l0,.005c0,.03-.009.061-.012.092s-.008.059-.012.09l-.008.052c-.013.093-.029.185-.046.277-.011.066-.024.131-.037.2,0,.016-.006.032-.01.047-.013.064-.027.126-.042.189s-.026.114-.041.17l-.035.13c-.006.03-.014.06-.022.091l-.027.091c-.01.035-.018.067-.027.1-.015.054-.031.108-.049.162s-.028.094-.044.14l0,.008-.011.029q-.072.222-.156.438-.016.045-.035.091c-.029.074-.06.147-.091.22s-.052.121-.08.181h0c-.031.072-.066.144-.1.216l-.08.161-.007.015c-.024.048-.05.1-.075.143-.007.014-.015.028-.023.043q-.032.061-.067.122c-.022.042-.046.083-.07.125-.012.022-.025.044-.039.067-.03.053-.061.107-.094.16s-.083.135-.125.2-.085.132-.13.2-.07.1-.106.156c-.011.014-.02.028-.027.039-.019.027-.039.051-.059.077s-.025.035-.038.051l-.045.061c-.024.033-.048.065-.074.1s-.06.079-.091.117-.048.061-.073.091l-.042.05c-.072.088-.145.175-.22.259l-.042.047-.017.019c-.039.044-.079.087-.119.13,0,0,0,0,0,0l-.021.023c-.117.126-.238.248-.361.367l-.073.068c-.031.03-.062.059-.093.087l-.093.084c-.028.027-.058.052-.087.077q-.274.241-.564.458c-.028.022-.058.044-.087.065l-.146.106-.175.121c-.071.048-.143.1-.216.142l-.183.114-.035.021-.052.031-.1.056c-.114.066-.228.129-.344.189l-.154.08-.043.022-.113.057-.215.1c-.073.033-.146.065-.219.1l-.157.065-.133.052-.173.066c-.08.03-.16.058-.24.086-.044.013-.088.028-.132.04q-.1.033-.2.061l-.071.02c-.028.009-.055.017-.083.024l-.083.022-.071.02c-.138.036-.278.07-.419.1h0l-.115.024-.02.005-.1.019a.029.029,0,0,1-.02,0l-.012,0-.115.02c-.141.025-.284.046-.428.065-.1.014-.21.025-.315.036-.013,0-.03,0-.05,0-.126.012-.254.019-.382.026-.036,0-.073,0-.11,0-.131.007-.264.01-.4.01H25.047c-.16,0-.32,0-.477-.012a.041.041,0,0,1-.018,0l-.125-.006-.085-.005c-.067,0-.133-.009-.2-.015-.036,0-.073-.005-.109-.01l-.1-.01c-.088-.008-.176-.019-.263-.03-.065-.008-.13-.017-.193-.027l-.01,0-.129-.02-.028,0c-.084-.013-.168-.028-.251-.044-.146-.028-.288-.058-.431-.091l-.154-.038-.036-.009-.085-.022-.205-.055c-.083-.024-.167-.049-.249-.075s-.165-.052-.248-.081-.143-.049-.214-.075l-.078-.028-.129-.049-.109-.044c-.072-.028-.143-.057-.213-.087q-.266-.113-.526-.242c-.129-.061-.256-.127-.381-.2q-.154-.085-.305-.173c-.12-.07-.238-.142-.354-.217-.194-.125-.385-.256-.571-.393-.049-.036-.1-.073-.146-.111-.066-.05-.13-.1-.2-.153l-.157-.129-.121-.1-.083-.071c-.091-.081-.181-.162-.27-.247l-.12-.115c-.05-.047-.1-.1-.146-.144-.019-.018-.037-.037-.055-.056l-.054-.056c-.065-.067-.13-.136-.193-.2s-.125-.139-.186-.21L17,106.378c-.022-.026-.044-.051-.065-.078l-.05-.059c-.056-.067-.11-.136-.165-.2l-.044-.056c-.026-.032-.051-.064-.074-.1l-.079-.106c-.091-.122-.177-.244-.262-.369-.041-.06-.081-.122-.12-.183-.029-.045-.059-.091-.087-.138l-.068-.112-.052-.088c-.012-.019-.023-.037-.034-.057l-.059-.1c-.028-.047-.055-.1-.081-.143s-.036-.068-.055-.1c-.059-.107-.114-.216-.167-.326-.021-.043-.043-.086-.062-.13s-.041-.086-.06-.13-.037-.082-.055-.122q-.055-.12-.1-.242c-.017-.038-.032-.077-.048-.116-.071-.178-.138-.359-.2-.542-.017-.046-.032-.092-.046-.139l-.011-.038c-.005-.016-.01-.032-.015-.047-.011-.036-.023-.072-.033-.108a.186.186,0,0,1-.009-.029c-.011-.037-.022-.075-.033-.113l-.037-.136c-.012-.046-.024-.091-.036-.138s-.019-.071-.027-.106a.235.235,0,0,1-.008-.035c-.008-.031-.015-.061-.022-.092s-.015-.069-.023-.1-.015-.068-.022-.1l-.021-.1c-.009-.043-.017-.084-.024-.127-.014-.074-.028-.151-.039-.226-.01-.056-.019-.113-.028-.17-.018-.118-.034-.236-.045-.355,0-.025-.006-.051-.01-.076s0-.03,0-.045c-.006-.054-.011-.109-.015-.164s-.011-.131-.015-.2c0-.034-.005-.067-.006-.1s-.005-.084-.006-.127-.005-.108-.006-.162c0-.019,0-.038,0-.058,0-.045,0-.091,0-.136s0-.091,0-.137V94.7c0-.023,0-.044,0-.067s0-.028,0-.042,0-.018,0-.027c0-.028,0-.056,0-.083s0-.066-.006-.1a.03.03,0,0,1,0-.009l0-.038c0-.049-.009-.1-.015-.143,0-.012,0-.023,0-.035,0-.036-.009-.071-.014-.106s-.011-.071-.018-.107c-.009-.051-.019-.1-.03-.15-.005-.027-.011-.053-.018-.08s-.013-.055-.02-.082l0-.012c-.014-.056-.029-.11-.046-.164-.006-.021-.013-.043-.02-.064s-.013-.042-.02-.063-.011-.033-.017-.05a.325.325,0,0,0-.011-.031c-.021-.059-.044-.117-.067-.175,0-.012-.01-.025-.015-.037s-.012-.026-.018-.039c-.013-.032-.027-.065-.043-.1s-.035-.074-.053-.111-.024-.048-.036-.071-.019-.038-.03-.057l-.032-.056a.326.326,0,0,0-.019-.035h0c-.012-.022-.025-.044-.038-.066s-.033-.055-.05-.082l-.044-.067q-.039-.06-.08-.117a.167.167,0,0,0-.018-.026c-.011-.017-.023-.034-.036-.051a.2.2,0,0,0-.017-.022l-.035-.047c-.031-.041-.064-.081-.1-.121l0-.005c-.019-.023-.038-.045-.058-.067l-.068-.077c-.016-.019-.035-.038-.053-.057l-.027-.027v0l0,0,0,0-.057-.058c-.019-.019-.038-.039-.058-.057l-.034-.034c-.068-.064-.139-.126-.212-.185-.027-.022-.052-.044-.08-.065l-.068-.052-.014-.009c-.052-.039-.106-.077-.16-.114l-.008-.006c-.038-.025-.076-.049-.115-.074s-.094-.06-.142-.088l-.108-.06-.078-.041c-.061-.031-.124-.061-.187-.09l-.067-.028-.027-.012-.04-.016-.059-.024a.04.04,0,0,0-.014-.005L11.71,90.7q-.049-.02-.1-.037l-.112-.038c-.028-.01-.058-.019-.086-.027-.084-.026-.17-.049-.257-.068l-.1-.022-.006,0h-.007l-.117-.022-.115-.019-.031,0c-.072-.01-.146-.016-.219-.023l-.152-.01-.092,0-.122,0a3.807,3.807,0,0,1-3.8-3.8V83.748a.228.228,0,0,1,0-.025.235.235,0,0,1,0-.025c0-.048,0-.1,0-.143a.073.073,0,0,1,0-.014c0-.039,0-.079.008-.118,0-.015,0-.029,0-.044s.006-.059.01-.088c.009-.07.019-.139.031-.209.006-.034.012-.068.019-.1q.029-.14.067-.274c.008-.03.017-.06.027-.09.019-.059.039-.119.06-.177s.044-.116.068-.173.05-.113.076-.169.048-.1.073-.144.049-.088.074-.131.059-.1.091-.146.06-.089.091-.132.054-.076.083-.112l.049-.063.051-.062c.02-.024.041-.049.063-.073l.044-.048c.013-.015.027-.03.041-.044L7.46,81.1c.028-.029.055-.057.084-.085s.059-.056.088-.083.069-.061.1-.092.069-.057.1-.084l.109-.083c.036-.027.074-.052.111-.077s.063-.043.1-.063l.13-.079.031-.018.058-.032c.074-.04.149-.078.225-.113.031-.015.064-.029.1-.043.089-.038.18-.073.272-.1l.143-.045.074-.02q.074-.021.149-.037l.133-.028c.034-.007.067-.012.1-.018l.145-.021.157-.016c.1-.008.209-.012.316-.012H20.711c.07,0,.14,0,.209,0h.014l.194-.008c.062,0,.123-.006.185-.012.038,0,.076-.005.114-.01.053,0,.106-.009.158-.015s.107-.011.161-.019.1-.012.151-.02l.034-.005c.071-.011.141-.022.211-.035l.13-.025.077-.015.035-.006c.05-.012.1-.021.15-.034l.032-.007c.059-.013.117-.027.177-.044s.091-.023.135-.036l.059-.017.038-.011c.115-.032.23-.068.343-.106.063-.021.126-.044.188-.067.089-.032.177-.067.264-.1.036-.013.07-.028.1-.043l.091-.041c.1-.043.2-.088.3-.137l.061-.029.065-.034c.02-.009.042-.02.062-.031l.085-.044.051-.027c.058-.031.114-.063.171-.1s.113-.066.169-.1.112-.068.167-.1c.11-.069.218-.143.324-.219h0l.157-.115.019-.013c.038-.029.078-.058.116-.09.021-.016.042-.033.062-.05.088-.069.174-.141.259-.215l.019-.015c.037-.031.073-.063.108-.1l.02-.019.029-.027c.033-.028.065-.059.1-.09l.07-.067c.029-.028.058-.055.086-.084h0q.208-.206.4-.429a8.09,8.09,0,0,0,1.984-5.32c0-.039,0-.078,0-.116s0-.076,0-.114c0-.014,0-.028,0-.043a.194.194,0,0,0,0-.032l0-.043c0-.034,0-.067-.005-.1s0-.043,0-.064a.01.01,0,0,0,0-.007l-.005-.062c0-.03,0-.06-.006-.091s0-.048-.006-.072,0-.04-.006-.06-.005-.064-.009-.095a.169.169,0,0,0,0-.022c0-.029-.007-.059-.012-.088l-.005-.048c-.012-.1-.028-.208-.046-.311-.006-.036-.013-.074-.02-.111-.019-.1-.04-.207-.063-.309l0-.013c-.011-.045-.021-.091-.033-.136-.029-.123-.062-.246-.1-.367-.012-.042-.025-.083-.038-.125s-.027-.087-.043-.131c0-.014-.008-.028-.012-.042s-.016-.047-.025-.07-.015-.045-.023-.067-.015-.038-.022-.057-.016-.046-.025-.069-.021-.058-.033-.086-.027-.069-.041-.1l-.029-.071c-.02-.046-.039-.091-.059-.137l-.027-.061c-.009-.021-.019-.042-.028-.062-.04-.089-.083-.178-.127-.265s-.078-.154-.12-.23-.067-.122-.1-.181-.054-.094-.083-.14a.4.4,0,0,0-.023-.037c-.014-.024-.029-.049-.044-.072-.042-.067-.084-.135-.13-.2a.42.42,0,0,0-.024-.036c-.032-.047-.065-.093-.1-.14s-.069-.1-.1-.144l-.061-.082c-.011-.016-.024-.032-.037-.048l-.069-.088a.475.475,0,0,0-.037-.048c-.042-.053-.085-.106-.13-.157l-.093-.107-.008-.01c-.008-.011-.018-.021-.028-.033a.11.11,0,0,0-.014-.015l-.065-.072c-.026-.028-.052-.058-.08-.086l-.059-.061c-.1-.1-.2-.2-.3-.3-.062-.059-.126-.117-.19-.172-.037-.033-.076-.064-.113-.1-.065-.056-.13-.111-.2-.163s-.146-.115-.22-.17-.138-.1-.209-.149l-.142-.1-.048-.032-.024-.015h0q-.108-.071-.217-.137c-.049-.03-.1-.059-.147-.087-.114-.065-.229-.128-.345-.187L24.28,64.5l-.067-.032c-.067-.033-.134-.064-.2-.093s-.109-.049-.164-.072c-.094-.039-.188-.076-.283-.112-.04-.015-.079-.03-.119-.044l-.083-.029-.071-.023q-.109-.037-.218-.069c-.06-.019-.121-.036-.182-.053l-.008,0a.145.145,0,0,0-.032-.009l-.011,0c-.07-.02-.14-.038-.211-.054l-.108-.026-.109-.024c-.068-.014-.136-.027-.2-.039l-.089-.016-.135-.023-.121-.018-.2-.026-.2-.021h0l-.106-.009c-.1-.008-.192-.014-.289-.018-.033,0-.067,0-.1,0h-.007l-.128,0H6.665a6.649,6.649,0,0,1-1.824-.253l-.157-.047c-.1-.032-.208-.067-.31-.1a6.688,6.688,0,0,1-.886-.4c-.189-.1-.372-.214-.549-.334l-.132-.091a6.706,6.706,0,0,1-.855-.722h0q-.113-.113-.221-.232c-.072-.079-.141-.159-.209-.241a6.658,6.658,0,0,1-.473-.648c-.058-.09-.113-.181-.166-.273a6.687,6.687,0,0,1-.848-4c.011-.106.024-.209.04-.313,0-.016,0-.032.007-.048.015-.1.034-.2.054-.3s.041-.19.065-.283q.009-.041.021-.083c.038-.146.081-.288.13-.43a6.658,6.658,0,0,1,1.6-2.575h0a6.648,6.648,0,0,1,4.709-1.949h9.98a8,8,0,0,0,8-8,11.661,11.661,0,0,1,11.66-11.66H73.655a6.757,6.757,0,0,0,4.126-1.4,6.574,6.574,0,0,0,.669-.586,6.781,6.781,0,0,0-4.8-11.574H60.041A8.562,8.562,0,0,1,60.041,0H161.913c.072,0,.139,0,.211.005a6.065,6.065,0,0,1,5.86,6.065v7.739a3.312,3.312,0,0,0,3.315,3.313,4.9,4.9,0,0,1,4.9,4.9,8.657,8.657,0,0,0,8.363,8.653c.1,0,.2.005.295.005h19.309A9.832,9.832,0,0,1,214,40.517" transform="translate(0 -0.002)" fill="#d8e9ff"/>
                </g>
              </g>
            </g>
            <path id="Path_130166" data-name="Path 130166" d="M208.12,436.063h2.32a9.805,9.805,0,0,1-6.271,2.257H174.627a6.665,6.665,0,0,0,0,13.329h20.279a8.134,8.134,0,0,1,0,16.268H178.281a5.239,5.239,0,1,0,0,10.478h7.624a9.832,9.832,0,0,1,0,19.664H25.047a10.583,10.583,0,0,1-10.582-10.582v-4.806a4.271,4.271,0,0,0-4.275-4.275,3.806,3.806,0,0,1-3.805-3.805v-2.87a3.8,3.8,0,0,1,3.805-3.8H20.711a8.134,8.134,0,0,0,0-16.268H6.665a6.664,6.664,0,0,1-4.71-11.38v1.641H5.579V439.75l4.272.019v-3.505h.861v-.693h.113v.693h3.3v0h.66v-.7H14.9v.7h.795v6.967h5.089V445.8h2.826v-1.49h2.623V438.4h1.309V435.64h.2V438.4h3.134v-5.169h.308V438.4h2.073v-.071h0v-.657h0v-.621h0v-1.034h0v-.657h0v-1.034h0v-.66h0v-1.034h0v-.712h0v-1.034h0v-.907h0v-1.034h0v-.685h.619v-.773h.1v.773h4.578v-.773h.1v.773h.836v5.405l.588,0v0h-.006v-1.034h.006v-.712h-.006v-1.034h.006v-.709h-.006V429.14h.006v0h5.551v0h.954l.148.082v6.893h1.023v-1H59.464v7.745h3.58V428.541h.778v-1h.14v1h2.824v-1h.14v1h4v-1h.14v1h2.518v-1h.137v1h1.037v13.37h3.954V439.75l4.663.019v-3.505h.94v-.693h.124v.693h3.6v0h.72v-.7h.124v.7h.869v6.967h5.551V445.8h3.088v-1.49h2.862V438.4h1.43V435.64h.214V438.4h3.423v-5.169h.335V438.4h3.907v-9.125H121.3v7.745h3.28V422.693h.712v-1h.126v1h2.59v-1h.129v1H131.8v-1h.129v1h2.307v-1h.126v1h.949v13.37h3.624V433.9l4.273.019v-3.505h.861v-.693h.113v.693h3.3v0h.66v-.7h.113v.7h.8v6.967h5.086v2.565h2.829v-1.49h2.623v-5.911H160.9v-2.758h.2v2.758h3.134V427.38h.308v5.169h2.076v-.071h0v-.657h0V431.2h0v-1.034h0v-.657h0v-1.034h0v-.66h0v-1.034h0v-.712h0v-1.034h0v-.907h0v-1.034h0v-.685h.616v-.773h.1v.773h4.581v-.773h.1v.773h.836v5.405l.588,0v0h-.006v-1.034h.006v-.712h-.006v-1.034h.006v-.709h-.006v-1.034h.006v0h5.551v0h.954l.148.082v6.89h1.023v-.993h11.718v7.745H196.4V422.693h.778v-1h.14v1h2.826v-1h.137v1h4v-1h.14v1h2.518v-1h.137v1h1.037Z" transform="translate(0 -387.975)" fill="#dceafb"/>
            <path id="Path_130167" data-name="Path 130167" d="M2656.627,575.262q-.148.223-.305.437v-.437Z" transform="translate(-2444.249 -529.335)" fill="#dceafb"/>
          </g>
        </g>
      </g>
    </g>
    <rect id="Rectangle_38440" data-name="Rectangle 38440" width="195" height="3" transform="translate(469 1118)" fill="#11004a"/>
    <g id="Group_23681" data-name="Group 23681" transform="translate(14.457 60)">
      <g id="Group_23680" data-name="Group 23680" transform="translate(473.543 937.766)">
        <g id="Group_23679" data-name="Group 23679" transform="translate(0 -0.001)" clip-path="url(#clip-path-4)">
          <path id="Path_130168" data-name="Path 130168" d="M190.529,1532.644H44.465a1.619,1.619,0,0,1,0-3.239H190.529a1.619,1.619,0,1,1,0,3.239" transform="translate(-39.615 -1414.061)" fill="#0078bf"/>
          <path id="Path_130169" data-name="Path 130169" d="M152.968,1450.88H3.655A3.655,3.655,0,0,1,0,1447.225a3.42,3.42,0,0,1,3.42-3.42H152.968a3.538,3.538,0,1,1,0,7.075" transform="translate(0 -1334.917)" fill="#fe9d2b"/>
          <rect id="Rectangle_38441" data-name="Rectangle 38441" width="0.558" height="5.834" transform="translate(95.691 58.326)" fill="#3c454d"/>
          <rect id="Rectangle_38442" data-name="Rectangle 38442" width="7.918" height="27.67" transform="translate(95.691 70.768)" fill="#b9e6fb"/>
          <path id="Path_130170" data-name="Path 130170" d="M1268.811,839.265v7.473h7.918s-1.144-7.473-7.918-7.473" transform="translate(-1173.12 -775.97)" fill="#d3effd"/>
          <rect id="Rectangle_38443" data-name="Rectangle 38443" width="6.671" height="1.264" transform="translate(95.691 72.571)" fill="#008bbe"/>
          <rect id="Rectangle_38444" data-name="Rectangle 38444" width="6.671" height="0.632" transform="translate(95.691 72.571)" fill="#0063b0"/>
          <rect id="Rectangle_38445" data-name="Rectangle 38445" width="6.671" height="1.264" transform="translate(95.691 74.414)" fill="#008bbe"/>
          <rect id="Rectangle_38446" data-name="Rectangle 38446" width="6.671" height="0.632" transform="translate(95.691 74.414)" fill="#0063b0"/>
          <rect id="Rectangle_38447" data-name="Rectangle 38447" width="6.671" height="1.264" transform="translate(95.691 76.257)" fill="#008bbe"/>
          <rect id="Rectangle_38448" data-name="Rectangle 38448" width="6.671" height="1.264" transform="translate(95.691 79.128)" fill="#008bbe"/>
          <rect id="Rectangle_38449" data-name="Rectangle 38449" width="6.671" height="1.264" transform="translate(95.691 80.971)" fill="#008bbe"/>
          <rect id="Rectangle_38450" data-name="Rectangle 38450" width="6.671" height="1.264" transform="translate(95.691 82.815)" fill="#008bbe"/>
          <rect id="Rectangle_38451" data-name="Rectangle 38451" width="6.671" height="1.264" transform="translate(95.691 85.864)" fill="#008bbe"/>
          <rect id="Rectangle_38452" data-name="Rectangle 38452" width="6.671" height="1.264" transform="translate(95.691 87.707)" fill="#008bbe"/>
          <rect id="Rectangle_38453" data-name="Rectangle 38453" width="6.671" height="1.264" transform="translate(95.691 89.55)" fill="#008bbe"/>
          <rect id="Rectangle_38454" data-name="Rectangle 38454" width="6.671" height="0.632" transform="translate(95.691 76.257)" fill="#0063b0"/>
          <rect id="Rectangle_38455" data-name="Rectangle 38455" width="6.671" height="0.566" transform="translate(95.691 79.246)" fill="#0063b0"/>
          <rect id="Rectangle_38456" data-name="Rectangle 38456" width="6.671" height="0.566" transform="translate(95.691 81.03)" fill="#0063b0"/>
          <rect id="Rectangle_38457" data-name="Rectangle 38457" width="6.671" height="0.566" transform="translate(95.691 82.876)" fill="#0063b0"/>
          <rect id="Rectangle_38458" data-name="Rectangle 38458" width="6.671" height="0.566" transform="translate(95.691 85.925)" fill="#0063b0"/>
          <rect id="Rectangle_38459" data-name="Rectangle 38459" width="6.671" height="0.566" transform="translate(95.691 87.738)" fill="#0063b0"/>
          <rect id="Rectangle_38460" data-name="Rectangle 38460" width="6.671" height="0.567" transform="translate(95.691 89.55)" fill="#0063b0"/>
          <rect id="Rectangle_38461" data-name="Rectangle 38461" width="1.839" height="3.136" transform="translate(95.691 66.396)" fill="#008bbe"/>
          <rect id="Rectangle_38462" data-name="Rectangle 38462" width="1.062" height="3.101" transform="translate(96.467 66.431)" fill="#0063b0"/>
          <rect id="Rectangle_38463" data-name="Rectangle 38463" width="0.592" height="2.831" transform="translate(98.106 66.701)" fill="#0063b0"/>
          <rect id="Rectangle_38464" data-name="Rectangle 38464" width="0.592" height="2.831" transform="translate(99.354 66.701)" fill="#0063b0"/>
          <path id="Path_130171" data-name="Path 130171" d="M221.649,1563.133H80.686a1.619,1.619,0,0,1,0-3.239H221.649a1.619,1.619,0,1,1,0,3.239" transform="translate(-73.104 -1442.251)" fill="#3b8ac9"/>
          <rect id="Rectangle_38465" data-name="Rectangle 38465" width="21.421" height="2.786" transform="translate(123.132 68.38)" fill="#f77e0b"/>
          <rect id="Rectangle_38466" data-name="Rectangle 38466" width="2.786" height="30.788" transform="translate(123.132 71.037)" fill="#f77e0b"/>
          <path id="Path_130172" data-name="Path 130172" d="M1652.537,926.418l-1.393-1.264v32.052h1.393Z" transform="translate(-1526.619 -855.381)" fill="#c1611a"/>
          <rect id="Rectangle_38467" data-name="Rectangle 38467" width="2.786" height="30.788" transform="translate(141.767 71.037)" fill="#f77e0b"/>
          <path id="Path_130173" data-name="Path 130173" d="M1879.758,926.546l1.393-1.393v32.052h-1.393Z" transform="translate(-1737.992 -855.38)" fill="#c1611a"/>
          <path id="Path_130174" data-name="Path 130174" d="M1668.386,926.546l1.393-1.393h-18.634l1.393,1.393Z" transform="translate(-1526.619 -855.38)" fill="#a04b1b"/>
          <path id="Path_130175" data-name="Path 130175" d="M156.506,1446.491H0a2.688,2.688,0,0,1,2.688-2.687H153.818a2.688,2.688,0,0,1,2.688,2.688" transform="translate(0 -1334.916)" fill="#45a735"/>
          <rect id="Rectangle_38468" data-name="Rectangle 38468" width="1.61" height="70.778" transform="translate(53.691 0)" fill="#8ba3be"/>
          <rect id="Rectangle_38469" data-name="Rectangle 38469" width="3.22" height="50.236" transform="translate(53.86 22.025)" fill="#74bae8"/>
          <rect id="Rectangle_38470" data-name="Rectangle 38470" width="3.22" height="50.236" transform="translate(51.275 22.025)" fill="#9fceef"/>
          <rect id="Rectangle_38471" data-name="Rectangle 38471" width="5.653" height="50.236" transform="translate(54.648 41.776)" fill="#0088b0"/>
          <rect id="Rectangle_38472" data-name="Rectangle 38472" width="6.548" height="60.756" transform="translate(51.821 41.776)" fill="#009cdc"/>
          <rect id="Rectangle_38473" data-name="Rectangle 38473" width="4.803" height="39.478" transform="translate(58.888 63.054)" fill="#007595"/>
          <rect id="Rectangle_38474" data-name="Rectangle 38474" width="5.653" height="39.478" transform="translate(56.061 63.054)" fill="#008bbe"/>
          <rect id="Rectangle_38475" data-name="Rectangle 38475" width="5.313" height="68.598" transform="translate(46.507 33.933)" fill="#4ba0d0"/>
          <rect id="Rectangle_38476" data-name="Rectangle 38476" width="3.401" height="68.598" transform="translate(48.446 33.933)" fill="#74bae8"/>
          <rect id="Rectangle_38477" data-name="Rectangle 38477" width="5.948" height="50.156" transform="translate(44.187 52.376)" fill="#128eba"/>
          <rect id="Rectangle_38478" data-name="Rectangle 38478" width="4.82" height="50.156" transform="translate(47.001 52.376)" fill="#47aae2"/>
          <rect id="Rectangle_38479" data-name="Rectangle 38479" width="8.265" height="30.538" transform="translate(41.087 76.816)" fill="#0c7795"/>
          <rect id="Rectangle_38480" data-name="Rectangle 38480" width="7.675" height="30.392" transform="translate(44.146 76.816)" fill="#539dce"/>
          <rect id="Rectangle_38481" data-name="Rectangle 38481" width="36.038" height="6.655" transform="translate(33.829 102.532)" fill="#74bae8"/>
          <rect id="Rectangle_38482" data-name="Rectangle 38482" width="42.359" height="3.328" transform="translate(30.619 105.859)" fill="#cce3f6"/>
          <rect id="Rectangle_38483" data-name="Rectangle 38483" width="14.178" height="8.011" transform="translate(44.709 94.521)" fill="#9fceef"/>
          <rect id="Rectangle_38484" data-name="Rectangle 38484" width="7.111" height="8.011" transform="translate(44.709 94.521)" fill="#74bae8"/>
          <rect id="Rectangle_38485" data-name="Rectangle 38485" width="6.548" height="1.481" transform="translate(51.821 46.16)" fill="#6bb7e7"/>
          <rect id="Rectangle_38486" data-name="Rectangle 38486" width="3.389" height="1.481" transform="translate(48.44 46.16)" fill="#9fceef"/>
          <rect id="Rectangle_38487" data-name="Rectangle 38487" width="5.313" height="1.964" transform="translate(46.507 69.938)" fill="#9fceef"/>
          <rect id="Rectangle_38488" data-name="Rectangle 38488" width="7.675" height="1.964" transform="translate(44.146 83.765)" fill="#9fceef"/>
          <rect id="Rectangle_38489" data-name="Rectangle 38489" width="11.87" height="1.964" transform="translate(51.821 69.938)" fill="#9fceef"/>
          <rect id="Rectangle_38490" data-name="Rectangle 38490" width="4.24" height="1.964" transform="translate(51.821 69.938)" fill="#6bb7e7"/>
          <rect id="Rectangle_38491" data-name="Rectangle 38491" width="11.87" height="1.964" transform="translate(51.821 83.765)" fill="#9fceef"/>
          <rect id="Rectangle_38492" data-name="Rectangle 38492" width="4.24" height="1.964" transform="translate(51.821 83.765)" fill="#6bb7e7"/>
          <rect id="Rectangle_38493" data-name="Rectangle 38493" width="5.805" height="1.127" transform="translate(51.275 25.45)" fill="#386d94"/>
          <rect id="Rectangle_38494" data-name="Rectangle 38494" width="14.178" height="1.389" transform="translate(44.709 94.521)" fill="#d5e7f7"/>
          <rect id="Rectangle_38495" data-name="Rectangle 38495" width="14.178" height="1.389" transform="translate(44.709 95.916)" fill="#005a84"/>
          <rect id="Rectangle_38496" data-name="Rectangle 38496" width="7.63" height="1.032" transform="translate(56.061 63.054)" fill="#d5e7f7"/>
          <rect id="Rectangle_38497" data-name="Rectangle 38497" width="7.634" height="1.032" transform="translate(44.187 52.376)" fill="#cadeeb"/>
          <rect id="Rectangle_38498" data-name="Rectangle 38498" width="5.904" height="1.032" transform="translate(45.944 33.933)" fill="#d5e7f7"/>
          <rect id="Rectangle_38499" data-name="Rectangle 38499" width="8.48" height="1.032" transform="translate(51.821 41.776)" fill="#d5e7f7"/>
          <rect id="Rectangle_38500" data-name="Rectangle 38500" width="10.734" height="1.154" transform="translate(41.087 76.816)" fill="#d5e7f7"/>
          <rect id="Rectangle_38501" data-name="Rectangle 38501" width="3.059" height="1.964" transform="translate(41.087 83.765)" fill="#87a2b6"/>
          <rect id="Rectangle_38502" data-name="Rectangle 38502" width="1.964" height="1.964" transform="translate(61.714 83.765)" fill="#76abca"/>
          <rect id="Rectangle_38503" data-name="Rectangle 38503" width="1.964" height="1.964" transform="translate(61.714 69.938)" fill="#76abca"/>
          <rect id="Rectangle_38504" data-name="Rectangle 38504" width="1.964" height="1.481" transform="translate(58.369 46.16)" fill="#50a6d4"/>
          <rect id="Rectangle_38505" data-name="Rectangle 38505" width="2.815" height="1.964" transform="translate(44.187 69.938)" fill="#79afcf"/>
          <rect id="Rectangle_38506" data-name="Rectangle 38506" width="1.892" height="1.481" transform="translate(46.507 46.16)" fill="#81badb"/>
          <rect id="Rectangle_38507" data-name="Rectangle 38507" width="10.739" height="4.849" transform="translate(75.971 66.685)" fill="#3b8ac9"/>
          <rect id="Rectangle_38508" data-name="Rectangle 38508" width="10.739" height="1.691" transform="translate(75.971 67.842)" fill="#94b9e1"/>
          <path id="Path_130176" data-name="Path 130176" d="M1018.132,986.156l.777-37.653h-10.591l4.026,26.669Z" transform="translate(-932.273 -876.969)" fill="#00406b"/>
          <path id="Path_130177" data-name="Path 130177" d="M1013.492,986.156l-5.174-37.653h5.222l4.7,37.653Z" transform="translate(-932.273 -876.969)" fill="#2e547c"/>
          <path id="Path_130178" data-name="Path 130178" d="M1029.452,1196.99l.769-20.456,2.811,20.456Z" transform="translate(-951.814 -1087.803)" fill="#00406b"/>
          <path id="Path_130179" data-name="Path 130179" d="M1444.7,1185.182v17.412h1.056v-7.223a1.066,1.066,0,0,1,1.149-.957s.131-.032.126-.126c0-.073-.055-.075-.139-.1a2.28,2.28,0,0,1-1.637-2.351c0-1.878,2.33-3.952,3.547-4.45a2.277,2.277,0,0,1,1.642-.024c1.292.485,3.463,2.769,3.463,4.677a2.212,2.212,0,0,1-1.417,2.334c-.114.043-.345.052-.345.154,0,.121.414.113.414.113.593.042.75.439.75.934v7.023h1.462v-17.412Z" transform="translate(-1335.743 -1095.798)" fill="#f16438"/>
          <rect id="Rectangle_38509" data-name="Rectangle 38509" width="15.942" height="16.915" transform="translate(91.405 92.462)" fill="#ec411b"/>
          <rect id="Rectangle_38510" data-name="Rectangle 38510" width="6.545" height="11.287" transform="translate(81.426 98.09)" fill="#ec411b"/>
          <rect id="Rectangle_38511" data-name="Rectangle 38511" width="6.545" height="11.298" transform="translate(139.66 98.079)" fill="#ec411b"/>
          <rect id="Rectangle_38512" data-name="Rectangle 38512" width="3.435" height="19.327" transform="translate(87.97 90.05)" fill="#f27961"/>
          <rect id="Rectangle_38513" data-name="Rectangle 38513" width="15.942" height="16.915" transform="translate(122.008 92.462)" fill="#ec411b"/>
          <rect id="Rectangle_38514" data-name="Rectangle 38514" width="3.435" height="19.327" transform="translate(136.232 90.05)" fill="#f27961"/>
          <rect id="Rectangle_38515" data-name="Rectangle 38515" width="3.435" height="22.864" transform="translate(105.63 86.513)" fill="#f5845b"/>
          <rect id="Rectangle_38516" data-name="Rectangle 38516" width="3.435" height="22.864" transform="translate(118.681 86.513)" fill="#f5845b"/>
          <rect id="Rectangle_38517" data-name="Rectangle 38517" width="14.224" height="2.744" transform="translate(122.008 106.633)" fill="#faa985"/>
          <rect id="Rectangle_38518" data-name="Rectangle 38518" width="14.224" height="2.744" transform="translate(91.405 106.633)" fill="#faa985"/>
          <rect id="Rectangle_38519" data-name="Rectangle 38519" width="6.545" height="2.744" transform="translate(81.426 106.633)" fill="#f5845b"/>
          <rect id="Rectangle_38520" data-name="Rectangle 38520" width="6.545" height="2.744" transform="translate(139.66 106.633)" fill="#f5845b"/>
          <rect id="Rectangle_38521" data-name="Rectangle 38521" width="1.288" height="16.423" transform="translate(106.809 88.333)" fill="#e82727"/>
          <rect id="Rectangle_38522" data-name="Rectangle 38522" width="1.288" height="5.768" transform="translate(89.036 91.502)" fill="#e82727"/>
          <rect id="Rectangle_38523" data-name="Rectangle 38523" width="1.288" height="5.768" transform="translate(137.298 91.502)" fill="#e82727"/>
          <rect id="Rectangle_38524" data-name="Rectangle 38524" width="1.288" height="5.768" transform="translate(89.036 99.141)" fill="#e82727"/>
          <rect id="Rectangle_38525" data-name="Rectangle 38525" width="1.288" height="5.768" transform="translate(137.298 99.141)" fill="#e82727"/>
          <rect id="Rectangle_38526" data-name="Rectangle 38526" width="1.288" height="1.288" transform="translate(137.298 107.385)" fill="#e82727"/>
          <rect id="Rectangle_38527" data-name="Rectangle 38527" width="1.288" height="1.288" transform="translate(119.756 107.385)" fill="#e82727"/>
          <rect id="Rectangle_38528" data-name="Rectangle 38528" width="1.288" height="1.288" transform="translate(106.809 107.385)" fill="#e82727"/>
          <rect id="Rectangle_38529" data-name="Rectangle 38529" width="1.288" height="1.288" transform="translate(89.044 107.385)" fill="#e82727"/>
          <rect id="Rectangle_38530" data-name="Rectangle 38530" width="1.288" height="16.423" transform="translate(119.755 88.333)" fill="#e82727"/>
          <rect id="Rectangle_38531" data-name="Rectangle 38531" width="2.567" height="2.821" transform="translate(106.064 83.692)" fill="#b25b49"/>
          <rect id="Rectangle_38532" data-name="Rectangle 38532" width="3.435" height="1.334" transform="translate(105.63 83.368)" fill="#a4363d"/>
          <rect id="Rectangle_38533" data-name="Rectangle 38533" width="1.112" height="1.333" transform="translate(106.717 85.179)" fill="#8f0d18"/>
          <rect id="Rectangle_38534" data-name="Rectangle 38534" width="2.567" height="2.821" transform="translate(119.115 83.692)" fill="#b25b49"/>
          <rect id="Rectangle_38535" data-name="Rectangle 38535" width="3.435" height="1.334" transform="translate(118.681 83.368)" fill="#a4363d"/>
          <rect id="Rectangle_38536" data-name="Rectangle 38536" width="1.112" height="1.333" transform="translate(119.768 85.179)" fill="#8f0d18"/>
          <rect id="Rectangle_38537" data-name="Rectangle 38537" width="2.567" height="2.821" transform="translate(136.666 87.23)" fill="#b25b49"/>
          <rect id="Rectangle_38538" data-name="Rectangle 38538" width="3.435" height="1.334" transform="translate(136.232 86.905)" fill="#a4363d"/>
          <rect id="Rectangle_38539" data-name="Rectangle 38539" width="1.112" height="1.333" transform="translate(137.386 88.717)" fill="#8f0d18"/>
          <rect id="Rectangle_38540" data-name="Rectangle 38540" width="2.567" height="2.821" transform="translate(88.404 87.23)" fill="#b25b49"/>
          <rect id="Rectangle_38541" data-name="Rectangle 38541" width="3.435" height="1.334" transform="translate(87.97 86.905)" fill="#a4363d"/>
          <rect id="Rectangle_38542" data-name="Rectangle 38542" width="1.112" height="1.333" transform="translate(89.124 88.717)" fill="#8f0d18"/>
          <rect id="Rectangle_38543" data-name="Rectangle 38543" width="9.617" height="2.477" transform="translate(109.065 87.573)" fill="#f7a089"/>
          <rect id="Rectangle_38544" data-name="Rectangle 38544" width="11.378" height="1.503" transform="translate(123.132 93.592)" fill="#8f0d18"/>
          <rect id="Rectangle_38545" data-name="Rectangle 38545" width="11.378" height="3.169" transform="translate(123.132 98.856)" fill="#8f0d18"/>
          <rect id="Rectangle_38546" data-name="Rectangle 38546" width="11.378" height="1.988" transform="translate(123.132 96.276)" fill="#8f0d18"/>
          <rect id="Rectangle_38547" data-name="Rectangle 38547" width="11.378" height="3.169" transform="translate(123.132 102.744)" fill="#8f0d18"/>
          <rect id="Rectangle_38548" data-name="Rectangle 38548" width="11.378" height="1.503" transform="translate(93.283 93.592)" fill="#8f0d18"/>
          <rect id="Rectangle_38549" data-name="Rectangle 38549" width="11.378" height="3.169" transform="translate(93.283 98.856)" fill="#8f0d18"/>
          <rect id="Rectangle_38550" data-name="Rectangle 38550" width="3.877" height="3.169" transform="translate(82.715 98.856)" fill="#8f0d18"/>
          <rect id="Rectangle_38551" data-name="Rectangle 38551" width="3.877" height="3.169" transform="translate(82.715 102.607)" fill="#8f0d18"/>
          <rect id="Rectangle_38552" data-name="Rectangle 38552" width="3.877" height="3.169" transform="translate(140.993 98.856)" fill="#8f0d18"/>
          <rect id="Rectangle_38553" data-name="Rectangle 38553" width="3.877" height="3.169" transform="translate(140.993 102.607)" fill="#8f0d18"/>
          <rect id="Rectangle_38554" data-name="Rectangle 38554" width="11.378" height="1.988" transform="translate(93.283 96.276)" fill="#8f0d18"/>
          <rect id="Rectangle_38555" data-name="Rectangle 38555" width="11.378" height="3.169" transform="translate(93.283 102.744)" fill="#8f0d18"/>
          <rect id="Rectangle_38556" data-name="Rectangle 38556" width="3.435" height="0.371" transform="translate(105.63 86.513)" fill="#e7c7c8"/>
          <rect id="Rectangle_38557" data-name="Rectangle 38557" width="3.435" height="0.777" transform="translate(87.963 98.079)" fill="#e7c7c8"/>
          <rect id="Rectangle_38558" data-name="Rectangle 38558" width="3.435" height="0.777" transform="translate(136.225 98.079)" fill="#e7c7c8"/>
          <rect id="Rectangle_38559" data-name="Rectangle 38559" width="3.435" height="0.787" transform="translate(105.63 105.382)" fill="#e7c7c8"/>
          <rect id="Rectangle_38560" data-name="Rectangle 38560" width="3.435" height="0.787" transform="translate(118.681 105.382)" fill="#e7c7c8"/>
          <rect id="Rectangle_38561" data-name="Rectangle 38561" width="3.435" height="0.371" transform="translate(118.607 86.513)" fill="#e7c7c8"/>
          <rect id="Rectangle_38562" data-name="Rectangle 38562" width="2.567" height="2.477" transform="translate(112.589 87.573)" fill="#f27961"/>
          <rect id="Rectangle_38563" data-name="Rectangle 38563" width="1.284" height="1.239" transform="translate(116.2 88.192)" fill="#8f0d18"/>
          <rect id="Rectangle_38564" data-name="Rectangle 38564" width="1.284" height="1.239" transform="translate(113.231 88.192)" fill="#8f0d18"/>
          <rect id="Rectangle_38565" data-name="Rectangle 38565" width="1.284" height="1.239" transform="translate(109.861 88.192)" fill="#8f0d18"/>
          <rect id="Rectangle_38566" data-name="Rectangle 38566" width="9.617" height="2.578" transform="translate(109.065 106.796)" fill="#f7a089"/>
          <rect id="Rectangle_38567" data-name="Rectangle 38567" width="3.087" height="2.578" transform="translate(112.342 106.796)" fill="#f27961"/>
          <rect id="Rectangle_38568" data-name="Rectangle 38568" width="1.283" height="1.239" transform="translate(116.384 107.517)" fill="#8f0d18"/>
          <rect id="Rectangle_38569" data-name="Rectangle 38569" width="1.284" height="1.239" transform="translate(123.132 107.415)" fill="#8f0d18"/>
          <rect id="Rectangle_38570" data-name="Rectangle 38570" width="1.283" height="1.239" transform="translate(125.322 107.415)" fill="#8f0d18"/>
          <rect id="Rectangle_38571" data-name="Rectangle 38571" width="1.283" height="1.239" transform="translate(127.544 107.415)" fill="#8f0d18"/>
          <rect id="Rectangle_38572" data-name="Rectangle 38572" width="1.284" height="1.239" transform="translate(129.734 107.415)" fill="#8f0d18"/>
          <rect id="Rectangle_38573" data-name="Rectangle 38573" width="1.284" height="1.239" transform="translate(131.851 107.415)" fill="#8f0d18"/>
          <rect id="Rectangle_38574" data-name="Rectangle 38574" width="1.284" height="1.239" transform="translate(134.073 107.415)" fill="#8f0d18"/>
          <rect id="Rectangle_38575" data-name="Rectangle 38575" width="1.284" height="1.239" transform="translate(92.405 107.385)" fill="#8f0d18"/>
          <rect id="Rectangle_38576" data-name="Rectangle 38576" width="1.283" height="1.239" transform="translate(94.596 107.385)" fill="#8f0d18"/>
          <rect id="Rectangle_38577" data-name="Rectangle 38577" width="1.283" height="1.239" transform="translate(82.804 107.385)" fill="#8f0d18"/>
          <rect id="Rectangle_38578" data-name="Rectangle 38578" width="1.284" height="1.239" transform="translate(85.308 107.385)" fill="#8f0d18"/>
          <rect id="Rectangle_38579" data-name="Rectangle 38579" width="1.283" height="1.239" transform="translate(141.038 107.385)" fill="#8f0d18"/>
          <rect id="Rectangle_38580" data-name="Rectangle 38580" width="1.283" height="1.239" transform="translate(143.542 107.385)" fill="#8f0d18"/>
          <rect id="Rectangle_38581" data-name="Rectangle 38581" width="1.284" height="1.239" transform="translate(96.817 107.385)" fill="#8f0d18"/>
          <rect id="Rectangle_38582" data-name="Rectangle 38582" width="1.284" height="1.239" transform="translate(99.008 107.385)" fill="#8f0d18"/>
          <rect id="Rectangle_38583" data-name="Rectangle 38583" width="1.284" height="1.239" transform="translate(101.124 107.385)" fill="#8f0d18"/>
          <rect id="Rectangle_38584" data-name="Rectangle 38584" width="1.284" height="1.239" transform="translate(103.346 107.385)" fill="#8f0d18"/>
          <rect id="Rectangle_38585" data-name="Rectangle 38585" width="1.283" height="1.239" transform="translate(113.243 107.515)" fill="#8f0d18"/>
          <rect id="Rectangle_38586" data-name="Rectangle 38586" width="1.283" height="1.239" transform="translate(109.969 107.413)" fill="#8f0d18"/>
          <rect id="Rectangle_38587" data-name="Rectangle 38587" width="3.435" height="0.371" transform="translate(136.232 90.05)" fill="#e7c7c8"/>
          <rect id="Rectangle_38588" data-name="Rectangle 38588" width="5.444" height="1.02" transform="translate(111.151 105.776)" fill="#e82727"/>
          <rect id="Rectangle_38589" data-name="Rectangle 38589" width="3.943" height="0.707" transform="translate(112.01 105.069)" fill="#8f0d18"/>
          <rect id="Rectangle_38590" data-name="Rectangle 38590" width="3.943" height="0.707" transform="translate(111.901 86.876)" fill="#8f0d18"/>
          <path id="Path_130180" data-name="Path 130180" d="M1498.623,1138.482h-2v-.2a.9.9,0,0,1,.9-.9h.205a.9.9,0,0,1,.9.9Z" transform="translate(-1383.749 -1051.606)" fill="#8f0d18"/>
          <rect id="Rectangle_38591" data-name="Rectangle 38591" width="1.691" height="60.058" transform="translate(14.031 52.174)" fill="#8ba3be"/>
          <path id="Path_130181" data-name="Path 130181" d="M201.958,890.7V841.965l4.508,2.576V890.7Z" transform="translate(-186.726 -778.466)" fill="#9fceef"/>
          <rect id="Rectangle_38592" data-name="Rectangle 38592" width="30.915" height="3.215" transform="translate(10.723 112.233)" fill="#d5e7f7"/>
          <rect id="Rectangle_38593" data-name="Rectangle 38593" width="39.21" height="3.215" transform="translate(5.963 115.448)" fill="#a7cce5"/>
          <rect id="Rectangle_38594" data-name="Rectangle 38594" width="9.661" height="3.704" transform="translate(19.74 78.572)" fill="#009cdc"/>
          <rect id="Rectangle_38595" data-name="Rectangle 38595" width="9.661" height="1.401" transform="translate(19.74 78.572)" fill="#0063b0"/>
          <rect id="Rectangle_38596" data-name="Rectangle 38596" width="7.572" height="1.229" transform="translate(27.205 77.343)" fill="#e6f5f9"/>
          <rect id="Rectangle_38597" data-name="Rectangle 38597" width="12.237" height="8.521" transform="translate(19.74 83.411)" fill="#009cdc"/>
          <rect id="Rectangle_38598" data-name="Rectangle 38598" width="10.75" height="1.401" transform="translate(19.74 86.465)" fill="#0063b0"/>
          <rect id="Rectangle_38599" data-name="Rectangle 38599" width="13.106" height="7.358" transform="translate(19.739 93.067)" fill="#009cdc"/>
          <rect id="Rectangle_38600" data-name="Rectangle 38600" width="12.237" height="1.401" transform="translate(19.74 93.067)" fill="#0063b0"/>
          <rect id="Rectangle_38601" data-name="Rectangle 38601" width="13.74" height="8.587" transform="translate(19.74 101.82)" fill="#009cdc"/>
          <rect id="Rectangle_38602" data-name="Rectangle 38602" width="13.74" height="1.401" transform="translate(19.74 109.007)" fill="#0063b0"/>
          <rect id="Rectangle_38603" data-name="Rectangle 38603" width="13.74" height="1.401" transform="translate(19.74 104.713)" fill="#0063b0"/>
          <path id="Path_130182" data-name="Path 130182" d="M201.958,841.965V890.7h20.4s3.65-38.214-20.4-48.734M219.5,888.874H205.017v-42.3c16.477,10.959,14.479,42.3,14.479,42.3" transform="translate(-186.727 -778.466)" fill="#e0f3f7"/>
          <rect id="Rectangle_38604" data-name="Rectangle 38604" width="9.688" height="1.814" transform="translate(10.052 76.332)" fill="#005a84"/>
          <path id="Path_130183" data-name="Path 130183" d="M1671.553,394.01h.034a1.115,1.115,0,0,0,.941-.5,3.071,3.071,0,0,1,3.433-1.221,1.129,1.129,0,0,0,1.234-.393,4,4,0,0,1,6.665.418,1.142,1.142,0,0,0,1.214.546,2.742,2.742,0,0,1,3.265,2.69v0a.468.468,0,0,1-.47.463h-17.783a.471.471,0,0,1-.447-.617,2.013,2.013,0,0,1,1.916-1.395" transform="translate(-1543.696 -360.868)" fill="#fff"/>
          <path id="Path_130184" data-name="Path 130184" d="M23.525,394.01h-.034a1.115,1.115,0,0,1-.941-.5,3.071,3.071,0,0,0-3.433-1.221,1.129,1.129,0,0,1-1.234-.393,4,4,0,0,0-6.665.418,1.142,1.142,0,0,1-1.214.546,2.742,2.742,0,0,0-3.265,2.69v0a.468.468,0,0,0,.47.463H24.994a.471.471,0,0,0,.447-.617,2.013,2.013,0,0,0-1.916-1.395" transform="translate(-6.233 -360.868)" fill="#fff"/>
          <path id="Path_130185" data-name="Path 130185" d="M1006.095,342.986a3.5,3.5,0,0,0-2.439.985.543.543,0,0,1-.754,0,3.516,3.516,0,0,0-3.623-.781,1.094,1.094,0,0,1-1.318-.5,4.916,4.916,0,0,0-5.641-2.305,1.059,1.059,0,0,1-1.143-.392,6.282,6.282,0,0,0-11.189,2.42.78.78,0,0,1-.653.613h-.009a3.516,3.516,0,0,0-2.629,1.923,1.077,1.077,0,0,0,.969,1.55h30.769a.976.976,0,0,0,.9-1.347,3.513,3.513,0,0,0-3.245-2.165" transform="translate(-902.933 -311.998)" fill="#fff"/>
        </g>
      </g>
    </g>
    <g id="Group_23683" data-name="Group 23683" transform="translate(478.193 1064.004)">
      <g id="Group_23682" data-name="Group 23682" transform="translate(0 -0.004)" clip-path="url(#clip-path-5)">
        <path id="Path_130186" data-name="Path 130186" d="M8.634,22.8a4.94,4.94,0,0,0-.8.079c-.281.034-.562.069-.844.076a1.556,1.556,0,0,1-1.524-.894,11.841,11.841,0,0,1-.522-1.168,2.462,2.462,0,0,0-1.451-1.449,10.633,10.633,0,0,1-1.18-.53,1.656,1.656,0,0,1-.53-.426,1.64,1.64,0,0,1-.326-.911A5.04,5.04,0,0,1,1.5,16.64c.033-.311.079-.621.092-.933a2.171,2.171,0,0,0-.457-1.431c-.271-.361-.541-.723-.8-1.1a1.894,1.894,0,0,1-.312-.7,1.543,1.543,0,0,1,.235-1.152,8.959,8.959,0,0,1,.682-.957,2.747,2.747,0,0,0,.508-.851A2.852,2.852,0,0,0,1.562,8.2c-.046-.349-.1-.7-.123-1.049a2.462,2.462,0,0,1,.033-.593,1.409,1.409,0,0,1,.622-.942,4.925,4.925,0,0,1,.843-.439c.228-.1.458-.191.686-.289A2.3,2.3,0,0,0,4.878,3.635c.156-.365.306-.732.481-1.089a3.727,3.727,0,0,1,.247-.441,1.472,1.472,0,0,1,1.271-.677,7.663,7.663,0,0,1,.815.068c.336.03.671.076,1.007.1a2.047,2.047,0,0,0,1.341-.405c.31-.223.615-.453.923-.679a3.47,3.47,0,0,1,.625-.373A1.42,1.42,0,0,1,12.772.118a2.51,2.51,0,0,1,.408.215,9.673,9.673,0,0,1,.938.683,2.448,2.448,0,0,0,1.855.565c.317-.025.629-.087.945-.117a3.917,3.917,0,0,1,.832-.008,1.409,1.409,0,0,1,1.04.646A5.151,5.151,0,0,1,19.3,3.111c.054.138.1.28.16.417A2.629,2.629,0,0,0,21.013,5a7.314,7.314,0,0,1,1.123.509,1.607,1.607,0,0,1,.688.7,1.642,1.642,0,0,1,.141.753c-.008.3-.054.593-.08.889-.023.257-.055.513-.075.77a2.166,2.166,0,0,0,.461,1.5q.4.531.781,1.07a1.809,1.809,0,0,1,.313.718,1.53,1.53,0,0,1-.084.862,1.889,1.889,0,0,1-.207.395c-.23.33-.457.661-.714.971a2.383,2.383,0,0,0-.554,1.506,6.133,6.133,0,0,0,.081.9,7.183,7.183,0,0,1,.077.948A1.5,1.5,0,0,1,22.1,18.9c-.41.211-.832.4-1.26.571a2.375,2.375,0,0,0-1.138.921,3.219,3.219,0,0,0-.265.532c-.152.372-.312.741-.5,1.1a2.182,2.182,0,0,1-.329.476,1.422,1.422,0,0,1-1,.454,4.8,4.8,0,0,1-.727-.044c-.425-.039-.848-.1-1.274-.112a1.99,1.99,0,0,0-1.251.4c-.306.22-.607.448-.912.67a3.674,3.674,0,0,1-.569.352,1.482,1.482,0,0,1-1.362,0,6.362,6.362,0,0,1-.944-.621c-.1-.076-.2-.159-.3-.241a2.4,2.4,0,0,0-1.637-.56M6.4,11.737a1.29,1.29,0,0,0,.406.974q1.63,1.633,3.264,3.263a1.9,1.9,0,0,0,.4.308,1.163,1.163,0,0,0,1.2.013,2.071,2.071,0,0,0,.469-.364l1.971-1.966,3.285-3.284c.088-.088.175-.176.257-.269a1.315,1.315,0,0,0,.336-1.142A1.343,1.343,0,0,0,16.38,8.2a1.478,1.478,0,0,0-.734.432l-3.641,3.643c-.249.249-.494.5-.745.749-.145.143-.229.142-.363-.006-.307-.338-.646-.644-.967-.969-.415-.42-.836-.834-1.256-1.25a1.414,1.414,0,0,0-.51-.326A1.333,1.333,0,0,0,6.4,11.737" transform="translate(0 0.003)" fill="#2799ff"/>
      </g>
    </g>
  </g>
</svg>
