<svg xmlns="http://www.w3.org/2000/svg" width="14.717" height="14.717" viewBox="0 0 14.717 14.717">
  <path id="user-interface" d="M7.359,0a7.359,7.359,0,1,0,7.359,7.359A7.367,7.367,0,0,0,7.359,0Zm0,.92a6.434,6.434,0,0,1,5.4,9.935,5.545,5.545,0,0,0-2.88-3.8,3.219,3.219,0,1,0-5.046,0,5.544,5.544,0,0,0-2.88,3.8A6.434,6.434,0,0,1,7.359.92Zm-2.3,4.139a2.3,2.3,0,1,1,2.3,2.3A2.3,2.3,0,0,1,5.059,5.059Zm2.3,8.738a6.419,6.419,0,0,1-4.6-1.935,4.613,4.613,0,0,1,2.8-4.135,3.214,3.214,0,0,0,3.6,0,4.613,4.613,0,0,1,2.8,4.135A6.419,6.419,0,0,1,7.359,13.8Z" fill="#11004a"/>
</svg>
