<svg xmlns="http://www.w3.org/2000/svg" width="15" height="15" viewBox="0 0 15 15">
  <g id="Group_23774" data-name="Group 23774" transform="translate(-416 287)">
    <g id="booking" transform="translate(416 -287)">
      <path id="Path_26" data-name="Path 26" d="M13.384.941H12.176v-.5a.439.439,0,1,0-.879,0v.5H9.352v-.5a.439.439,0,1,0-.879,0v.5H6.527v-.5a.439.439,0,1,0-.879,0v.5H3.7v-.5a.439.439,0,1,0-.879,0v.5H1.616A1.618,1.618,0,0,0,0,2.558V13.384A1.618,1.618,0,0,0,1.616,15H13.384A1.618,1.618,0,0,0,15,13.384V2.558A1.618,1.618,0,0,0,13.384.941ZM1.616,1.82H2.824v.5a.439.439,0,1,0,.879,0v-.5H5.648v.5a.439.439,0,1,0,.879,0v-.5H8.473v.5a.439.439,0,1,0,.879,0v-.5H11.3v.5a.439.439,0,0,0,.879,0v-.5h1.208a.738.738,0,0,1,.737.737V3.766H.879V2.558a.738.738,0,0,1,.737-.737Zm11.768,12.3H1.616a.738.738,0,0,1-.737-.737V4.645H14.121v8.739A.738.738,0,0,1,13.384,14.121Z" transform="translate(0 0)" fill="#fcc860"/>
      <path id="Path_27" data-name="Path 27" d="M74.316,208.867H72.681a.382.382,0,0,0-.382.382v1.635a.382.382,0,0,0,.382.382h1.635a.382.382,0,0,0,.382-.382v-1.635A.382.382,0,0,0,74.316,208.867Zm-.382,1.635h-.872v-.872h.872Z" transform="translate(-70.46 -202.566)" fill="#fcc860"/>
      <path id="Path_28" data-name="Path 28" d="M347.45,208.867h-1.635a.382.382,0,0,0-.382.382v1.635a.382.382,0,0,0,.382.382h1.635a.382.382,0,0,0,.382-.382v-1.635A.382.382,0,0,0,347.45,208.867Zm-.382,1.635H346.2v-.872h.872Z" transform="translate(-334.67 -202.566)" fill="#fcc860"/>
      <path id="Path_29" data-name="Path 29" d="M74.316,337.4H72.681a.382.382,0,0,0-.382.382v1.635a.382.382,0,0,0,.382.382h1.635a.382.382,0,0,0,.382-.382v-1.635A.382.382,0,0,0,74.316,337.4Zm-.382,1.635h-.872v-.872h.872Z" transform="translate(-70.46 -327.221)" fill="#fcc860"/>
      <path id="Path_30" data-name="Path 30" d="M347.45,337.4h-1.635a.382.382,0,0,0-.382.382v1.635a.382.382,0,0,0,.382.382h1.635a.382.382,0,0,0,.382-.382v-1.635A.382.382,0,0,0,347.45,337.4Zm-.382,1.635H346.2v-.872h.872Z" transform="translate(-334.67 -327.221)" fill="#fcc860"/>
      <path id="Path_31" data-name="Path 31" d="M210.882,337.4h-1.635a.382.382,0,0,0-.382.382v1.635a.382.382,0,0,0,.382.382h1.635a.382.382,0,0,0,.382-.382v-1.635A.382.382,0,0,0,210.882,337.4Zm-.382,1.635h-.872v-.872h.872Z" transform="translate(-202.564 -327.221)" fill="#fcc860"/>
      <path id="Path_32" data-name="Path 32" d="M208.764,218.391l-.886.886-.308-.308a.382.382,0,1,0-.54.54l.578.578a.382.382,0,0,0,.54,0l1.156-1.156a.382.382,0,1,0-.54-.54Z" transform="translate(-200.667 -211.739)" fill="#fcc860"/>
    </g>
  </g>
</svg>
