<svg xmlns="http://www.w3.org/2000/svg" width="14.24" height="14.441" viewBox="0 0 14.24 14.441">
  <g id="_01" transform="translate(-2.2 -2)">
    <g id="Group_23769" data-name="Group 23769" transform="translate(2.2 2)">
      <path id="Path_130594" data-name="Path 130594" d="M13.34,16.441H5.294A3.1,3.1,0,0,1,2.2,13.346v-.1l.309-8.252A3.082,3.082,0,0,1,5.6,2h7.427a3.082,3.082,0,0,1,3.094,2.991l.309,8.252a2.985,2.985,0,0,1-.825,2.218,2.937,2.937,0,0,1-2.166.98h-.1ZM5.6,3.031a2.05,2.05,0,0,0-2.063,1.96l-.309,8.355a2.069,2.069,0,0,0,2.063,2.063h8.149a1.919,1.919,0,0,0,1.444-.67,2.247,2.247,0,0,0,.567-1.5l-.309-8.252a2.015,2.015,0,0,0-2.063-1.96Z" transform="translate(-2.2 -2)" fill="#fcc860"/>
    </g>
    <g id="Group_23770" data-name="Group 23770" transform="translate(5.707 4.063)">
      <path id="Path_130595" data-name="Path 130595" d="M12.61,10.126A3.588,3.588,0,0,1,9,6.516a.516.516,0,1,1,1.031,0,2.579,2.579,0,1,0,5.157,0,.516.516,0,1,1,1.031,0A3.588,3.588,0,0,1,12.61,10.126Z" transform="translate(-9 -6)" fill="#fcc860"/>
    </g>
  </g>
</svg>
