<svg xmlns="http://www.w3.org/2000/svg" width="12.018" height="15" viewBox="0 0 12.018 15">
  <g id="pin_1_" data-name="pin (1)" transform="translate(-50.885)">
    <g id="Group_10" data-name="Group 10" transform="translate(54.331 3.376)">
      <g id="Group_9" data-name="Group 9">
        <path id="Path_34" data-name="Path 34" d="M163.51,110.062a2.563,2.563,0,1,0,2.563,2.563A2.566,2.566,0,0,0,163.51,110.062Zm0,4.047a1.484,1.484,0,1,1,1.484-1.484A1.486,1.486,0,0,1,163.51,114.109Z" transform="translate(-160.947 -110.062)" fill="#fcc860"/>
      </g>
    </g>
    <g id="Group_12" data-name="Group 12" transform="translate(50.885)">
      <g id="Group_11" data-name="Group 11">
        <path id="Path_35" data-name="Path 35" d="M56.894,0a6.016,6.016,0,0,0-6.009,6.009v.166c0,1.676.961,3.629,2.856,5.8A24.7,24.7,0,0,0,56.526,14.7l.368.3.368-.3a24.7,24.7,0,0,0,2.785-2.723C61.943,9.8,62.9,7.851,62.9,6.175V6.009A6.016,6.016,0,0,0,56.894,0Zm4.837,6.175c0,2.832-3.649,6.26-4.837,7.3-1.188-1.041-4.837-4.469-4.837-7.3V6.009a4.837,4.837,0,0,1,9.673,0Z" transform="translate(-50.885)" fill="#fcc860"/>
      </g>
    </g>
  </g>
</svg>
