<svg xmlns="http://www.w3.org/2000/svg" width="18.977" height="17.176" viewBox="0 0 18.977 17.176"><g transform="translate(-5.063 -9.076)"><path d="M10.977,11.059a3.35,3.35,0,0,1,2.934,1.852.741.741,0,0,0,1.282,0,3.352,3.352,0,0,1,2.934-1.852,3.786,3.786,0,0,1,2.915,1.327,4.793,4.793,0,0,1-.45,6.394l-6.041,5.205L8.51,18.78a4.793,4.793,0,0,1-.449-6.394A3.786,3.786,0,0,1,10.977,11.059Zm.032-1.482a5.212,5.212,0,0,0-4.087,1.862,6.274,6.274,0,0,0,.542,8.394c.013.013.027.026.042.039l6.563,5.652a.741.741,0,0,0,.966,0L21.6,19.872l.041-.039a6.274,6.274,0,0,0,.541-8.394A5.208,5.208,0,0,0,18.1,9.577a4.868,4.868,0,0,0-3.543,1.933A4.867,4.867,0,0,0,11.009,9.577Z" transform="translate(0 0)" fill="#fcc860" stroke="#fcc860" stroke-width="1"/></g></svg>