<svg id="house" xmlns="http://www.w3.org/2000/svg" width="15" height="15" viewBox="0 0 15 15">
  <path id="Path_33" data-name="Path 33" d="M12.525,15H2.475A2.513,2.513,0,0,1,0,12.5V7.02A2.459,2.459,0,0,1,.825,5.19L5.85.63a2.476,2.476,0,0,1,3.3,0l5.025,4.56A2.435,2.435,0,0,1,15,7.02V12.5A2.513,2.513,0,0,1,12.525,15ZM7.5,1.545a1.21,1.21,0,0,0-.675.225L1.8,6.33a.882.882,0,0,0-.3.765V12.57a1.006,1.006,0,0,0,.975.99H12.45a1,1,0,0,0,.975-.99V7.1a1.423,1.423,0,0,0-.3-.765L8.1,1.77a.852.852,0,0,0-.6-.225Z" fill="#11004a"/>
</svg>
