<svg xmlns="http://www.w3.org/2000/svg" width="15" height="13.184" viewBox="0 0 15 13.184">
  <path id="portfolio" d="M14.563,1.758H10.576V1.318A1.32,1.32,0,0,0,9.258,0H5.742A1.32,1.32,0,0,0,4.424,1.318v.439H.439A.441.441,0,0,0,0,2.2v9.668a1.32,1.32,0,0,0,1.318,1.318H13.682A1.32,1.32,0,0,0,15,11.865V2.2A.427.427,0,0,0,14.563,1.758ZM5.3,1.318A.44.44,0,0,1,5.742.879H9.258a.44.44,0,0,1,.439.439v.439H5.3Zm8.648,1.318L12.586,6.731a.439.439,0,0,1-.417.3H9.7V6.592a.439.439,0,0,0-.439-.439H5.742a.439.439,0,0,0-.439.439v.439H2.831a.439.439,0,0,1-.417-.3L1.049,2.637ZM8.818,7.031V7.91H6.182V7.031Zm5.3,4.834a.44.44,0,0,1-.439.439H1.318a.44.44,0,0,1-.439-.439V4.905l.7,2.1a1.316,1.316,0,0,0,1.251.9H5.3V8.35a.439.439,0,0,0,.439.439H9.258A.439.439,0,0,0,9.7,8.35V7.91h2.472a1.316,1.316,0,0,0,1.251-.9l.7-2.1Zm0,0" fill="#11004a"/>
</svg>
