<svg xmlns="http://www.w3.org/2000/svg" width="14.558" height="14.558" viewBox="0 0 14.558 14.558">
  <path id="user-interface" d="M7.279,0a7.279,7.279,0,1,0,7.279,7.279A7.287,7.287,0,0,0,7.279,0Zm0,.91a6.364,6.364,0,0,1,5.344,9.827A5.485,5.485,0,0,0,9.775,6.976a3.184,3.184,0,1,0-4.991,0,5.484,5.484,0,0,0-2.849,3.761A6.364,6.364,0,0,1,7.279.91ZM5,5A2.275,2.275,0,1,1,7.279,7.279,2.277,2.277,0,0,1,5,5Zm2.275,8.644a6.349,6.349,0,0,1-4.545-1.914A4.562,4.562,0,0,1,5.5,7.644a3.179,3.179,0,0,0,3.56,0,4.562,4.562,0,0,1,2.765,4.09A6.349,6.349,0,0,1,7.279,13.648Z" fill="#fcc860"/>
</svg>
