<svg id="call" xmlns="http://www.w3.org/2000/svg" width="14" height="14" viewBox="0 0 14 14">
  <g id="Group_23777" data-name="Group 23777">
    <path id="Path_130603" data-name="Path 130603" d="M12.877,9.189a7.949,7.949,0,0,1-2.5-.4,1.141,1.141,0,0,0-1.11.234L7.7,10.214A8.7,8.7,0,0,1,3.785,6.3L4.939,4.77a1.132,1.132,0,0,0,.278-1.147,7.961,7.961,0,0,1-.4-2.5A1.125,1.125,0,0,0,3.694,0H1.123A1.125,1.125,0,0,0,0,1.123,12.891,12.891,0,0,0,12.877,14,1.125,1.125,0,0,0,14,12.877V10.313A1.125,1.125,0,0,0,12.877,9.189Z" fill="#11004a"/>
  </g>
</svg>
