<svg xmlns="http://www.w3.org/2000/svg" width="15.641" height="19.975" viewBox="0 0 15.641 19.975">
  <path id="Path_130605" data-name="Path 130605" d="M19.278,14.068l.007-.021a2.056,2.056,0,0,1,.247-.566,1.972,1.972,0,0,1,.48-.367,2.076,2.076,0,0,0,.857-.815,2.123,2.123,0,0,0,.089-1.174,2.094,2.094,0,0,1-.017-.632,2,2,0,0,1,.272-.536,2.138,2.138,0,0,0,.427-1.122,2.141,2.141,0,0,0-.427-1.122,2,2,0,0,1-.272-.536,2.091,2.091,0,0,1,.017-.631,2.127,2.127,0,0,0-.089-1.174,2.079,2.079,0,0,0-.857-.815,1.973,1.973,0,0,1-.48-.368,2.062,2.062,0,0,1-.247-.566A2.108,2.108,0,0,0,18.7,2.592a2.027,2.027,0,0,0-1.115-.356,1.939,1.939,0,0,1-.592-.12,1.984,1.984,0,0,1-.451-.392,2.066,2.066,0,0,0-.979-.678,2.013,2.013,0,0,0-1.145.174,1.982,1.982,0,0,1-.6.157,1.976,1.976,0,0,1-.6-.157,2.006,2.006,0,0,0-1.145-.174,2.063,2.063,0,0,0-.979.677,1.963,1.963,0,0,1-.451.392,1.939,1.939,0,0,1-.592.12,2.027,2.027,0,0,0-1.115.356,2.112,2.112,0,0,0-.585,1.03,2.056,2.056,0,0,1-.247.566,1.972,1.972,0,0,1-.48.367,2.076,2.076,0,0,0-.857.815,2.123,2.123,0,0,0-.089,1.174,2.1,2.1,0,0,1,.017.632,2,2,0,0,1-.272.536A2.138,2.138,0,0,0,6,8.834a2.141,2.141,0,0,0,.427,1.122,2,2,0,0,1,.272.536,2.092,2.092,0,0,1-.017.632A2.127,2.127,0,0,0,6.771,12.3a2.079,2.079,0,0,0,.857.815,1.973,1.973,0,0,1,.48.368,2.062,2.062,0,0,1,.247.566l.008.023-.005.006L6.118,17.958A.869.869,0,0,0,7,19.251l1.513-.23.558,1.426A.862.862,0,0,0,9.815,21l.067,0a.862.862,0,0,0,.751-.434l2.321-4.021c.092-.03.182-.062.269-.094a1.982,1.982,0,0,1,.6-.157,1.976,1.976,0,0,1,.6.157c.087.032.178.063.27.093l0,.006,2.319,4.016a.862.862,0,0,0,.751.434l.067,0a.863.863,0,0,0,.744-.55l.557-1.426,1.512.23a.869.869,0,0,0,.884-1.293ZM9.88,20.13,9.2,18.381a.436.436,0,0,0-.47-.271l-1.856.283,1.973-3.417a1.169,1.169,0,0,0,.1.1,2.027,2.027,0,0,0,1.115.356,1.94,1.94,0,0,1,.592.12,1.984,1.984,0,0,1,.451.392,2.333,2.333,0,0,0,.836.625Zm4.835-4.5a2.647,2.647,0,0,0-.895-.21,2.637,2.637,0,0,0-.895.21,1.426,1.426,0,0,1-.651.144,1.48,1.48,0,0,1-.55-.434,2.584,2.584,0,0,0-.693-.569,2.61,2.61,0,0,0-.882-.205A1.409,1.409,0,0,1,9.49,14.4a1.519,1.519,0,0,1-.31-.632,2.67,2.67,0,0,0-.387-.825,2.6,2.6,0,0,0-.7-.568,1.454,1.454,0,0,1-.535-.451,1.514,1.514,0,0,1-.011-.7,2.786,2.786,0,0,0,0-.92A2.632,2.632,0,0,0,7.164,9.5a1.5,1.5,0,0,1-.295-.662,1.5,1.5,0,0,1,.295-.661,2.623,2.623,0,0,0,.384-.808,2.786,2.786,0,0,0,0-.92,1.508,1.508,0,0,1,.011-.7,1.451,1.451,0,0,1,.535-.451,2.6,2.6,0,0,0,.7-.568A2.671,2.671,0,0,0,9.18,3.9a1.524,1.524,0,0,1,.311-.633,1.409,1.409,0,0,1,.661-.165,2.61,2.61,0,0,0,.882-.205,2.568,2.568,0,0,0,.693-.569,1.479,1.479,0,0,1,.55-.434,1.435,1.435,0,0,1,.65.144,2.647,2.647,0,0,0,.895.21,2.637,2.637,0,0,0,.895-.21,1.438,1.438,0,0,1,.651-.144,1.48,1.48,0,0,1,.55.434,2.584,2.584,0,0,0,.693.569,2.61,2.61,0,0,0,.882.205,1.409,1.409,0,0,1,.661.165,1.519,1.519,0,0,1,.31.632,2.671,2.671,0,0,0,.387.825,2.6,2.6,0,0,0,.7.568,1.454,1.454,0,0,1,.535.451,1.514,1.514,0,0,1,.011.7,2.786,2.786,0,0,0,0,.92,2.632,2.632,0,0,0,.384.808,1.5,1.5,0,0,1,.295.662,1.5,1.5,0,0,1-.295.661,2.623,2.623,0,0,0-.384.808,2.786,2.786,0,0,0,0,.92,1.508,1.508,0,0,1-.011.7,1.451,1.451,0,0,1-.535.451,2.6,2.6,0,0,0-.7.568,2.671,2.671,0,0,0-.386.825,1.524,1.524,0,0,1-.311.633,1.409,1.409,0,0,1-.661.165,2.61,2.61,0,0,0-.882.205,2.568,2.568,0,0,0-.693.569,1.479,1.479,0,0,1-.55.434,1.441,1.441,0,0,1-.65-.144Zm4.2,2.476a.437.437,0,0,0-.47.271l-.684,1.749-2.055-3.56a2.331,2.331,0,0,0,.836-.624,1.963,1.963,0,0,1,.451-.392,1.939,1.939,0,0,1,.592-.12,2.027,2.027,0,0,0,1.115-.356,1.172,1.172,0,0,0,.1-.1l1.973,3.417Zm.119-9.275a5.214,5.214,0,1,0-5.214,5.214,5.214,5.214,0,0,0,5.214-5.214ZM13.82,13.179a4.345,4.345,0,1,1,4.345-4.345A4.345,4.345,0,0,1,13.82,13.179ZM15.8,7.169a.434.434,0,0,1,.12.6l-1.738,2.607a.434.434,0,0,1-.319.191l-.043,0a.434.434,0,0,1-.307-.127l-1.3-1.3a.434.434,0,1,1,.614-.614l.929.929L15.2,7.29a.435.435,0,0,1,.6-.12Z" transform="translate(-6 -1.024)" fill="#11004a"/>
</svg>
