<svg id="clock_1_" data-name="clock (1)" xmlns="http://www.w3.org/2000/svg" width="15.05" height="15.05" viewBox="0 0 15.05 15.05">
  <g id="Group_23790" data-name="Group 23790" transform="translate(6.942 3.491)">
    <g id="Group_23789" data-name="Group 23789">
      <path id="Path_130648" data-name="Path 130648" d="M239.433,124.141l-2.1-1.574v-3.206a.583.583,0,1,0-1.166,0v3.5a.582.582,0,0,0,.233.466l2.331,1.749a.583.583,0,0,0,.7-.933Z" transform="translate(-236.169 -118.779)" fill="#fcc860"/>
    </g>
  </g>
  <g id="Group_23792" data-name="Group 23792">
    <g id="Group_23791" data-name="Group 23791">
      <path id="Path_130649" data-name="Path 130649" d="M7.525,0A7.525,7.525,0,1,0,15.05,7.525,7.533,7.533,0,0,0,7.525,0Zm0,13.884a6.359,6.359,0,1,1,6.359-6.359A6.367,6.367,0,0,1,7.525,13.884Z" fill="#fcc860"/>
    </g>
  </g>
</svg>
