<svg xmlns="http://www.w3.org/2000/svg" width="26" height="24.341" viewBox="0 0 26 24.341">
  <g id="development" transform="translate(-0.62 -2.623)">
    <path id="Path_130561" data-name="Path 130561" d="M40.583,21.529l-2.5-2.088a2.41,2.41,0,0,0-1.317-.567,1.51,1.51,0,0,0-1.31.5L33.5,21.71,26.07,30.624l0,0a.614.614,0,0,0-.149.407l.1,4.835a.622.622,0,0,0,.745.6l4.651-.946a.614.614,0,0,0,.349-.215l0,0,7.4-8.872L41.121,24.1a1.865,1.865,0,0,0-.539-2.573ZM27.251,35.1,27.2,32.357l2.695,2.206Zm3.962-1.059-3.788-3.1,6.635-7.956,3.76,3.135Zm8.953-10.735-1.55,1.858-3.76-3.135,1.55-1.859a.317.317,0,0,1,.251-.057,1.178,1.178,0,0,1,.625.283l2.5,2.088c.39.325.468.717.38.822Z" transform="translate(-14.822 -9.515)" fill="#11004a"/>
    <path id="Path_130562" data-name="Path 130562" d="M9.051,22.005a.637.637,0,0,0-.1-.05l-.011-.005a.612.612,0,0,0-.222-.043H8.709a.628.628,0,0,0-.222.043l-.011,0a.624.624,0,0,0-.2.134h0l0,0L6.7,23.663a.89.89,0,0,1-1.254,0l-.435-.435a.889.889,0,0,1,0-1.252L6.582,20.4l0,0,0,0v0a.624.624,0,0,0,.133-.2s0-.008,0-.012a.626.626,0,0,0,.043-.222s0-.007,0-.012a.613.613,0,0,0-.043-.223l0-.008a.605.605,0,0,0-.051-.1,7.709,7.709,0,0,1-1.079-2.6c0-.01-.006-.018-.009-.027a.638.638,0,0,0-.029-.089c-.006-.014-.015-.027-.022-.041a.691.691,0,0,0-.036-.064c-.009-.013-.02-.024-.03-.036a.611.611,0,0,0-.048-.056c-.009-.009-.02-.016-.029-.024a.63.63,0,0,0-.064-.051L5.3,16.618a.561.561,0,0,0-.08-.041l-.031-.01a.576.576,0,0,0-.083-.024c-.02,0-.04,0-.06-.006a.544.544,0,0,0-.059-.006H2.751a.889.889,0,0,1-.888-.887v-.609a.889.889,0,0,1,.888-.887H4.986a.617.617,0,0,0,.184-.032L5.2,14.1a.629.629,0,0,0,.157-.087L5.383,14a.632.632,0,0,0,.121-.136c0-.007.007-.014.011-.02a.622.622,0,0,0,.074-.182v0a7.722,7.722,0,0,1,1.079-2.6.605.605,0,0,0,.051-.1l0-.008a.617.617,0,0,0,.043-.223s0-.007,0-.011a.626.626,0,0,0-.043-.222s0-.007,0-.011a.624.624,0,0,0-.134-.2h0l0,0L5.009,8.7a.89.89,0,0,1,0-1.254l.435-.435a.889.889,0,0,1,1.252,0L8.273,8.589l.009.006a.608.608,0,0,0,.179.119l.044.017a.629.629,0,0,0,.206.04h0a.618.618,0,0,0,.208-.041A.609.609,0,0,0,8.979,8.7a.6.6,0,0,0,.072-.033,7.711,7.711,0,0,1,2.6-1.079l.022-.007a.649.649,0,0,0,.095-.03.5.5,0,0,0,.044-.024.683.683,0,0,0,.061-.034.586.586,0,0,0,.046-.039c.015-.013.031-.024.045-.039a3.249,3.249,0,0,0,.075-.093.545.545,0,0,0,.027-.051c.01-.018.021-.036.029-.055s.014-.042.02-.064.012-.034.015-.051a.654.654,0,0,0,.009-.09c0-.01,0-.02,0-.031V4.753a.889.889,0,0,1,.888-.887h.609a.889.889,0,0,1,.888.887V6.98h0v0c0,.014,0,.026,0,.04a.586.586,0,0,0,.008.081.558.558,0,0,0,.017.058c.006.019.01.039.017.057a.528.528,0,0,0,.031.059c.009.016.016.032.026.047a.55.55,0,0,0,.039.048c.012.015.023.031.037.045a.493.493,0,0,0,.045.038A.6.6,0,0,0,14.8,7.5c.018.012.039.022.058.033a.521.521,0,0,0,.047.026.615.615,0,0,0,.087.028c.01,0,.019.007.029.009a7.725,7.725,0,0,1,2.6,1.079.682.682,0,0,0,.071.033.574.574,0,0,0,.059.027.616.616,0,0,0,.208.041.624.624,0,0,0,.208-.04l.044-.017a.608.608,0,0,0,.179-.119l.009-.006,1.577-1.577a.891.891,0,0,1,1.254,0l.435.435a.883.883,0,0,1,.217.879c.048,0,.1,0,.144,0a3.269,3.269,0,0,1,1.06.285,2.121,2.121,0,0,0-.542-2.045l-.435-.435a2.135,2.135,0,0,0-3.01,0l-1.239,1.24a8.916,8.916,0,0,0-2.088-.866V4.753a2.133,2.133,0,0,0-2.131-2.13h-.609A2.133,2.133,0,0,0,10.9,4.753V6.505a8.927,8.927,0,0,0-2.088.866L7.572,6.13a2.134,2.134,0,0,0-3.008,0l-.435.435a2.136,2.136,0,0,0,0,3.01l1.239,1.239A8.934,8.934,0,0,0,4.5,12.9H2.751A2.133,2.133,0,0,0,.62,15.033v.609a2.133,2.133,0,0,0,2.131,2.13H4.5a8.919,8.919,0,0,0,.866,2.088L4.127,21.1a2.134,2.134,0,0,0,0,3.008l.435.435a2.135,2.135,0,0,0,3.009,0L8.813,23.3a8.943,8.943,0,0,0,1.3.608l-.027-1.348a7.781,7.781,0,0,1-1.037-.559Z" fill="#11004a"/>
    <path id="Path_130563" data-name="Path 130563" d="M18.634,25.16a4.519,4.519,0,0,1,8.15-2.7l.816-.979a5.764,5.764,0,1,0-7.258,8.7l.814-.976a4.526,4.526,0,0,1-2.523-4.052Z" transform="translate(-9.823 -9.823)" fill="#11004a"/>
  </g>
</svg>
