<svg xmlns="http://www.w3.org/2000/svg" width="21.375" height="14.428" viewBox="0 0 21.375 14.428">
  <path id="mail_1_" data-name="mail (1)" d="M4.1,17.937a1.521,1.521,0,0,0-.593.125L12.7,26.546a.678.678,0,0,0,.994,0l9.176-8.483a1.561,1.561,0,0,0-.6-.125H4.1ZM2.525,19.332A1.68,1.68,0,0,0,2.5,19.6V30.7a1.694,1.694,0,0,0,.142.66l6.3-6.112Zm21.333,0-6.388,5.912,6.271,6.12a1.688,1.688,0,0,0,.134-.66V19.6a1.73,1.73,0,0,0-.017-.267ZM10.115,26.337l-6.2,6.02a1.5,1.5,0,0,0,.184.008H22.272a1.486,1.486,0,0,0,.192-.008l-6.17-6.02-1.5,1.386a2.361,2.361,0,0,1-3.181,0Z" transform="translate(-2.5 -17.938)" fill="#11004a"/>
</svg>
