<svg id="museum" xmlns="http://www.w3.org/2000/svg" width="27.396" height="27.396" viewBox="0 0 27.396 27.396">
  <path id="Path_130558" data-name="Path 130558" d="M217.211,43.9a2.206,2.206,0,1,0,2.211,2.206A2.21,2.21,0,0,0,217.211,43.9Zm0,3.527a1.321,1.321,0,1,1,1.327-1.321A1.325,1.325,0,0,1,217.211,47.427Z" transform="translate(-203.513 -41.64)" fill="#bababa"/>
  <path id="Path_130559" data-name="Path 130559" d="M28.512,28.512V26.748h-.884V24.985h-.884V22.337h-.884V13.082h.884V10.434h.884V6.908H25.06L15.7,2,6.336,6.908H3.769v3.527h.884v2.648h.884v9.26H4.653V24.99H3.769v1.763H2.884v1.763H2V29.4H29.4v-.884ZM25.864,12.2H21.447V10.434h4.417ZM17.909,22.342v-9.26h.884V10.434h1.769v2.648h.884v9.26h-.884V24.99H18.794V22.342Zm-7.955,0v-9.26h.884V10.434h1.769v2.648h.879v9.26H12.6V24.99H10.834V22.342ZM5.532,12.2V10.434H9.949V12.2Zm3.538.884v9.26H6.417v-9.26Zm4.417,10.139h4.422v1.763H13.487Zm.884-.879v-9.26h2.653v9.26ZM13.487,12.2V10.434h4.422V12.2Zm7.955,11.023h4.417v1.763H21.441Zm.884-.879v-9.26h2.653v9.26ZM4.653,9.555V7.792h1.9L15.7,3l9.141,4.794h1.9V9.555Zm.879,13.666H9.949v1.763H5.532Zm-.879,2.648H26.748v.884H4.653Zm22.974,2.643H3.769v-.884H27.633v.884Z" transform="translate(-2 -2)" fill="#bababa"/>
</svg>
