<svg id="landscape" xmlns="http://www.w3.org/2000/svg" width="27" height="27" viewBox="0 0 27 27">
  <path id="Path_130556" data-name="Path 130556" d="M26.694,21.9H24.454a1.74,1.74,0,0,0-1.68-1.306v-3.06a2.155,2.155,0,0,0,1.306.447,2.18,2.18,0,0,0,2.177-2.177,2.06,2.06,0,0,0-.042-.411,2.164,2.164,0,0,0,.215-3.357,2.14,2.14,0,0,0-.3-2.475,2.1,2.1,0,0,0,.13-.725,2.18,2.18,0,0,0-1.923-2.163,2.169,2.169,0,0,0-3.993,0,2.18,2.18,0,0,0-1.923,2.163,2.1,2.1,0,0,0,.13.725,2.157,2.157,0,0,0-.475.87,2.812,2.812,0,0,0-1.832-.723,2.952,2.952,0,0,0-2.189,1.069,2.557,2.557,0,0,0-.732-1.557L12.067,7.968h2V7.091a1.289,1.289,0,0,0-.544-1.042,11.448,11.448,0,0,1-3.674-4.4,1.109,1.109,0,0,0-2.016,0,11.435,11.435,0,0,1-3.674,4.4,1.29,1.29,0,0,0-.543,1.042v.877h2L4.356,9.221a2.556,2.556,0,0,0-.743,1.795v.435h2L4.356,12.705A2.556,2.556,0,0,0,3.613,14.5v.435H8.4v1.742A2.18,2.18,0,0,0,6.241,18.6a2.173,2.173,0,0,0-.887,3.3A1.308,1.308,0,0,0,4.048,23.21a.436.436,0,0,1-.435.435H2.306a1.306,1.306,0,1,0,0,2.613H4.564a1.292,1.292,0,0,0-.08.435A1.308,1.308,0,0,0,5.79,28H22.774a1.306,1.306,0,0,0,0-2.613H21.468a.435.435,0,0,1,0-.871h5.226a1.306,1.306,0,1,0,0-2.613Zm-3.175,0H17.677a.867.867,0,0,1,.458-.382l.3-.105-.01-.32a.263.263,0,0,0-.007-.063,1.3,1.3,0,0,1,2.439-.636l.1.183.208.033a.866.866,0,0,1,.7.63l.128.473.455-.183a.875.875,0,0,1,1.068.371Zm-6.841-2.654a3.479,3.479,0,0,0,2.371-1.922,2.185,2.185,0,0,0,1.549.657,2.155,2.155,0,0,0,1.306-.447v2.435a1.717,1.717,0,0,0-.394-.175,2.171,2.171,0,0,0-3.952,1.033,1.746,1.746,0,0,0-.823,1.073h-.057Zm2.669-9.244.283-.228-.174-.319a1.295,1.295,0,0,1,1.113-1.927l.423.022.087-.342a1.3,1.3,0,0,1,2.521,0l.087.342.354-.015c.023,0,.046,0,.04-.006a1.308,1.308,0,0,1,1.306,1.306,1.29,1.29,0,0,1-.165.619l-.174.319.283.228a1.28,1.28,0,0,1,.175,1.851l-.333.392.442.263a1.295,1.295,0,0,1-.1,2.289l-.358.173.141.372a1.3,1.3,0,1,1-2.524.46V14.653l1.647-2.059-.681-.544-.966,1.208V8.839H21.9v2.677l-.966-1.208-.681.544L21.9,12.911v2.9a1.3,1.3,0,0,1-2.466.6,6.32,6.32,0,0,0,.288-1.9,5.887,5.887,0,0,0-.871-3.158v-.326a1.3,1.3,0,0,1,.492-1.011Zm-3.1.575c1.441,0,2.613,1.758,2.613,3.919,0,1.938-.944,3.548-2.177,3.861V15.089l1.647-2.059-.681-.544-.966,1.208V12.323h-.871v3.352l-.944-1.416-.725.483,1.669,2.5v1.116c-1.234-.312-2.177-1.922-2.177-3.861,0-2.161,1.172-3.919,2.613-3.919Zm-2.685.871a5.306,5.306,0,0,0-.467,1.022l-1.023-1.022Zm-8.585,1.87,1.87-1.87h.691v-.871H4.543a1.681,1.681,0,0,1,.429-.743l1.87-1.87h.691V7.1H4.484V7.091a.412.412,0,0,1,.18-.334A12.31,12.31,0,0,0,8.618,2.019a.246.246,0,0,1,.442,0,12.316,12.316,0,0,0,3.954,4.738.412.412,0,0,1,.18.334L10.145,7.1v.871h.691l1.87,1.87a1.673,1.673,0,0,1,.429.743h-2.99v.871h.691l1.87,1.87a1.663,1.663,0,0,1,.135.154c-.03.192-.053.389-.066.59H4.543A1.677,1.677,0,0,1,4.972,13.321Zm4.3,1.614h3.5c.148,2.239,1.42,4.035,3.032,4.313V21.9H14.058a2.171,2.171,0,0,0-1.735-3.484,2.057,2.057,0,0,0-.411.042,2.152,2.152,0,0,0-1.767-.913h-.009a2.183,2.183,0,0,0-.862-.682Zm-2.5,4.4.342-.087L7.1,18.9a.133.133,0,0,0-.005-.042h0a1.3,1.3,0,0,1,2.44-.635l.183.254.295-.041a1.062,1.062,0,0,1,.131-.013,1.294,1.294,0,0,1,1.171.742l.173.36.373-.142a1.3,1.3,0,0,1,1.323,2.2l-.252.327h-6.4l-.305-.327a1.3,1.3,0,0,1,.542-2.241Zm19.919,4.309H21.468a1.308,1.308,0,0,0-1.306,1.306,1.292,1.292,0,0,0,.08.435H19.29v.871h3.484a.435.435,0,1,1,0,.871H5.79a.435.435,0,1,1,0-.871H8.4v-.871h-6.1a.435.435,0,1,1,0-.871H3.613A1.308,1.308,0,0,0,4.919,23.21a.436.436,0,0,1,.435-.435H26.694a.435.435,0,0,1,0,.871Z" transform="translate(-1 -1)" fill="#bababa"/>
  <path id="Path_130557" data-name="Path 130557" d="M20.684,54.119A1.12,1.12,0,0,0,19.566,53H18v.895h1.566a.224.224,0,0,1,.224.224,1.12,1.12,0,0,0,1.119,1.119h1.566v-.895H20.908A.224.224,0,0,1,20.684,54.119Z" transform="translate(-10.636 -30.474)" fill="#bababa"/>
</svg>
