<svg xmlns="http://www.w3.org/2000/svg" width="21.472" height="19.843" viewBox="0 0 21.472 19.843">
  <g id="Icon" transform="translate(-1.264 -2.078)">
    <path id="Path_130614" data-name="Path 130614" d="M5.084,11.214,7.62,16.652a.75.75,0,0,1-.363,1l-1.813.846a1.75,1.75,0,0,1-2.325-.847L1.428,14.022A1.751,1.751,0,0,1,2.275,11.7l1.812-.845a.75.75,0,0,1,1,.363ZM4.042,12.528l-1.133.528a.25.25,0,0,0-.121.332l1.69,3.625a.25.25,0,0,0,.333.121l1.132-.528Z" fill="#aa2e26" fill-rule="evenodd"/>
    <path id="Path_130615" data-name="Path 130615" d="M6.26,17.286a.75.75,0,1,1,1.36-.634l1.69,3.625a.251.251,0,0,0,.333.121l.906-.423a.25.25,0,0,0,.121-.332L9.4,16.924a.75.75,0,1,1,1.359-.634l1.268,2.719a1.75,1.75,0,0,1-.846,2.326l-.907.422a1.749,1.749,0,0,1-2.325-.846Z" fill="#aa2e26" fill-rule="evenodd"/>
    <path id="Path_130616" data-name="Path 130616" d="M14.6,4.405l4.353,9.335a1.75,1.75,0,0,1-1.34,2.473l-10.566,1.5a.75.75,0,0,1-.785-.425L3.725,11.848a.75.75,0,0,1,.178-.875l7.94-7.131A1.75,1.75,0,0,1,14.6,4.4Zm-1.36.634a.25.25,0,0,0-.176-.14.255.255,0,0,0-.217.059l-7.526,6.76,2.066,4.43L17.4,14.728a.251.251,0,0,0,.192-.354Z" fill="#aa2e26" fill-rule="evenodd"/>
    <path id="Path_130617" data-name="Path 130617" d="M21.669,5.963A.75.75,0,1,1,22.3,7.322l-1.813.846a.75.75,0,1,1-.634-1.36Z" fill="#aa2e26" fill-rule="evenodd"/>
    <path id="Path_130618" data-name="Path 130618" d="M22.223,12.015a.75.75,0,0,1-.513,1.41l-1.879-.684a.75.75,0,0,1,.513-1.41Z" fill="#aa2e26" fill-rule="evenodd"/>
    <path id="Path_130619" data-name="Path 130619" d="M16.649,2.572a.75.75,0,0,1,1.41.513l-.684,1.879a.75.75,0,1,1-1.41-.513Z" fill="#aa2e26" fill-rule="evenodd"/>
  </g>
</svg>
