<svg xmlns="http://www.w3.org/2000/svg" xmlns:xlink="http://www.w3.org/1999/xlink" width="20.195" height="20.195" viewBox="0 0 20.195 20.195">
  <defs>
    <clipPath id="clip-path">
      <path id="path1746" d="M0-682.665H20.2v20.2H0Z" transform="translate(0 682.665)" fill="#11004a"/>
    </clipPath>
  </defs>
  <g id="g1740" transform="translate(0 682.665)">
    <g id="g1742" transform="translate(0 -682.665)">
      <g id="g1744" clip-path="url(#clip-path)">
        <g id="g1750" transform="translate(4.26 3.855)">
          <path id="path1752" d="M-400.861-468.112a7.983,7.983,0,0,1-5.65-2.326,7.915,7.915,0,0,1-2.334-5.634,7.915,7.915,0,0,1,2.334-5.634,7.915,7.915,0,0,1,5.634-2.334,7.916,7.916,0,0,1,5.634,2.334,8,8,0,0,1,1.054,9.968.4.4,0,0,1-.546.116.4.4,0,0,1-.116-.546,7.21,7.21,0,0,0-.95-8.98,7.132,7.132,0,0,0-5.076-2.1,7.132,7.132,0,0,0-5.076,2.1,7.132,7.132,0,0,0-2.1,5.076,7.132,7.132,0,0,0,2.1,5.076,7.208,7.208,0,0,0,8.988.945.394.394,0,0,1,.546.115.394.394,0,0,1-.115.546A7.916,7.916,0,0,1-400.861-468.112Z" transform="translate(408.844 484.04)" fill="#11004a"/>
        </g>
        <g id="g1754" transform="translate(17.582 17.178)">
          <path id="path1756" transform="translate(0 0)" fill="#11004a"/>
        </g>
        <g id="g1758" transform="translate(6.109 5.704)">
          <path id="path1760" d="M-200.719-388.105a6.126,6.126,0,0,1-6.119-6.119,6.126,6.126,0,0,1,6.119-6.119,6.126,6.126,0,0,1,6.119,6.119A6.126,6.126,0,0,1-200.719-388.105Zm0-11.449a5.336,5.336,0,0,0-5.33,5.33,5.336,5.336,0,0,0,5.33,5.33,5.336,5.336,0,0,0,5.33-5.33A5.336,5.336,0,0,0-200.719-399.554Z" transform="translate(206.838 400.343)" fill="#11004a"/>
        </g>
        <g id="g1762" transform="translate(9.46 0.405)">
          <path id="path1764" d="M-41.152-74.651h-2.84a1.343,1.343,0,0,1-1.341-1.341,1.343,1.343,0,0,1,1.341-1.341h2.84a1.343,1.343,0,0,1,1.341,1.341A1.343,1.343,0,0,1-41.152-74.651Zm-2.84-1.893a.553.553,0,0,0-.552.552.553.553,0,0,0,.552.552h2.84a.553.553,0,0,0,.552-.552.553.553,0,0,0-.552-.552Z" transform="translate(45.333 77.333)" fill="#11004a"/>
        </g>
        <g id="g1766" transform="translate(10.478 2.298)">
          <path id="path1768" d="M-101.459-63.622a.394.394,0,0,1-.394-.394v-1.163h-1.91v1.163a.394.394,0,0,1-.394.394.394.394,0,0,1-.394-.394v-1.557a.394.394,0,0,1,.394-.394h2.7a.394.394,0,0,1,.394.394v1.557A.394.394,0,0,1-101.459-63.622Z" transform="translate(104.552 65.968)" fill="#11004a"/>
        </g>
        <g id="g1770" transform="translate(12.581 8.654)">
          <path id="path1772" d="M-12.939-79.015a.393.393,0,0,1-.279-.116.394.394,0,0,1,0-.558l2.026-2.026a.394.394,0,0,1,.558,0,.394.394,0,0,1,0,.558l-2.026,2.026A.393.393,0,0,1-12.939-79.015Z" transform="translate(13.333 81.83)" fill="#11004a"/>
        </g>
        <g id="g1774" transform="translate(11.002 10.597)">
          <path id="path1776" d="M-12.108-41.432a1.227,1.227,0,0,1,1.226,1.226,1.227,1.227,0,0,1-1.226,1.226,1.227,1.227,0,0,1-1.226-1.226A1.227,1.227,0,0,1-12.108-41.432Zm0,1.662a.437.437,0,0,0,.437-.437.437.437,0,0,0-.437-.437.437.437,0,0,0-.437.437A.437.437,0,0,0-12.108-39.769Z" transform="translate(13.333 41.432)" fill="#11004a"/>
        </g>
        <g id="g1778" transform="translate(15.685 11.433)">
          <path id="path1780" d="M-24.925-12.544h-.365a.394.394,0,0,1-.394-.394.394.394,0,0,1,.394-.394h.365a.394.394,0,0,1,.394.394A.394.394,0,0,1-24.925-12.544Z" transform="translate(25.685 13.333)" fill="#11004a"/>
        </g>
        <g id="g1782" transform="translate(7.616 11.423)">
          <path id="path1784" d="M-12.573-12.544h-.365a.394.394,0,0,1-.394-.394.394.394,0,0,1,.394-.394h.365a.394.394,0,0,1,.394.394A.394.394,0,0,1-12.573-12.544Z" transform="translate(13.333 13.333)" fill="#11004a"/>
        </g>
        <g id="g1786" transform="translate(11.838 7.211)">
          <path id="path1788" d="M-12.939-12.179a.394.394,0,0,1-.394-.394v-.365a.394.394,0,0,1,.394-.394.394.394,0,0,1,.394.394v.365A.394.394,0,0,1-12.939-12.179Z" transform="translate(13.333 13.333)" fill="#11004a"/>
        </g>
        <g id="g1790" transform="translate(11.828 15.28)">
          <path id="path1792" d="M-12.939-24.531a.394.394,0,0,1-.394-.394v-.365a.394.394,0,0,1,.394-.394.394.394,0,0,1,.394.394v.365A.394.394,0,0,1-12.939-24.531Z" transform="translate(13.333 25.685)" fill="#11004a"/>
        </g>
        <g id="g1794" transform="translate(10.138 9.734)">
          <path id="path1796" d="M-48.067-47.672a.393.393,0,0,1-.279-.116l-1.071-1.071a.394.394,0,0,1,0-.558.394.394,0,0,1,.558,0l1.071,1.071a.394.394,0,0,1,0,.558A.393.393,0,0,1-48.067-47.672Z" transform="translate(49.532 49.532)" fill="#11004a"/>
        </g>
        <g id="g1798" transform="translate(12.421 8.712)">
          <path id="path1800" d="M-12.939-82.378a.393.393,0,0,1-.279-.116.394.394,0,0,1,0-.558l2.129-2.129a.394.394,0,0,1,.558,0,.394.394,0,0,1,0,.558l-2.129,2.129A.393.393,0,0,1-12.939-82.378Z" transform="translate(13.333 85.296)" fill="#11004a"/>
        </g>
        <g id="g1802" transform="translate(1.578 13.862)">
          <path id="path1804" d="M-112.259-12.544h-3.028a.394.394,0,0,1-.394-.394.394.394,0,0,1,.394-.394h3.028a.394.394,0,0,1,.394.394A.394.394,0,0,1-112.259-12.544Z" transform="translate(115.681 13.333)" fill="#11004a"/>
        </g>
        <g id="g1806" transform="translate(2.13 11.557)">
          <path id="path1808" d="M-82.81-12.544h-2.13a.394.394,0,0,1-.394-.394.394.394,0,0,1,.394-.394h2.13a.394.394,0,0,1,.394.394A.394.394,0,0,1-82.81-12.544Z" transform="translate(85.334 13.333)" fill="#11004a"/>
        </g>
        <g id="g1810" transform="translate(0 9.252)">
          <path id="path1812" d="M-160.564-12.544h-4.5a.394.394,0,0,1-.394-.394.394.394,0,0,1,.394-.394h4.5a.394.394,0,0,1,.394.394A.394.394,0,0,1-160.564-12.544Z" transform="translate(165.458 13.333)" fill="#11004a"/>
        </g>
        <g id="g1814" transform="translate(2.689 6.947)">
          <path id="path1816" d="M-105.143-12.544h-2.811a.394.394,0,0,1-.394-.394.394.394,0,0,1,.394-.394h2.811a.394.394,0,0,1,.394.394A.394.394,0,0,1-105.143-12.544Z" transform="translate(108.348 13.333)" fill="#11004a"/>
        </g>
        <g id="g1818" transform="translate(0.394 14.256)">
          <path id="path1820" fill="#11004a"/>
        </g>
      </g>
    </g>
  </g>
</svg>
