<svg id="chip" xmlns="http://www.w3.org/2000/svg" width="27.089" height="27.089" viewBox="0 0 27.089 27.089">
  <g id="Group_23726" data-name="Group 23726" transform="translate(5.09 0)">
    <g id="Group_23725" data-name="Group 23725">
      <path id="Path_130553" data-name="Path 130553" d="M117.808,13.149h-6.389v-.9h1.724a.4.4,0,0,0,0-.794h-1.724v-.9h1.2a1.658,1.658,0,0,0,1.18-.489l2.61-2.61a1.244,1.244,0,1,0-.561-.561l-2.61,2.61a.87.87,0,0,1-.619.256h-1.2V8.88a2.1,2.1,0,0,0-2.093-2.093h-.876V3.274a1.245,1.245,0,1,0-.794,0V6.787h-.9V5.063a.4.4,0,0,0-.794,0V6.787h-.9V.4a.4.4,0,0,0-.794,0V6.787h-.9V5.063a.4.4,0,1,0-.794,0V6.787h-.9V5.59a1.658,1.658,0,0,0-.489-1.18L98.564,1.8A1.246,1.246,0,1,0,98,2.36l2.611,2.611a.87.87,0,0,1,.256.619v1.2h-.876a2.1,2.1,0,0,0-.523.066.4.4,0,1,0,.2.769,1.307,1.307,0,0,1,.325-.041h9.33a1.3,1.3,0,0,1,1.3,1.3v9.331a1.307,1.307,0,0,1-.041.325.4.4,0,1,0,.769.2,2.1,2.1,0,0,0,.066-.523v-.876h3.513a1.245,1.245,0,1,0,0-.794h-3.513v-.9h1.724a.4.4,0,0,0,0-.794h-1.724v-.9h6.389a.4.4,0,0,0,0-.794ZM116.64,6.016a.451.451,0,1,1-.132.319A.448.448,0,0,1,116.64,6.016ZM97.769,1.565a.451.451,0,1,1,0-.638A.452.452,0,0,1,97.769,1.565Zm10.284.98a.451.451,0,1,1,.451-.451A.452.452,0,0,1,108.053,2.546Zm8.058,13.941a.451.451,0,1,1-.451.451A.452.452,0,0,1,116.111,16.487Z" transform="translate(-96.206 -0.001)" fill="#bababa"/>
    </g>
  </g>
  <g id="Group_23728" data-name="Group 23728" transform="translate(0 8.058)">
    <g id="Group_23727" data-name="Group 23727">
      <path id="Path_130554" data-name="Path 130554" d="M21.635,169.211a1.246,1.246,0,0,0-1.434-.234l-2.611-2.611a.87.87,0,0,1-.256-.619v-1.2h.876a2.1,2.1,0,0,0,.523-.066.4.4,0,1,0-.2-.769,1.307,1.307,0,0,1-.325.041H8.879a1.3,1.3,0,0,1-1.3-1.3v-9.33a1.305,1.305,0,0,1,.041-.325.4.4,0,0,0-.769-.2,2.1,2.1,0,0,0-.066.523V154H3.273a1.245,1.245,0,1,0,0,.794H6.786v.9H5.062a.4.4,0,1,0,0,.794H6.786v.9H.4a.4.4,0,1,0,0,.794H6.786v.9H5.062a.4.4,0,0,0,0,.794H6.786v.9h-1.2a1.658,1.658,0,0,0-1.18.489l-2.61,2.61a1.244,1.244,0,1,0,.561.561l2.61-2.61a.87.87,0,0,1,.619-.256h1.2v.876a2.1,2.1,0,0,0,2.093,2.093h.876v3.513a1.245,1.245,0,1,0,.794,0v-3.513h.9v1.724a.4.4,0,1,0,.794,0v-1.724h.9v6.389a.4.4,0,0,0,.794,0v-6.389h.9v1.724a.4.4,0,0,0,.794,0v-1.724h.9v1.2a1.658,1.658,0,0,0,.489,1.18l2.611,2.611a1.245,1.245,0,1,0,1.995-.327ZM2.093,154.851a.451.451,0,1,1,.451-.451A.452.452,0,0,1,2.093,154.851Zm-.529,10.471A.451.451,0,1,1,1.7,165,.448.448,0,0,1,1.564,165.322Zm9.039,3.922a.451.451,0,1,1-.451-.451A.452.452,0,0,1,10.6,169.244Zm10.471,1.167a.451.451,0,1,1,0-.638A.452.452,0,0,1,21.074,170.411Z" transform="translate(0 -152.306)" fill="#bababa"/>
    </g>
  </g>
  <g id="Group_23730" data-name="Group 23730" transform="translate(9.331 8.906)">
    <g id="Group_23729" data-name="Group 23729">
      <path id="Path_130555" data-name="Path 130555" d="M184.785,171.918a1.917,1.917,0,0,0-1.47-1.8,1.354,1.354,0,0,0,.039-.32,1.529,1.529,0,0,0-1.59-1.457,1.651,1.651,0,0,0-1.193.5,1.651,1.651,0,0,0-1.193-.5,1.529,1.529,0,0,0-1.59,1.457,1.355,1.355,0,0,0,.039.32,1.917,1.917,0,0,0-1.47,1.8,1.743,1.743,0,0,0,.418,1.129,1.962,1.962,0,0,0-.418,1.2,2.044,2.044,0,0,0,.954,1.7h0a1.756,1.756,0,0,0,1.828,1.669,1.893,1.893,0,0,0,1.431-.633,1.893,1.893,0,0,0,1.431.633,1.768,1.768,0,0,0,1.824-1.566,1.855,1.855,0,0,0,.958-1.587,1.789,1.789,0,0,0-.552-1.272A1.789,1.789,0,0,0,184.785,171.918Zm-1.4,1.623a1.059,1.059,0,0,1,.611.921,1.015,1.015,0,0,1-.35.746,1.781,1.781,0,0,0-1.043-.84.4.4,0,1,0-.238.757.9.9,0,0,1,.676.821,1.049,1.049,0,0,1-2.069,0V173.4a.966.966,0,0,1,1.035-.876.4.4,0,0,0,0-.794,1.94,1.94,0,0,0-1.035.294v-.507a.4.4,0,1,0-.794,0v2.2a1.891,1.891,0,0,0-.438-.2.4.4,0,0,0-.238.757.9.9,0,0,1,.676.821v.848a1.049,1.049,0,0,1-2.069,0,.8.8,0,0,1,.247-.566.4.4,0,1,0-.559-.563,1.688,1.688,0,0,0-.245.308,1.21,1.21,0,0,1-.4-.875,1.351,1.351,0,0,1,1.122-1.256.4.4,0,1,0-.177-.773,2.417,2.417,0,0,0-.728.3.957.957,0,0,1-.217-.6,1.191,1.191,0,0,1,1.263-1.087h.011a.4.4,0,0,0,.337-.606l-.009-.015-.005-.007-.019-.025h0a.589.589,0,0,1-.145-.381.809.809,0,0,1,1.592,0,.4.4,0,1,0,.794,0,.809.809,0,0,1,1.592,0,.558.558,0,0,1-.06.25,2.2,2.2,0,0,0-.651.163.4.4,0,1,0,.308.731,1.432,1.432,0,0,1,.549-.111h.022a1.191,1.191,0,0,1,1.263,1.087,1.059,1.059,0,0,1-.611.921.4.4,0,0,0,0,.7Z" transform="translate(-176.357 -168.34)" fill="#bababa"/>
    </g>
  </g>
</svg>
