<svg xmlns="http://www.w3.org/2000/svg" width="14.295" height="15.761" viewBox="0 0 14.295 15.761">
  <g id="distance" transform="translate(-4.5 -2.5)">
    <path id="Path_130653" data-name="Path 130653" d="M6.516,7.631a.551.551,0,0,0,.422-.2c.374-.447,1.594-1.983,1.594-2.918a2.016,2.016,0,0,0-4.032,0c0,.935,1.221,2.47,1.594,2.918A.551.551,0,0,0,6.516,7.631Zm0-4.032a.917.917,0,0,1,.916.916,4.675,4.675,0,0,1-.916,1.675A4.675,4.675,0,0,1,5.6,4.516.917.917,0,0,1,6.516,3.6Z" fill="#fcc860"/>
    <path id="Path_130654" data-name="Path 130654" d="M34.516,31.5A2.019,2.019,0,0,0,32.5,33.516c0,.935,1.221,2.47,1.594,2.918a.556.556,0,0,0,.422.2.551.551,0,0,0,.422-.2c.374-.447,1.594-1.983,1.594-2.918A2.019,2.019,0,0,0,34.516,31.5Zm0,3.691a4.675,4.675,0,0,1-.916-1.675.916.916,0,1,1,1.833,0A4.675,4.675,0,0,1,34.516,35.191Z" transform="translate(-17.737 -18.371)" fill="#fcc860"/>
    <path id="Path_130655" data-name="Path 130655" d="M14.58,27.3H7.249a1.649,1.649,0,1,1,0-3.3h4.4a2.749,2.749,0,0,0,0-5.5H7.615a.55.55,0,0,0,0,1.1h4.032a1.649,1.649,0,1,1,0,3.3h-4.4a2.749,2.749,0,0,0,0,5.5H14.58a.55.55,0,1,0,0-1.1Z" transform="translate(0 -10.136)" fill="#fcc860"/>
  </g>
</svg>
